<svg width="66" height="66" viewBox="0 0 66 66" fill="none" xmlns="http://www.w3.org/2000/svg">
<path d="M32.6556 65.3111C24.113 65.3111 16.0622 63.9372 9.98612 61.4432C3.54679 58.7991 0 55.1401 0 51.1398C0 48.4641 1.60846 45.894 4.65149 43.7079C5.22551 43.2953 6.02177 43.4306 6.43036 44.0109C6.83846 44.5906 6.70442 45.3948 6.1304 45.8074C4.49752 46.9805 2.55122 48.8576 2.55122 51.1398C2.55122 53.9801 5.61118 56.8657 10.9468 59.0558C16.7249 61.4281 24.4344 62.7345 32.6556 62.7345C40.8768 62.7345 48.5863 61.4281 54.3644 59.0558C59.7 56.8657 62.76 53.9801 62.76 51.1398C62.76 48.2995 59.7 45.4139 54.3644 43.2238C48.5863 40.8515 40.8768 39.5451 32.6556 39.5451C26.0737 39.5451 19.8043 40.382 14.5255 41.9657C13.8493 42.1685 13.1398 41.7795 12.9395 41.0976C12.7387 40.4157 13.1233 39.6981 13.799 39.4958C19.3105 37.8421 25.8311 36.9685 32.6556 36.9685C41.1982 36.9685 49.249 38.3424 55.3251 40.8364C61.7644 43.4805 65.3112 47.1395 65.3112 51.1398C65.3112 55.1401 61.7644 58.7991 55.3251 61.4432C49.249 63.9372 41.1982 65.3111 32.6556 65.3111Z" fill="#F80505"/>
<path d="M9.20918 43.7461C8.75059 43.7461 8.31306 43.4775 8.11418 43.0246C7.84511 42.411 8.11652 41.6915 8.72064 41.4182L8.78896 41.3873C9.39308 41.1136 10.1011 41.3892 10.3706 42.0028C10.6402 42.6168 10.3688 43.3359 9.76417 43.6097L9.69632 43.6406C9.53768 43.7123 9.37203 43.7461 9.20918 43.7461Z" fill="#F80505"/>
<path d="M32.6554 57.9176C27.9165 57.9176 23.4424 57.2553 20.0587 56.0532C15.1925 54.3243 14.1711 52.0919 14.1711 50.5238C14.1711 48.9558 15.1925 46.7234 20.0587 44.9945C23.4429 43.7924 27.9165 43.1301 32.6554 43.1301C37.3944 43.1301 41.8685 43.7924 45.2522 44.9945C50.1184 46.7234 51.1397 48.9558 51.1397 50.5238C51.1397 52.0919 50.1184 54.3243 45.2522 56.0532C41.8685 57.2553 37.3944 57.9176 32.6554 57.9176ZM32.6554 45.6797C22.9132 45.6797 16.6962 48.5489 16.6962 50.5238C16.6962 52.4988 22.9132 55.368 32.6554 55.368C42.3977 55.368 48.6147 52.4988 48.6147 50.5238C48.6147 48.5489 42.3977 45.6797 32.6554 45.6797Z" fill="#F80505"/>
<path d="M32.656 53.6045C29.3917 53.6045 25.8784 52.544 25.8784 50.2157C25.8784 47.8874 29.3917 46.8269 32.656 46.8269C35.9203 46.8269 39.4336 47.8874 39.4336 50.2157C39.4336 52.544 35.9203 53.6045 32.656 53.6045ZM28.7075 50.2157C29.2657 50.5573 30.648 50.9977 32.656 50.9977C34.664 50.9977 36.0458 50.5573 36.6045 50.2157C36.0463 49.8741 34.664 49.4337 32.656 49.4337C30.648 49.4337 29.2662 49.8746 28.7075 50.2157Z" fill="#F80505"/>
<path d="M32.6556 33.8879C29.364 33.8879 26.2693 32.6163 23.9417 30.3073C21.966 28.3474 20.7102 25.7505 20.4054 22.9954C20.1011 20.2403 20.7598 17.435 22.2607 15.0972L31.5728 0.589307C31.8084 0.222295 32.217 0 32.6556 0C33.0943 0 33.5029 0.222295 33.7385 0.589307L43.051 15.0972C44.5515 17.435 45.2102 20.2403 44.9059 22.9954C44.6011 25.7505 43.3458 28.3474 41.3696 30.3073C39.0419 32.6163 35.9473 33.8879 32.6556 33.8879ZM32.6556 3.64326L24.4255 16.4648C21.9499 20.3214 22.4974 25.2736 25.7565 28.507C29.5605 32.2806 35.7508 32.2806 39.5548 28.507C42.8139 25.2736 43.3613 20.3214 40.8858 16.4648L32.6556 3.64326Z" fill="#F80505"/>
<path d="M37.5871 22.7973C37.0533 22.7973 36.5623 22.449 36.4073 21.9141C36.2076 21.269 36.5714 20.5857 37.2199 20.3872C37.8684 20.1887 38.5562 20.5504 38.7559 21.1955L38.7689 21.2375C38.9565 21.8855 38.5802 22.5626 37.9279 22.7491C37.8146 22.7821 37.6999 22.7973 37.5871 22.7973Z" fill="#F80505"/>
<path d="M32.6551 28.9588C30.7857 28.9588 28.9168 28.2564 27.4937 26.8527C26.9819 26.3478 26.9819 25.5294 27.4937 25.0244C28.0054 24.5195 28.8344 24.5195 29.3462 25.0244C31.171 26.8245 34.1396 26.8245 35.964 25.0244C36.4757 24.5195 37.3048 24.5195 37.817 25.0244C38.3282 25.5294 38.3282 26.3478 37.817 26.8527C36.3934 28.2564 34.5245 28.9588 32.6551 28.9588Z" fill="#F80505"/>
</svg>
