<svg width="47" height="71" viewBox="0 0 47 71" fill="none" xmlns="http://www.w3.org/2000/svg">
<path d="M17.7274 40.8567H15.0001C14.6384 40.8567 14.2916 41.0004 14.0359 41.2561C13.7801 41.5118 13.6365 41.8587 13.6365 42.2203V54.493H16.3637V49.0385H17.7274C18.8123 49.0385 19.8529 48.6075 20.6201 47.8403C21.3872 47.0731 21.8182 46.0325 21.8182 44.9476C21.8182 43.8626 21.3872 42.8221 20.6201 42.0549C19.8529 41.2877 18.8123 40.8567 17.7274 40.8567ZM17.7274 46.3112H16.3637V43.5839H17.7274C18.089 43.5839 18.4359 43.7276 18.6916 43.9833C18.9473 44.2391 19.091 44.5859 19.091 44.9476C19.091 45.3092 18.9473 45.6561 18.6916 45.9118C18.4359 46.1675 18.089 46.3112 17.7274 46.3112Z" fill="#F80505"/>
<path d="M30.0002 46.3112H27.2729V40.8567H24.5457V54.493H27.2729V49.0385H30.0002V54.493H32.7274V40.8567H30.0002V46.3112Z" fill="#F80505"/>
<path d="M24.3749 0.652818C24.2467 0.452657 24.0702 0.287954 23.8617 0.173874C23.6532 0.059793 23.4194 0 23.1817 0C22.944 0 22.7101 0.059793 22.5016 0.173874C22.2931 0.287954 22.1167 0.452657 21.9885 0.652818L3.46362 34.2281C1.19453 38.3469 0.00310138 42.9723 0 47.6748C0 53.823 2.44235 59.7193 6.78976 64.0667C11.1372 68.4141 17.0335 70.8565 23.1817 70.8565C29.3298 70.8565 35.2262 68.4141 39.5736 64.0667C43.921 59.7193 46.3634 53.823 46.3634 47.6748C46.3603 42.9723 45.1688 38.3469 42.8997 34.2281L24.3749 0.652818ZM23.1817 68.1292C17.7587 68.1231 12.5596 65.9661 8.72499 62.1315C4.89037 58.2969 2.73339 53.0978 2.72726 47.6748C2.72881 43.4307 3.80348 39.2559 5.85133 35.5385L23.1817 4.13416L40.512 35.5385C42.5599 39.2559 43.6345 43.4307 43.6361 47.6748C43.63 53.0978 41.473 58.2969 37.6384 62.1315C33.8037 65.9661 28.6046 68.1231 23.1817 68.1292Z" fill="#F80505"/>
<path d="M23.1813 29.9478C19.6752 29.9478 16.2478 30.9874 13.3326 32.9353C10.4174 34.8832 8.14524 37.6518 6.80351 40.891C5.46178 44.1302 5.11073 47.6946 5.79473 51.1333C6.47874 54.572 8.16709 57.7307 10.6463 60.2099C13.1255 62.6891 16.2841 64.3775 19.7229 65.0615C23.1616 65.7455 26.7259 65.3944 29.9652 64.0527C33.2044 62.711 35.973 60.4388 37.9209 57.5236C39.8688 54.6084 40.9084 51.181 40.9084 47.6749C40.903 42.975 39.0336 38.4692 35.7103 35.1459C32.387 31.8226 27.8811 29.9532 23.1813 29.9478ZM23.1813 62.6748C20.2146 62.6748 17.3145 61.7951 14.8478 60.1469C12.381 58.4987 10.4585 56.156 9.32317 53.4151C8.18786 50.6743 7.89081 47.6583 8.46958 44.7486C9.04836 41.8389 10.477 39.1662 12.5747 37.0684C14.6725 34.9706 17.3452 33.542 20.2549 32.9632C23.1646 32.3845 26.1806 32.6815 28.9215 33.8168C31.6624 34.9521 34.005 36.8747 35.6532 39.3414C37.3014 41.8081 38.1812 44.7082 38.1812 47.6749C38.1765 51.6517 36.5946 55.4643 33.7826 58.2763C30.9706 61.0883 27.1581 62.6701 23.1813 62.6748Z" fill="#F80505"/>
</svg>
