<svg width="66" height="65" viewBox="0 0 66 65" fill="none" xmlns="http://www.w3.org/2000/svg">
<path d="M61.2797 15.68C62.6604 14.1827 63.5044 12.1894 63.5044 10.0034C63.5044 5.36754 59.7114 1.59631 55.0488 1.59631C52.738 1.59631 50.6416 2.52349 49.1135 4.02228C44.3221 1.38927 38.9044 0 33.3932 0C26.0114 0 18.8298 2.50749 13.0847 7.07537C11.7538 6.2062 10.1638 5.6991 8.45569 5.6991C7.95924 5.6991 7.46129 5.74211 6.9754 5.82763C6.44978 5.91965 6.0987 6.41824 6.19175 6.94135C6.28481 7.46395 6.78628 7.81301 7.3119 7.7205C7.68663 7.65448 8.07141 7.62148 8.45569 7.62148C12.052 7.62148 14.9784 10.5305 14.9784 14.1062C14.9784 17.6819 12.0525 20.591 8.45569 20.591C4.85934 20.591 1.93348 17.6819 1.93348 14.1062C1.93348 12.1223 2.82879 10.2745 4.39006 9.03525C4.80703 8.70419 4.87544 8.09907 4.54246 7.68449C4.20898 7.26991 3.60087 7.2019 3.1834 7.53296C1.16039 9.13877 0 11.5347 0 14.1062C0 16.7122 1.19912 19.0452 3.07727 20.5885C1.60503 24.3317 0.859099 28.2835 0.859099 32.3473C0.859099 40.9874 4.24319 49.1105 10.3882 55.2202C16.5331 61.3299 24.7031 64.695 33.3932 64.695C42.0833 64.695 50.2538 61.3299 56.3988 55.2202C62.5432 49.1105 65.9273 40.9874 65.9273 32.3473C65.9273 26.4466 64.3218 20.701 61.2797 15.68ZM55.0488 3.51868C58.6451 3.51868 61.571 6.42775 61.571 10.0034C61.571 13.5791 58.6451 16.4887 55.0488 16.4887C51.4524 16.4887 48.526 13.5791 48.526 10.0034C48.526 6.42775 51.4524 3.51868 55.0488 3.51868ZM55.0312 53.8609C49.2518 59.6076 41.5672 62.7727 33.3932 62.7727C25.2197 62.7727 17.5351 59.6076 11.7553 53.8609C5.97547 48.1143 2.79258 40.4743 2.79258 32.3473C2.79258 28.6571 3.44797 25.0659 4.73863 21.6552C5.86129 22.2038 7.12278 22.5134 8.45569 22.5134C13.1184 22.5134 16.9119 18.7421 16.9119 14.1062C16.9119 11.8743 16.0312 9.84491 14.5987 8.33762C19.9504 4.19381 26.5803 1.92237 33.3932 1.92237C38.4648 1.92237 43.4519 3.17211 47.8852 5.54457C47.0679 6.83833 46.5931 8.36612 46.5931 10.0034C46.5931 14.6393 50.3861 18.4106 55.0488 18.4106C56.8072 18.4106 58.4414 17.874 59.7954 16.9573C62.5453 21.6107 63.9939 26.9082 63.9939 32.3473C63.9939 40.4743 60.811 48.1143 55.0312 53.8609Z" fill="#F80505"/>
<path d="M33.2709 11.7068C21.7199 11.7068 12.3225 21.0285 12.3225 32.486C12.3225 38.2004 14.7016 43.659 18.8722 47.5765C18.4879 48.5394 18.2742 49.5869 18.2742 50.6832C18.2742 55.3516 22.1032 59.1498 26.8095 59.1498C31.5153 59.1498 35.3443 55.3516 35.3443 50.6832C35.3443 46.0153 31.5158 42.2171 26.8095 42.2171C23.9324 42.2171 21.3848 43.6378 19.8384 45.8078C16.2891 42.2851 14.2741 37.4938 14.2741 32.486C14.2741 22.0956 22.7962 13.6421 33.2709 13.6421C43.7466 13.6421 52.2687 22.0956 52.2687 32.486C52.2687 40.9163 46.5577 48.3823 38.3803 50.6414C37.8609 50.7844 37.5573 51.3183 37.702 51.833C37.8223 52.2615 38.2143 52.5415 38.6412 52.5415C38.728 52.5415 38.8159 52.5299 38.9037 52.5058C43.2257 51.3122 47.1217 48.7025 49.8749 45.1592C52.718 41.4995 54.2202 37.1171 54.2202 32.486C54.2202 21.028 44.8224 11.7068 33.2709 11.7068ZM26.809 44.153C30.4395 44.153 33.3927 47.0825 33.3927 50.6832C33.3927 54.2845 30.4395 57.214 26.809 57.214C23.179 57.214 20.2257 54.2845 20.2257 50.6832C20.2257 47.0825 23.1795 44.153 26.809 44.153Z" fill="#F80505"/>
<path d="M37.3225 33.6253H39.0792V35.3825C39.0792 35.918 39.5137 36.3525 40.0491 36.3525C40.5851 36.3525 41.0191 35.918 41.0191 35.3825V33.6253H42.7763C43.3117 33.6253 43.7463 33.1913 43.7463 32.6553C43.7463 32.1199 43.3117 31.6854 42.7763 31.6854H41.0191V29.9287C41.0191 29.3927 40.5851 28.9587 40.0491 28.9587C39.5137 28.9587 39.0792 29.3927 39.0792 29.9287V31.6854H37.3225C36.7865 31.6854 36.3525 32.1199 36.3525 32.6553C36.3525 33.1913 36.7865 33.6253 37.3225 33.6253Z" fill="#F80505"/>
<path d="M32.5904 21.1954C32.815 20.7161 32.6149 20.1423 32.1441 19.9137C31.0305 19.374 29.8367 19.1003 28.5948 19.1003C24.0394 19.1003 20.3328 22.8732 20.3328 27.5099C20.3328 32.1472 24.0389 35.92 28.5948 35.92C29.8244 35.92 30.9907 35.6434 32.0404 35.1512C33.215 38.4098 36.2999 40.6654 39.7967 40.6654C44.3526 40.6654 48.0592 36.8925 48.0592 32.2553C48.0592 27.6185 44.3526 23.8457 39.7967 23.8457C38.597 23.8457 37.4259 24.1083 36.3515 24.611C36.1235 23.9792 35.8213 23.3734 35.4453 22.8076C35.1534 22.3674 34.5661 22.2519 34.1341 22.549C33.7016 22.8462 33.588 23.444 33.88 23.8837C34.5916 24.9562 34.9676 26.2103 34.9676 27.5099C34.9676 31.0867 32.1087 33.9971 28.5948 33.9971C25.0808 33.9971 22.222 31.0872 22.222 27.5099C22.222 23.9332 25.0808 21.0233 28.5948 21.0233C29.5531 21.0233 30.4736 21.2339 31.3312 21.6501C31.8026 21.8782 32.3663 21.6746 32.5904 21.1954ZM36.8573 27.5099C36.8573 27.1808 36.8376 26.8536 36.8007 26.5305C37.7188 26.0312 38.7435 25.7686 39.7967 25.7686C43.3112 25.7686 46.17 28.6785 46.17 32.2553C46.17 35.8325 43.3112 38.7424 39.7967 38.7424C36.9688 38.7424 34.4899 36.8315 33.6922 34.1212C35.6173 32.5804 36.8573 30.1907 36.8573 27.5099Z" fill="#F80505"/>
<path d="M28.3426 31.4233C28.8785 31.4233 29.3126 30.9893 29.3126 30.4533V28.6961H31.0698C31.6052 28.6961 32.0397 28.2621 32.0397 27.7261C32.0397 27.1907 31.6052 26.7562 31.0698 26.7562H29.3126V24.9995C29.3126 24.4635 28.8785 24.0295 28.3426 24.0295C27.8072 24.0295 27.3727 24.4635 27.3727 24.9995V26.7562H25.6159C25.08 26.7562 24.646 27.1907 24.646 27.7261C24.646 28.2621 25.08 28.6961 25.6159 28.6961H27.3727V30.4533C27.3727 30.9888 27.8072 31.4233 28.3426 31.4233Z" fill="#F80505"/>
<path d="M52.1098 11.0906H57.5637C58.0996 11.0906 58.5336 10.6771 58.5336 10.1664C58.5336 9.65573 58.0996 9.24219 57.5637 9.24219H52.1098C51.5744 9.24219 51.1399 9.65573 51.1399 10.1664C51.1399 10.6771 51.5744 11.0906 52.1098 11.0906Z" fill="#F80505"/>
<path d="M5.89939 14.7874H11.3532C11.8887 14.7874 12.3232 14.3734 12.3232 13.8632C12.3232 13.3525 11.8887 12.939 11.3532 12.939H5.89939C5.36395 12.939 4.92944 13.3525 4.92944 13.8632C4.92944 14.3734 5.36395 14.7874 5.89939 14.7874Z" fill="#F80505"/>
<path d="M24.3838 51.7561H29.8376C30.373 51.7561 30.8075 51.2047 30.8075 50.5238C30.8075 49.8429 30.373 49.2915 29.8376 49.2915H24.3838C23.8483 49.2915 23.4138 49.8429 23.4138 50.5238C23.4138 51.2047 23.8483 51.7561 24.3838 51.7561Z" fill="#F80505"/>
</svg>
