<svg width="79" height="43" viewBox="0 0 79 43" fill="none" xmlns="http://www.w3.org/2000/svg">
<path d="M49.2915 21.1237C49.2915 19.8562 48.9324 18.6056 48.3479 17.6043L43.4681 9.1543C42.9653 8.28255 41.5316 8.28255 41.0289 9.1543L36.1659 17.5761C35.5139 18.6929 35.2083 19.9153 35.2083 21.1237C35.2083 25.0078 38.3657 28.1667 42.2485 28.1667C46.1326 28.1667 49.2915 25.0078 49.2915 21.1237ZM38.0249 21.1237C38.0249 20.4223 38.1897 19.6801 38.5868 19.0168L42.2485 12.6751C44.4779 16.5227 46.3129 19.6196 45.9158 19.0253C45.9256 19.0422 45.9397 19.0647 45.9538 19.0886C46.2946 19.7125 46.4749 20.4153 46.4749 21.1237C46.4749 23.4531 44.5779 25.3501 42.2485 25.3501C39.9205 25.3501 38.0249 23.4531 38.0249 21.1237Z" fill="#F80505"/>
<path d="M76.4278 14.9931L70.3438 8.04014C69.0059 6.5107 67.0751 5.63472 65.0443 5.63472H59.149V1.40833C59.149 0.629522 58.5195 0 57.7407 0H18.3075C17.5287 0 16.8992 0.629522 16.8992 1.40833V7.04164H9.85755C9.07874 7.04164 8.44922 7.67116 8.44922 8.44996C8.44922 9.22877 9.07874 9.85829 9.85755 9.85829H30.9825C31.7613 9.85829 32.3908 9.22877 32.3908 8.44996C32.3908 7.67116 31.7613 7.04164 30.9825 7.04164H19.7158V2.81665H56.3324V28.1665C56.3324 28.9454 56.9619 29.5749 57.7407 29.5749C58.5195 29.5749 59.149 28.9454 59.149 28.1665V8.45137H65.0443C66.2611 8.45137 67.4215 8.97668 68.2229 9.8935L69.4228 11.2666H63.374C62.5952 11.2666 61.9657 11.8961 61.9657 12.6749V23.9416C61.9657 24.7204 62.5952 25.3499 63.374 25.3499H76.0489V28.1665H74.6406C73.8618 28.1665 73.2323 28.7961 73.2323 29.5749C73.2323 30.3537 73.8618 30.9832 74.6406 30.9832H76.0489V32.3915C76.0489 33.1689 75.418 33.7999 74.6406 33.7999H73.09C72.4352 30.5903 69.5918 28.1665 66.1906 28.1665C62.7895 28.1665 59.9461 30.5903 59.2913 33.7999H36.4735C35.8187 30.5903 32.9752 28.1665 29.5741 28.1665C26.173 28.1665 23.3296 30.5903 22.6747 33.7999H19.7158V30.9832C19.7158 30.2044 19.0863 29.5749 18.3075 29.5749C17.5287 29.5749 16.8992 30.2044 16.8992 30.9832V35.2082C16.8992 35.987 17.5287 36.6165 18.3075 36.6165H22.6747C23.3296 39.8261 26.173 42.2498 29.5741 42.2498C32.9752 42.2498 35.8187 39.8261 36.4735 36.6165H59.2913C59.9461 39.8261 62.7895 42.2498 66.1906 42.2498C69.5918 42.2498 72.4352 39.8261 73.09 36.6165H74.6406C76.97 36.6165 78.8656 34.7209 78.8656 32.3915V21.484C78.8656 19.0955 77.9995 16.7901 76.4278 14.9931ZM29.5741 39.4332C27.2448 39.4332 25.3491 37.5376 25.3491 35.2082C25.3491 32.8788 27.2448 30.9832 29.5741 30.9832C31.9035 30.9832 33.7991 32.8788 33.7991 35.2082C33.7991 37.5376 31.9035 39.4332 29.5741 39.4332ZM66.1906 39.4332C63.8613 39.4332 61.9657 37.5376 61.9657 35.2082C61.9657 32.8788 63.8613 30.9832 66.1906 30.9832C68.52 30.9832 70.4156 32.8788 70.4156 35.2082C70.4156 37.5376 68.52 39.4332 66.1906 39.4332ZM64.7823 22.5332V14.0833H71.8887L74.3068 16.8464C75.4307 18.1308 76.0489 19.7771 76.0489 21.484V22.5332H64.7823Z" fill="#F80505"/>
<path d="M5.63342 18.3084H26.7583C27.5371 18.3084 28.1667 17.6788 28.1667 16.9C28.1667 16.1212 27.5371 15.4917 26.7583 15.4917H19.7167V14.0834C19.7167 13.3046 19.0872 12.675 18.3084 12.675C17.5296 12.675 16.9 13.3046 16.9 14.0834V15.4917H5.63342C4.85462 15.4917 4.2251 16.1212 4.2251 16.9C4.2251 17.6788 4.85462 18.3084 5.63342 18.3084Z" fill="#F80505"/>
<path d="M22.5332 26.7581C23.312 26.7581 23.9416 26.1286 23.9416 25.3498C23.9416 24.571 23.312 23.9415 22.5332 23.9415H19.7166V22.5345C19.7166 21.7557 19.0871 21.1262 18.3083 21.1262C17.5295 21.1262 16.8999 21.7557 16.8999 22.5345V23.9415H1.40833C0.629522 23.9415 0 24.571 0 25.3498C0 26.1286 0.629522 26.7581 1.40833 26.7581H22.5332Z" fill="#F80505"/>
</svg>
