<svg width="64" height="28" viewBox="0 0 64 28" fill="none" xmlns="http://www.w3.org/2000/svg">
<path d="M12.0955 3.50105C12.849 2.55859 13.3603 1.29314 13.2255 0C12.1224 0.0548466 10.7764 0.727696 9.99715 1.6709C9.29744 2.4786 8.67814 3.79704 8.83959 5.03597C10.0778 5.14337 11.3148 4.41707 12.0955 3.50105Z" fill="white"/>
<path d="M13.2117 5.27793C11.4135 5.17082 9.88468 6.29846 9.02597 6.29846C8.16679 6.29846 6.85182 5.3319 5.42958 5.35795C3.57844 5.38514 1.8608 6.43179 0.92143 8.09645C-1.0107 11.4266 0.411541 16.3663 2.29044 19.0786C3.20287 20.4204 4.30251 21.8978 5.75145 21.8447C7.12046 21.791 7.65705 20.9583 9.32114 20.9583C10.984 20.9583 11.4674 21.8447 12.9165 21.8179C14.4194 21.791 15.3589 20.4754 16.2713 19.1323C17.3181 17.6027 17.7466 16.1257 17.7735 16.0446C17.7465 16.0178 14.8756 14.9164 14.849 11.614C14.8219 8.84877 17.103 7.53349 17.2104 7.45192C15.9222 5.54672 13.9095 5.3319 13.2117 5.27793Z" fill="white"/>
<path d="M28.868 1.53516C32.7762 1.53516 35.4977 4.22915 35.4977 8.1514C35.4977 12.0877 32.7202 14.7956 28.77 14.7956H24.4428V21.6771H21.3164V1.53516L28.868 1.53516ZM24.4428 12.1714H28.0301C30.7521 12.1714 32.3013 10.7059 32.3013 8.1654C32.3013 5.62515 30.7521 4.17342 28.0441 4.17342H24.4428V12.1714Z" fill="white"/>
<path d="M36.3147 17.504C36.3147 14.9355 38.2828 13.3583 41.7727 13.1628L45.7924 12.9256V11.7951C45.7924 10.1619 44.6896 9.18482 42.8475 9.18482C41.1023 9.18482 40.0135 10.0222 39.7486 11.3344H36.9011C37.0686 8.68215 39.3296 6.72803 42.9589 6.72803C46.5183 6.72803 48.7933 8.61242 48.7933 11.5576V21.6774H45.9039V19.2626H45.8344C44.9831 20.8958 43.1264 21.9286 41.2003 21.9286C38.3248 21.9286 36.3147 20.142 36.3147 17.504ZM45.7924 16.178V15.0195L42.1771 15.2427C40.3764 15.3684 39.3576 16.164 39.3576 17.4203C39.3576 18.7043 40.4184 19.5418 42.0376 19.5418C44.1452 19.5418 45.7924 18.0901 45.7924 16.178Z" fill="white"/>
<path d="M51.5216 27.0786V24.6358C51.7445 24.6916 52.2469 24.6916 52.4984 24.6916C53.8941 24.6916 54.6479 24.1054 55.1083 22.598C55.1083 22.57 55.3738 21.7047 55.3738 21.6907L50.0698 6.99243H53.3357L57.049 18.9409H57.1045L60.8178 6.99243H64.0002L58.5002 22.4442C57.2445 26.0038 55.7927 27.1484 52.7498 27.1484C52.4984 27.1484 51.7445 27.1204 51.5216 27.0786Z" fill="white"/>
</svg>
