<svg width="16" height="20" viewBox="0 0 16 20" fill="none" xmlns="http://www.w3.org/2000/svg">
<path d="M14.2224 5.33334C13.9867 5.33334 13.7606 5.42699 13.5939 5.59369C13.4272 5.76039 13.3335 5.98648 13.3335 6.22223V16.1698C13.308 16.6193 13.106 17.0405 12.7713 17.3417C12.4367 17.6429 11.9966 17.7996 11.5469 17.7778H4.45354C4.00385 17.7996 3.56375 17.6429 3.2291 17.3417C2.89446 17.0405 2.69238 16.6193 2.66688 16.1698V6.22223C2.66688 5.98648 2.57323 5.76039 2.40653 5.59369C2.23983 5.42699 2.01374 5.33334 1.77799 5.33334C1.54224 5.33334 1.31615 5.42699 1.14945 5.59369C0.98275 5.76039 0.889099 5.98648 0.889099 6.22223V16.1698C0.914472 17.0909 1.30384 17.9644 1.97193 18.599C2.64001 19.2336 3.53236 19.5776 4.45354 19.5556H11.5469C12.4681 19.5776 13.3604 19.2336 14.0285 18.599C14.6966 17.9644 15.0859 17.0909 15.1113 16.1698V6.22223C15.1113 5.98648 15.0177 5.76039 14.851 5.59369C14.6843 5.42699 14.4582 5.33334 14.2224 5.33334Z" fill="#949CBE"/>
<path d="M15.1111 2.66667H11.5556V0.888889C11.5556 0.653141 11.4619 0.427049 11.2952 0.26035C11.1285 0.0936505 10.9024 0 10.6667 0H5.33333C5.09759 0 4.87149 0.0936505 4.70479 0.26035C4.53809 0.427049 4.44444 0.653141 4.44444 0.888889V2.66667H0.888889C0.653141 2.66667 0.427048 2.76032 0.260349 2.92702C0.0936505 3.09372 0 3.31981 0 3.55556C0 3.7913 0.0936505 4.0174 0.260349 4.18409C0.427048 4.35079 0.653141 4.44444 0.888889 4.44444H15.1111C15.3469 4.44444 15.573 4.35079 15.7397 4.18409C15.9064 4.0174 16 3.7913 16 3.55556C16 3.31981 15.9064 3.09372 15.7397 2.92702C15.573 2.76032 15.3469 2.66667 15.1111 2.66667ZM6.22222 2.66667V1.77778H9.77778V2.66667H6.22222Z" fill="#949CBE"/>
<path d="M7.11109 14.2222V7.99994C7.11109 7.76419 7.01744 7.5381 6.85074 7.3714C6.68404 7.2047 6.45795 7.11105 6.2222 7.11105C5.98645 7.11105 5.76036 7.2047 5.59366 7.3714C5.42696 7.5381 5.33331 7.76419 5.33331 7.99994V14.2222C5.33331 14.4579 5.42696 14.684 5.59366 14.8507C5.76036 15.0174 5.98645 15.1111 6.2222 15.1111C6.45795 15.1111 6.68404 15.0174 6.85074 14.8507C7.01744 14.684 7.11109 14.4579 7.11109 14.2222Z" fill="#949CBE"/>
<path d="M10.6669 14.2222V7.99994C10.6669 7.76419 10.5732 7.5381 10.4065 7.3714C10.2398 7.2047 10.0137 7.11105 9.77799 7.11105C9.54224 7.11105 9.31615 7.2047 9.14945 7.3714C8.98275 7.5381 8.8891 7.76419 8.8891 7.99994V14.2222C8.8891 14.4579 8.98275 14.684 9.14945 14.8507C9.31615 15.0174 9.54224 15.1111 9.77799 15.1111C10.0137 15.1111 10.2398 15.0174 10.4065 14.8507C10.5732 14.684 10.6669 14.4579 10.6669 14.2222Z" fill="#949CBE"/>
</svg>
