<svg width="224" height="224" viewBox="0 0 224 224" fill="none" xmlns="http://www.w3.org/2000/svg">
<path d="M130.773 119.461C130.773 129.892 122.319 138.236 111.998 138.236C101.677 138.236 93.2229 129.892 93.2229 119.461C93.2229 109.031 111.998 85.5347 111.998 85.5347C111.998 85.5347 130.773 109.14 130.773 119.461Z" stroke="#3274DE" stroke-width="2.66688" stroke-miterlimit="22.9256"/>
<path d="M129.65 214.666L129.899 216.062L128.504 216.311L128.255 214.915L129.65 214.666ZM118.095 212.563L118.374 223.587L110.972 223.774L110.943 222.593L117.084 222.437L116.995 218.894L113.294 218.988C112.454 219.009 111.738 218.733 111.146 218.16C110.553 217.586 110.245 216.838 110.222 215.914C110.198 214.99 110.468 214.227 111.031 213.624C111.593 213.021 112.294 212.71 113.134 212.688L118.095 212.563V212.563ZM116.865 213.776L113.164 213.87C112.65 213.883 112.237 214.072 111.926 214.437C111.615 214.802 111.467 215.284 111.482 215.882C111.497 216.48 111.669 216.954 111.998 217.303C112.328 217.651 112.75 217.82 113.264 217.807L116.965 217.713L116.865 213.776H116.865ZM107.297 212.623L106.461 223.619L99.3925 223.082L99.4822 221.903L105.294 222.345L105.575 218.654L100.077 218.236L100.166 217.058L105.664 217.476L105.951 213.706L100.139 213.264L100.229 212.086L107.297 212.623H107.297ZM97.5017 214.749L96.2614 214.528C96.3573 213.991 96.2011 213.49 95.7929 213.028C95.3846 212.566 94.7516 212.258 93.8931 212.105C93.0767 211.959 92.3861 212.033 91.8215 212.327C91.2566 212.621 90.9276 213.031 90.8335 213.558C90.739 214.086 90.8777 214.58 91.2484 215.041C91.6198 215.502 92.1416 215.792 92.8132 215.913L93.8987 216.107L93.691 217.269L92.6056 217.076C91.9957 216.967 91.4617 217.058 91.0043 217.35C90.547 217.641 90.2719 218.046 90.1796 218.563C90.0798 219.121 90.222 219.624 90.6065 220.071C90.9904 220.518 91.5599 220.809 92.3145 220.944C93.0591 221.077 93.6928 220.993 94.216 220.692C94.7393 220.391 95.0481 219.976 95.1422 219.449L96.3825 219.671C96.2273 220.539 95.7581 221.212 94.9741 221.691C94.1896 222.17 93.234 222.308 92.1068 222.107C90.9901 221.908 90.1453 221.442 89.5719 220.71C88.9985 219.979 88.7879 219.189 88.9393 218.341C89.0759 217.576 89.4737 216.991 90.1327 216.586C90.4524 216.408 90.7665 216.294 91.0742 216.242L91.0879 216.165C90.7482 215.976 90.4579 215.748 90.2175 215.481C89.6571 214.858 89.4487 214.144 89.5927 213.337C89.7498 212.458 90.2402 211.786 91.0653 211.32C91.8899 210.854 92.9021 210.728 94.1011 210.942C95.3006 211.156 96.2063 211.624 96.8184 212.347C97.4309 213.07 97.6586 213.871 97.5016 214.749L97.5017 214.749ZM87.3552 209.701L84.3433 220.309L83.1313 219.964L84.5509 214.964L78.6605 218.695L77.1452 218.265L83.3274 214.371L79.8543 207.571L81.3695 208.001L84.68 214.509L86.1432 209.357L87.3552 209.701V209.701ZM69.7369 205.147C71.0736 204.534 72.4304 204.499 73.8083 205.042C75.1859 205.585 76.1542 206.537 76.7128 207.897C77.2714 209.258 77.2464 210.71 76.6376 212.254C76.0287 213.797 75.0568 214.876 73.7197 215.489C72.383 216.102 71.0255 216.137 69.6483 215.593C68.2704 215.051 67.3025 214.099 66.7439 212.738C66.185 211.378 66.2099 209.926 66.8187 208.382C67.4271 206.838 68.3999 205.76 69.7369 205.147V205.147ZM75.5682 208.352C75.1517 207.29 74.4205 206.553 73.3749 206.141C72.3297 205.729 71.2925 205.768 70.2632 206.26C69.2339 206.752 68.4766 207.613 67.9914 208.844C67.5058 210.075 67.4715 211.221 67.8887 212.284C68.3051 213.345 69.0364 214.082 70.0816 214.494C71.1273 214.906 72.1644 214.867 73.1937 214.375C74.2227 213.883 74.9803 213.022 75.4655 211.791C75.9508 210.56 75.985 209.414 75.5682 208.352ZM66.3108 201.914L60.8138 211.473L59.7216 210.845L64.6296 202.31L60.8737 200.15L55.9657 208.686L54.8736 208.057L59.7816 199.522L56.026 197.363L51.1181 205.898L50.0251 205.27L55.5222 195.71L66.3108 201.914V201.914ZM50.7272 191.945L44.6441 199.687L47.4931 201.925L46.763 202.855L40.0744 197.598L40.8041 196.67L43.6531 198.908L49.7363 191.166L50.7272 191.945V191.945ZM38.0831 182.671C39.5523 182.606 40.8227 183.084 41.8944 184.106C42.9661 185.128 43.505 186.374 43.5102 187.845C43.5154 189.316 42.9457 190.651 41.8002 191.852C40.6552 193.053 39.3486 193.686 37.8791 193.751C36.41 193.816 35.1395 193.337 34.0678 192.315C32.9958 191.293 32.4573 190.047 32.4521 188.577C32.4469 187.106 33.0162 185.77 34.1612 184.569C35.3066 183.368 36.6136 182.735 38.0831 182.671V182.671ZM42.2789 187.835C42.2926 186.695 41.8926 185.737 41.0791 184.961C40.266 184.186 39.2902 183.832 38.1516 183.9C37.0126 183.968 35.9869 184.481 35.0737 185.439C34.1604 186.396 33.6972 187.445 33.6834 188.586C33.6696 189.727 34.0697 190.685 34.8831 191.46C35.6963 192.235 36.6723 192.589 37.8107 192.521C38.9493 192.453 39.9753 191.94 40.8886 190.983C41.8013 190.025 42.2647 188.976 42.2789 187.835ZM36.0804 178.428L27.4098 185.241L24.4898 181.525C23.9774 180.873 23.7741 180.134 23.8809 179.309C23.9869 178.484 24.3788 177.806 25.0561 177.273C25.6008 176.845 26.1948 176.632 26.8383 176.635C27.0921 176.635 27.3607 176.671 27.6439 176.742L27.7057 176.694C27.6595 176.397 27.6633 176.113 27.7184 175.843C27.8441 175.17 28.204 174.6 28.7986 174.132C29.4759 173.6 30.2276 173.38 31.054 173.472C31.8812 173.564 32.5507 173.936 33.0631 174.588L36.0802 178.428L36.0804 178.428ZM30.5331 181.184L28.3919 178.459C28.0997 178.087 27.706 177.88 27.21 177.835C26.7143 177.79 26.2559 177.934 25.8346 178.265C25.4138 178.595 25.1659 179.007 25.0918 179.5C25.0181 179.992 25.1268 180.423 25.4188 180.795L27.5604 183.52L30.5329 181.184H30.5331ZM34.373 178.167L32.1344 175.318C31.8422 174.946 31.4485 174.739 30.9529 174.694C30.4568 174.649 29.9984 174.793 29.5771 175.123C29.1563 175.454 28.9084 175.866 28.8346 176.358C28.7606 176.851 28.8693 177.283 29.1613 177.654L31.4 180.503L34.3729 178.167L34.373 178.167ZM29.3984 169.838L20.115 175.789L19.4351 174.729L23.5464 172.093L20.2304 166.921L16.1191 169.557L15.4389 168.495L24.7224 162.544L25.4026 163.605L21.225 166.283L24.5407 171.456L28.7186 168.777L29.3984 169.838ZM23.7388 160.734L12.0209 162.044L11.1594 160.362L19.0716 151.62L19.6819 152.811L17.6244 155.015L20.1377 159.923L23.1285 159.542L23.7389 160.734L23.7388 160.734ZM18.8706 160.041L16.7882 155.975L12.7101 160.452L12.8538 160.733L18.8708 160.041L18.8706 160.041ZM17.4803 140.877L14.1799 141.639L14.127 141.409C13.9565 140.672 13.4527 140.357 12.6154 140.464L4.09036 141.705L2.54934 135.028L12.1427 132.813L11.8767 131.662L15.1771 130.9L15.4606 132.128L13.3116 132.624L15.0475 140.145L17.1966 139.649L17.4801 140.877L17.4803 140.877ZM13.6664 139.413L12.4261 134.041L3.98412 135.99L4.97624 140.287L12.332 139.236C12.7611 139.181 13.1087 139.191 13.3747 139.27C13.5139 139.314 13.611 139.361 13.6664 139.413V139.413ZM10.0408 120.605C11.2212 121.482 11.9048 122.655 12.0912 124.124C12.2781 125.593 11.9097 126.9 10.9857 128.044C10.0617 129.189 8.77718 129.865 7.13049 130.074C5.48461 130.283 4.07165 129.95 2.89048 129.072C1.71011 128.196 1.02644 127.023 0.839706 125.554C0.653314 124.084 1.02171 122.778 1.94524 121.634C2.86958 120.489 4.15422 119.813 5.80011 119.604C7.4468 119.395 8.85975 119.728 10.0408 120.605ZM10.0363 127.259C10.7667 126.383 11.0608 125.388 10.9194 124.273C10.7776 123.158 10.2441 122.268 9.31777 121.602C8.39112 120.936 7.27184 120.687 5.9589 120.854C4.64642 121.021 3.62496 121.542 2.89475 122.418C2.16431 123.294 1.86994 124.29 2.01164 125.405C2.15346 126.52 2.687 127.41 3.6133 128.075C4.53948 128.741 5.65887 128.991 6.9717 128.824C8.28418 128.657 9.30564 128.135 10.0362 127.259H10.0363ZM7.65063 107.614L7.68447 106.275C8.84174 106.62 9.74829 107.239 10.4032 108.133C11.0578 109.027 11.3704 110.067 11.3402 111.253C11.3031 112.733 10.7411 113.97 9.65521 114.961C8.56862 115.952 7.19655 116.427 5.53727 116.385C3.87868 116.343 2.53236 115.8 1.49751 114.754C0.462996 113.709 -0.0356658 112.446 0.00198213 110.966C0.0317771 109.79 0.39128 108.77 1.08003 107.905C1.76924 107.04 2.68469 106.464 3.82636 106.178L3.79253 107.516C2.99799 107.769 2.36987 108.205 1.90771 108.824C1.44554 109.442 1.20441 110.166 1.18316 110.996C1.15486 112.119 1.54786 113.08 2.36283 113.878C3.17815 114.676 4.2465 115.092 5.56949 115.125C6.89236 115.159 7.98092 114.798 8.83562 114.042C9.68997 113.286 10.131 112.347 10.1593 111.223C10.1805 110.393 9.97106 109.658 9.53003 109.017C9.08911 108.375 8.46272 107.908 7.65075 107.614H7.65063ZM11.7183 101.334L1.95113 100.093L1.49416 103.687L0.322336 103.538L1.39438 95.0996L2.56655 95.2484L2.10992 98.8424L11.8771 100.083L11.7182 101.334L11.7183 101.334ZM12.1455 96.1995L2.33962 89.6515L2.76495 87.8099L14.4486 86.2224L14.1476 87.527L11.1542 87.8865L9.9139 93.2593L12.4466 94.8948L12.1455 96.1995ZM8.86899 92.533L9.8968 88.0816L3.89254 88.8783L3.82151 89.1853L8.86899 92.533ZM14.9175 84.2133L4.47192 80.6788L5.9865 76.2022C6.25258 75.4166 6.75978 74.8425 7.50882 74.4808C8.2575 74.1183 9.04014 74.0755 9.85581 74.3517C10.5122 74.5738 11.0154 74.9545 11.3647 75.4945C11.5035 75.7073 11.6204 75.9522 11.7152 76.2283L11.7896 76.2532C12.0133 76.0523 12.2529 75.9001 12.5093 75.7984C13.1416 75.5357 13.8154 75.5253 14.5318 75.7676C15.3474 76.0437 15.9432 76.5528 16.3183 77.2952C16.6934 78.0377 16.7481 78.802 16.4824 79.5875L14.9173 84.2134L14.9175 84.2133ZM9.57633 81.076L10.6872 77.7927C10.8386 77.3451 10.7974 76.9019 10.5633 76.4624C10.33 76.0225 9.95893 75.7174 9.45173 75.5454C8.94452 75.3739 8.46445 75.3914 8.01164 75.599C7.55951 75.8059 7.25729 76.1333 7.10589 76.5811L5.99505 79.864L9.57645 81.076H9.57633ZM14.2018 82.6411L15.3633 79.2086C15.5147 78.761 15.4734 78.3177 15.24 77.8782C15.006 77.4387 14.6354 77.1329 14.1282 76.9613C13.6209 76.7898 13.1405 76.8075 12.6884 77.0145C12.2355 77.2221 11.9334 77.5492 11.7819 77.9969L10.6204 81.429L14.2018 82.641V82.6411ZM18.5014 73.9401L8.4536 69.3968L8.9727 68.2488L13.7095 70.3908L10.8873 64.0139L11.5363 62.5787L14.4769 69.2677L21.7141 66.8351L21.0651 68.2704L14.1405 70.5854L19.0205 72.792L18.5014 73.9401ZM22.0299 66.096L14.5516 56.98L15.4939 55.3412L27.1344 57.2197L26.4667 58.3803L23.4983 57.8541L20.7498 62.6341L22.6976 64.9354L22.0299 66.096ZM19.9609 61.6353L22.2387 57.6748L16.262 56.6912L16.1049 56.9647L19.9609 61.6352V61.6353ZM32.0304 50.242L23.6959 43.0216L26.7906 39.4496C27.3335 38.8225 28.0201 38.4832 28.8502 38.4311C29.6804 38.3791 30.4209 38.6351 31.0718 39.1989C31.5958 39.6525 31.9176 40.1954 32.0371 40.8273C32.0847 41.077 32.1008 41.3476 32.0844 41.6393L32.1435 41.6907C32.4267 41.5887 32.7061 41.5388 32.9819 41.5415C33.6663 41.5374 34.2944 41.7826 34.866 42.2776C35.5169 42.8414 35.876 43.538 35.9426 44.367C36.0096 45.1961 35.7711 45.9244 35.2281 46.5514L32.0304 50.2422V50.242ZM28.2715 45.3184L30.5408 42.699C30.8504 42.3418 30.9799 41.9157 30.9293 41.4203C30.8794 40.925 30.6513 40.5019 30.2468 40.1514C29.8419 39.8009 29.3909 39.6356 28.8933 39.6564C28.3961 39.6772 27.9928 39.8659 27.6831 40.2232L25.4139 42.8426L28.2714 45.3184H28.2715ZM31.9623 48.5161L34.3349 45.7776C34.6442 45.4204 34.7737 44.9942 34.7238 44.4989C34.6732 44.0036 34.4454 43.5805 34.0409 43.2296C33.636 42.8791 33.1846 42.7142 32.6874 42.7351C32.1899 42.7559 31.7865 42.9446 31.4773 43.3019L29.1046 46.0404L31.9622 48.5162L31.9623 48.5161ZM49.3585 30.8843C49.283 32.3527 48.6857 33.5719 47.5663 34.5416C46.4474 35.511 45.1554 35.9289 43.691 35.7942C42.2263 35.6595 40.951 34.9651 39.8644 33.7106C38.7778 32.4566 38.2725 31.0953 38.3477 29.6265C38.4232 28.1578 39.0205 26.9386 40.1399 25.9692C41.2593 24.9995 42.5508 24.5819 44.0152 24.7167C45.4799 24.8513 46.7552 25.5454 47.8418 26.7994C48.9283 28.0538 49.4337 29.4152 49.3585 30.8842V30.8843ZM43.8179 34.5691C44.9518 34.6915 45.9435 34.3846 46.7927 33.6485C47.6423 32.9127 48.0873 31.975 48.1279 30.8352C48.1685 29.695 47.7558 28.6251 46.8891 27.6248C46.0228 26.6245 45.0225 26.0637 43.8883 25.9416C42.7544 25.8192 41.7627 26.1262 40.9135 26.8619C40.0639 27.598 39.6189 28.5354 39.5783 29.6756C39.5377 30.8154 39.9504 31.8853 40.8167 32.8856C41.6834 33.8859 42.6836 34.4467 43.8179 34.5691ZM53.9859 31.9441L52.1576 29.0925L52.3567 28.9649C52.9934 28.557 53.1203 27.9766 52.7374 27.2237L48.701 19.6134L54.4696 15.9153L59.7832 24.204L60.7779 23.5666L62.6057 26.4178L61.5451 27.098L60.3547 25.2411L53.8563 29.4071L55.0467 31.2639L53.9858 31.9441H53.9859ZM54.0808 27.8597L58.7227 24.8841L54.0465 17.59L50.3331 19.9705L53.7983 26.5438C53.9952 26.9289 54.1019 27.2601 54.1173 27.5369C54.1233 27.6828 54.1113 27.7903 54.0808 27.8596V27.8597ZM63.6523 23.3692L58.6256 13.5544L64.935 10.3233L65.4738 11.3749L60.2857 14.0315L61.9732 17.3267L66.8809 14.8134L67.4194 15.865L62.5117 18.3783L64.2351 21.7434L69.4229 19.0865L69.9618 20.1381L63.6524 23.3692H63.6523ZM79.1022 12.5787L80.3477 12.0875C80.4824 13.2876 80.2659 14.3638 79.6987 15.3158C79.1312 16.2673 78.2955 16.961 77.1913 17.3963C75.8141 17.9392 74.4565 17.9042 73.1199 17.2914C71.7832 16.6781 70.8109 15.5996 70.2021 14.0557C69.5933 12.5122 69.5683 11.0605 70.1269 9.69965C70.6855 8.33948 71.6537 7.38765 73.0313 6.84465C74.1258 6.41297 75.2057 6.34564 76.2707 6.64255C77.336 6.93946 78.2232 7.55765 78.9321 8.49723L77.6866 8.98838C77.1437 8.35576 76.4973 7.94718 75.7471 7.76333C74.9972 7.57913 74.2366 7.63941 73.4649 7.94383C72.4192 8.35576 71.6879 9.09255 71.2716 10.1543C70.8548 11.2163 70.889 12.3625 71.3743 13.5936C71.8595 14.8245 72.6172 15.686 73.6464 16.178C74.6754 16.6699 75.7124 16.7093 76.7581 16.297C77.5299 15.9926 78.1254 15.5126 78.5436 14.8565C78.9626 14.2001 79.1487 13.4413 79.1022 12.5787ZM84.2617 14.9495L81.2501 4.34164L82.4621 3.99738L85.4737 14.6052L84.2617 14.9495ZM94.2433 9.12419L93.9943 7.72833L95.3898 7.47935L95.6391 8.87486L94.2433 9.12419ZM105.798 11.2111L105.518 0.187547L112.92 0L112.95 1.18117L106.808 1.33673L106.898 4.88014L110.599 4.78637C111.438 4.76512 112.155 5.04124 112.747 5.61439C113.339 6.18789 113.647 6.93657 113.671 7.86022C113.694 8.78421 113.424 9.54744 112.862 10.1499C112.299 10.7528 111.598 11.0646 110.758 11.0858L105.798 11.2112V11.2111ZM107.027 9.9983L110.728 9.90452C111.242 9.89147 111.655 9.70243 111.967 9.33738C112.278 8.97233 112.426 8.49042 112.411 7.89209C112.395 7.29377 112.223 6.82005 111.894 6.47129C111.565 6.12264 111.143 5.95438 110.628 5.96743L106.928 6.0612L107.027 9.9983H107.027ZM116.596 11.14L117.432 0.144356L124.5 0.681705L124.411 1.85988L118.599 1.41815L118.318 5.10926L123.816 5.5272L123.727 6.70537L118.228 6.28743L117.942 10.0574L123.754 10.4992L123.664 11.6773L116.596 11.14H116.596ZM126.393 9.00363L127.633 9.22501C127.537 9.76236 127.693 10.2625 128.101 10.7247C128.51 11.1869 129.143 11.4946 130.001 11.648C130.818 11.7938 131.508 11.7198 132.073 11.4263C132.638 11.1322 132.967 10.7218 133.061 10.1945C133.155 9.6672 133.017 9.17304 132.646 8.71191C132.275 8.2509 131.753 7.96057 131.081 7.84035L129.996 7.64646L130.203 6.48353L131.289 6.67743C131.899 6.7861 132.433 6.69486 132.89 6.40315C133.347 6.11178 133.622 5.70724 133.715 5.19033C133.814 4.63173 133.672 4.12903 133.288 3.68176C132.904 3.23449 132.334 2.94347 131.58 2.8087C130.835 2.67589 130.202 2.75996 129.678 3.06103C129.155 3.36244 128.846 3.77669 128.752 4.30399L127.512 4.08226C127.667 3.21405 128.136 2.54054 128.92 2.06163C129.705 1.58306 130.66 1.44459 131.788 1.646C132.904 1.84544 133.749 2.31061 134.322 3.04255C134.896 3.77415 135.106 4.56418 134.955 5.41183C134.818 6.17692 134.421 6.76196 133.762 7.16673C133.442 7.34458 133.128 7.45925 132.82 7.51099L132.806 7.58837C133.146 7.77707 133.436 8.00515 133.677 8.27192C134.237 8.8945 134.446 9.60934 134.302 10.4158C134.145 11.2947 133.654 11.9672 132.829 12.4331C132.004 12.8994 130.992 13.0251 129.793 12.8112C128.594 12.5968 127.688 12.1286 127.076 11.4056C126.463 10.6825 126.236 9.88212 126.393 9.00351L126.393 9.00363ZM136.541 14.0422L139.553 3.43439L140.765 3.77865L139.345 8.77924L145.236 5.04794L146.751 5.47812L140.569 9.37237L144.042 16.1719L142.527 15.7417L139.216 9.2339L137.753 14.3864L136.541 14.0421V14.0422ZM154.163 18.5863C152.826 19.1992 151.469 19.2342 150.091 18.6908C148.714 18.1479 147.745 17.196 147.187 15.8358C146.628 14.4749 146.653 13.0233 147.262 11.4793C147.871 9.9357 148.843 8.85731 150.18 8.24397C151.517 7.6311 152.874 7.5961 154.251 8.13946C155.629 8.68235 156.597 9.63429 157.156 10.9945C157.715 12.3553 157.69 13.807 157.081 15.3505C156.472 16.8944 155.5 17.973 154.163 18.5862V18.5863ZM148.331 15.3811C148.748 16.4428 149.479 17.1796 150.525 17.592C151.57 18.0039 152.607 17.9645 153.636 17.4726C154.666 16.9809 155.423 16.1195 155.908 14.8885C156.394 13.6575 156.428 12.5114 156.011 11.4492C155.594 10.3876 154.863 9.6508 153.818 9.23841C152.772 8.82648 151.735 8.86586 150.706 9.35747C149.677 9.84944 148.919 10.7105 148.434 11.9416C147.949 13.1725 147.915 14.319 148.331 15.3811ZM157.595 21.8055L163.092 12.2463L164.185 12.8744L159.277 21.4095L163.033 23.569L167.94 15.0339L169.033 15.662L164.125 24.1971L167.88 26.3569L172.788 17.8218L173.881 18.4499L168.384 28.0095L157.595 21.8054V21.8055ZM173.188 31.7615L179.271 24.0197L176.422 21.7811L177.152 20.8519L183.84 26.1081L183.111 27.037L180.262 24.7987L174.178 32.5401L173.188 31.7616V31.7615ZM185.838 41.0285C184.37 41.0933 183.099 40.6151 182.027 39.5933C180.955 38.5715 180.417 37.3251 180.411 35.8549C180.405 34.3839 180.975 33.0483 182.12 31.8471C183.265 30.6459 184.572 30.0129 186.042 29.9482C187.51 29.8831 188.781 30.362 189.853 31.3835C190.925 32.4053 191.463 33.6516 191.469 35.1218C191.474 36.5929 190.905 37.9284 189.76 39.1296C188.615 40.3309 187.308 40.9635 185.838 41.0285H185.838ZM181.643 35.8642C181.629 37.0047 182.029 37.9626 182.842 38.7378C183.656 39.5132 184.632 39.8672 185.77 39.7987C186.909 39.7306 187.935 39.2178 188.848 38.26C189.761 37.3022 190.224 36.2531 190.238 35.1126C190.251 33.9721 189.851 33.0141 189.038 32.2386C188.224 31.4632 187.248 31.1097 186.11 31.1777C184.971 31.2462 183.945 31.7586 183.032 32.7164C182.119 33.6742 181.656 34.7236 181.643 35.8643V35.8642ZM187.852 45.2611L196.523 38.4479L199.443 42.1639C199.955 42.8163 200.159 43.555 200.052 44.38C199.946 45.205 199.554 45.8834 198.877 46.4155C198.332 46.8435 197.738 47.0567 197.094 47.054C196.841 47.0537 196.572 47.0175 196.289 46.9465L196.227 46.9949C196.273 47.2923 196.269 47.5758 196.214 47.8464C196.089 48.5192 195.729 49.0893 195.134 49.5567C194.457 50.0885 193.705 50.3087 192.879 50.2173C192.051 50.1253 191.382 49.7532 190.87 49.1012L187.852 45.2612L187.852 45.2611ZM193.4 42.5047L195.541 45.2298C195.833 45.6016 196.227 45.8092 196.723 45.8539C197.218 45.8986 197.677 45.7553 198.098 45.4244C198.519 45.0936 198.767 44.682 198.841 44.1893C198.915 43.6973 198.806 43.2657 198.514 42.8939L196.372 40.1685L193.4 42.5047H193.4ZM189.56 45.5219L191.798 48.3709C192.09 48.7426 192.484 48.9503 192.98 48.9953C193.476 49.0395 193.934 48.8963 194.356 48.5655C194.776 48.2346 195.024 47.8227 195.098 47.3307C195.172 46.8384 195.063 46.4064 194.771 46.035L192.533 43.186L189.56 45.5218L189.56 45.5219ZM194.542 53.8445L203.826 47.8935L204.506 48.9541L200.394 51.5899L203.711 56.7621L207.822 54.1263L208.502 55.1876L199.219 61.1386L198.538 60.0777L202.716 57.3995L199.4 52.2273L195.222 54.9055L194.542 53.8445ZM200.211 62.9444L211.929 61.6338L212.79 63.3162L204.878 72.0583L204.268 70.8667L206.325 68.6629L203.812 63.7553L200.821 64.1359L200.211 62.9443L200.211 62.9444ZM205.079 63.6374L207.162 67.7036L211.24 63.2258L211.096 62.9451L205.079 63.6372L205.079 63.6374ZM206.493 82.7918L209.794 82.0301L209.847 82.2605C210.017 82.9973 210.521 83.3121 211.358 83.2049L219.883 81.9646L221.424 88.6414L211.831 90.8559L212.097 92.0073L208.796 92.769L208.513 91.5414L210.662 91.0454L208.926 83.524L206.777 84.02L206.493 82.7919L206.493 82.7918ZM210.307 84.2558L211.547 89.6283L219.989 87.6795L218.997 83.3818L211.642 84.4328C211.212 84.4885 210.865 84.4778 210.599 84.3989C210.46 84.3554 210.363 84.3081 210.307 84.2561V84.2558ZM213.943 103.062C212.763 102.186 212.079 101.013 211.893 99.5435C211.706 98.0748 212.075 96.7679 212.999 95.6239C213.923 94.4792 215.207 93.803 216.854 93.5939C218.5 93.3848 219.913 93.7182 221.094 94.5953C222.274 95.472 222.958 96.6449 223.145 98.1141C223.331 99.5833 222.963 100.89 222.039 102.034C221.115 103.178 219.83 103.855 218.184 104.064C216.537 104.273 215.125 103.939 213.943 103.062ZM213.948 96.4084C213.218 97.2843 212.924 98.2798 213.065 99.3947C213.207 100.51 213.74 101.4 214.667 102.065C215.593 102.731 216.712 102.981 218.025 102.814C219.338 102.647 220.359 102.126 221.09 101.249C221.82 100.373 222.114 99.3779 221.973 98.263C221.831 97.1482 221.297 96.258 220.371 95.5922C219.445 94.9269 218.325 94.6768 217.013 94.8439C215.7 95.0107 214.679 95.5323 213.948 96.4084H213.948ZM216.349 116.053L216.316 117.391C215.158 117.047 214.252 116.428 213.597 115.534C212.942 114.64 212.63 113.6 212.66 112.414C212.697 110.933 213.259 109.697 214.345 108.706C215.431 107.714 216.803 107.24 218.463 107.282C220.121 107.324 221.468 107.867 222.502 108.912C223.537 109.957 224.036 111.221 223.998 112.7C223.968 113.876 223.609 114.897 222.92 115.762C222.231 116.627 221.315 117.203 220.174 117.489L220.207 116.151C221.002 115.897 221.63 115.462 222.092 114.843C222.554 114.225 222.796 113.5 222.817 112.671C222.845 111.547 222.452 110.587 221.637 109.789C220.822 108.991 219.753 108.575 218.431 108.541C217.108 108.508 216.019 108.869 215.164 109.625C214.31 110.381 213.869 111.32 213.841 112.443C213.819 113.273 214.029 114.009 214.47 114.65C214.911 115.292 215.537 115.759 216.349 116.053H216.349ZM212.292 122.334L222.06 123.575L222.517 119.98L223.688 120.129L222.616 128.568L221.444 128.419L221.901 124.825L212.134 123.584L212.293 122.334L212.292 122.334ZM211.876 127.47L221.682 134.018L221.256 135.859L209.572 137.447L209.874 136.142L212.867 135.783L214.107 130.41L211.575 128.774L211.876 127.47ZM215.152 131.136L214.124 135.588L220.129 134.791L220.2 134.484L215.152 131.136ZM209.113 139.459L219.559 142.993L218.044 147.47C217.778 148.256 217.271 148.83 216.522 149.191C215.773 149.554 214.991 149.597 214.175 149.321C213.518 149.098 213.015 148.718 212.666 148.178C212.527 147.965 212.41 147.72 212.316 147.444L212.241 147.419C212.017 147.62 211.778 147.772 211.521 147.874C210.889 148.137 210.215 148.147 209.499 147.905C208.683 147.628 208.087 147.119 207.712 146.377C207.337 145.635 207.283 144.87 207.548 144.085L209.113 139.459L209.113 139.459ZM214.454 142.596L213.344 145.879C213.192 146.327 213.233 146.77 213.467 147.21C213.701 147.65 214.072 147.955 214.579 148.127C215.086 148.298 215.566 148.281 216.019 148.073C216.471 147.866 216.773 147.539 216.925 147.091L218.036 143.808L214.454 142.596H214.454ZM209.829 141.031L208.667 144.464C208.516 144.911 208.557 145.354 208.791 145.794C209.025 146.234 209.395 146.539 209.903 146.711C210.41 146.882 210.89 146.865 211.342 146.658C211.795 146.45 212.097 146.123 212.249 145.675L213.41 142.243L209.829 141.031V141.031ZM205.539 149.736L215.587 154.279L215.068 155.427L210.331 153.285L213.153 159.662L212.504 161.097L209.564 154.408L202.327 156.841L202.976 155.406L209.9 153.091L205.02 150.884L205.539 149.736ZM202.02 157.585L209.498 166.701L208.556 168.34L196.915 166.461L197.583 165.3L200.551 165.827L203.3 161.047L201.352 158.745L202.02 157.585ZM204.089 162.045L201.811 166.006L207.788 166.99L207.945 166.716L204.089 162.046V162.045ZM192.036 173.45L200.37 180.671L197.275 184.243C196.732 184.87 196.046 185.209 195.216 185.261C194.385 185.313 193.645 185.057 192.994 184.493C192.47 184.04 192.148 183.497 192.029 182.865C191.981 182.615 191.965 182.345 191.982 182.053L191.922 182.002C191.639 182.104 191.36 182.153 191.084 182.151C190.4 182.155 189.772 181.91 189.2 181.415C188.549 180.851 188.19 180.154 188.123 179.325C188.056 178.496 188.295 177.768 188.838 177.141L192.036 173.45V173.45ZM195.794 178.374L193.525 180.993C193.216 181.351 193.086 181.777 193.137 182.272C193.187 182.767 193.415 183.19 193.819 183.541C194.224 183.891 194.675 184.057 195.173 184.036C195.67 184.015 196.073 183.826 196.383 183.469L198.652 180.85L195.795 178.374H195.794ZM192.104 175.176L189.731 177.915C189.422 178.272 189.292 178.698 189.342 179.193C189.393 179.689 189.62 180.112 190.025 180.463C190.43 180.813 190.881 180.978 191.379 180.957C191.876 180.936 192.279 180.748 192.589 180.39L194.961 177.652L192.104 175.176L192.104 175.176ZM174.718 192.818C174.793 191.35 175.391 190.131 176.51 189.161C177.629 188.192 178.921 187.774 180.385 187.909C181.85 188.043 183.125 188.738 184.212 189.992C185.299 191.246 185.804 192.607 185.729 194.076C185.653 195.545 185.056 196.764 183.937 197.734C182.817 198.703 181.526 199.121 180.061 198.986C178.597 198.852 177.321 198.157 176.235 196.903C175.148 195.649 174.643 194.288 174.718 192.819V192.818ZM180.259 189.134C179.125 189.011 178.133 189.318 177.284 190.054C176.434 190.79 175.989 191.728 175.949 192.868C175.908 194.008 176.321 195.078 177.187 196.078C178.054 197.078 179.054 197.639 180.188 197.761C181.322 197.884 182.314 197.577 183.163 196.841C184.013 196.105 184.458 195.167 184.498 194.027C184.539 192.887 184.126 191.818 183.26 190.817C182.393 189.817 181.393 189.256 180.259 189.134ZM170.1 191.771L171.928 194.623L171.729 194.75C171.092 195.158 170.965 195.739 171.348 196.491L175.385 204.102L169.616 207.8L164.302 199.511L163.308 200.149L161.48 197.297L162.541 196.617L163.731 198.474L170.229 194.308L169.039 192.451L170.1 191.771H170.1ZM170.005 195.855L165.363 198.831L170.039 206.125L173.753 203.745L170.287 197.171C170.09 196.786 169.984 196.455 169.968 196.178C169.962 196.032 169.974 195.925 170.005 195.856V195.855ZM160.438 200.355L165.465 210.169L159.156 213.4L158.617 212.349L163.805 209.692L162.117 206.397L157.21 208.91L156.671 207.859L161.579 205.345L159.855 201.98L154.668 204.637L154.129 203.586L160.438 200.355H160.438ZM144.992 211.155L143.747 211.646C143.612 210.446 143.829 209.37 144.396 208.418C144.963 207.466 145.799 206.772 146.903 206.337C148.281 205.794 149.638 205.829 150.975 206.442C152.312 207.055 153.284 208.134 153.893 209.678C154.501 211.221 154.526 212.673 153.968 214.034C153.409 215.394 152.441 216.346 151.063 216.889C149.969 217.32 148.889 217.388 147.824 217.091C146.759 216.794 145.872 216.176 145.163 215.236L146.408 214.745C146.951 215.378 147.597 215.786 148.348 215.97C149.097 216.154 149.858 216.094 150.63 215.79C151.676 215.378 152.407 214.641 152.823 213.579C153.24 212.517 153.206 211.371 152.72 210.14C152.235 208.909 151.477 208.047 150.448 207.555C149.419 207.063 148.382 207.024 147.337 207.436C146.565 207.741 145.969 208.221 145.551 208.877C145.132 209.533 144.946 210.292 144.992 211.155ZM139.837 208.794L142.848 219.401L141.636 219.746L138.625 209.138L139.837 208.794Z" fill="#3274DE"/>
</svg>
