<svg width="145" height="145" viewBox="0 0 145 145" fill="none" xmlns="http://www.w3.org/2000/svg">
<path d="M83.8794 138.881L84.0404 139.784L83.1376 139.946L82.9763 139.043L83.8794 138.881ZM76.4033 137.521L76.5839 144.653L71.7953 144.774L71.776 144.01L75.7496 143.909L75.6916 141.617L73.297 141.677C72.7539 141.691 72.2905 141.513 71.9074 141.142C71.5239 140.771 71.3248 140.286 71.3096 139.689C71.2945 139.091 71.469 138.597 71.833 138.207C72.197 137.817 72.6506 137.616 73.1938 137.602L76.4033 137.521V137.521ZM75.6078 138.306L73.2133 138.366C72.8806 138.375 72.6135 138.497 72.412 138.733C72.2108 138.969 72.115 139.281 72.1248 139.668C72.1347 140.055 72.246 140.362 72.459 140.587C72.6721 140.813 72.9451 140.922 73.2778 140.913L75.6721 140.853L75.6079 138.306H75.6078ZM69.4173 137.56L68.8766 144.674L64.3035 144.326L64.3616 143.564L68.1216 143.85L68.3032 141.462L64.7463 141.191L64.8041 140.429L68.3613 140.699L68.5466 138.26L64.7865 137.975L64.8446 137.212L69.4175 137.56H69.4173ZM63.0802 138.935L62.2778 138.792C62.3399 138.445 62.2388 138.121 61.9747 137.822C61.7105 137.523 61.301 137.324 60.7456 137.225C60.2174 137.13 59.7706 137.178 59.4053 137.368C59.0399 137.558 58.827 137.824 58.7661 138.165C58.705 138.506 58.7947 138.826 59.0346 139.124C59.2749 139.422 59.6124 139.61 60.047 139.688L60.7492 139.813L60.6149 140.566L59.9126 140.44C59.5181 140.37 59.1726 140.429 58.8766 140.618C58.5808 140.806 58.4028 141.068 58.3431 141.402C58.2785 141.764 58.3705 142.089 58.6192 142.378C58.8677 142.668 59.2361 142.856 59.7243 142.943C60.206 143.029 60.616 142.975 60.9545 142.78C61.293 142.585 61.4928 142.317 61.5537 141.976L62.3562 142.119C62.2557 142.681 61.9522 143.117 61.4449 143.427C60.9374 143.736 60.3191 143.826 59.5899 143.696C58.8674 143.566 58.3209 143.266 57.9499 142.792C57.5789 142.319 57.4427 141.808 57.5407 141.259C57.629 140.764 57.8864 140.386 58.3128 140.124C58.5196 140.009 58.7228 139.935 58.9218 139.901L58.9307 139.851C58.7109 139.729 58.5232 139.581 58.3676 139.409C58.005 139.006 57.8702 138.543 57.9634 138.022C58.065 137.453 58.3823 137.018 58.9161 136.717C59.4496 136.415 60.1044 136.334 60.8802 136.472C61.6562 136.611 62.2421 136.914 62.6381 137.381C63.0344 137.849 63.1818 138.367 63.0801 138.935L63.0802 138.935ZM56.5158 135.669L54.5672 142.532L53.783 142.309L54.7015 139.074L50.8906 141.488L49.9103 141.21L53.9099 138.69L51.6629 134.291L52.6433 134.57L54.785 138.78L55.7317 135.446L56.5158 135.669V135.669ZM45.1174 132.723C45.9822 132.326 46.8599 132.304 47.7514 132.655C48.6427 133.006 49.2691 133.622 49.6305 134.502C49.9919 135.383 49.9757 136.322 49.5819 137.321C49.188 138.319 48.5592 139.017 47.6941 139.414C46.8293 139.81 45.951 139.833 45.0601 139.481C44.1686 139.13 43.5424 138.514 43.181 137.634C42.8194 136.754 42.8355 135.815 43.2294 134.816C43.623 133.817 44.2524 133.12 45.1174 132.723V132.723ZM48.89 134.796C48.6206 134.109 48.1475 133.633 47.471 133.366C46.7948 133.1 46.1238 133.125 45.4578 133.443C44.7919 133.761 44.302 134.319 43.9881 135.115C43.6739 135.911 43.6517 136.653 43.9216 137.34C44.1911 138.027 44.6642 138.504 45.3404 138.77C46.0169 139.037 46.6879 139.012 47.3538 138.693C48.0195 138.375 48.5096 137.818 48.8236 137.022C49.1375 136.225 49.1596 135.483 48.89 134.796ZM42.9008 130.631L39.3444 136.816L38.6378 136.409L41.8131 130.888L39.3832 129.49L36.2079 135.012L35.5013 134.606L38.6766 129.084L36.2469 127.687L33.0716 133.209L32.3645 132.802L35.9209 126.618L42.9008 130.631V130.631ZM32.8188 124.182L28.8832 129.19L30.7264 130.639L30.2541 131.24L25.9267 127.839L26.3989 127.238L28.2421 128.687L32.1776 123.678L32.8188 124.182V124.182ZM24.6384 118.181C25.589 118.14 26.4109 118.449 27.1042 119.11C27.7976 119.771 28.1462 120.578 28.1496 121.529C28.1529 122.481 27.7844 123.345 27.0433 124.122C26.3025 124.899 25.4572 125.308 24.5065 125.35C23.556 125.392 22.734 125.082 22.0407 124.421C21.3471 123.76 20.9987 122.954 20.9954 122.003C20.992 121.051 21.3603 120.187 22.1011 119.41C22.8422 118.633 23.6877 118.223 24.6384 118.182V118.181ZM27.353 121.523C27.3619 120.785 27.103 120.165 26.5768 119.664C26.0507 119.162 25.4194 118.933 24.6827 118.977C23.9458 119.021 23.2823 119.353 22.6915 119.972C22.1006 120.592 21.8009 121.271 21.792 122.009C21.7831 122.747 22.0419 123.366 22.5682 123.868C23.0942 124.369 23.7257 124.599 24.4622 124.554C25.1989 124.51 25.8626 124.179 26.4535 123.559C27.044 122.94 27.3438 122.261 27.353 121.523ZM23.3427 115.437L17.7332 119.845L15.844 117.44C15.5125 117.018 15.381 116.54 15.4501 116.007C15.5187 115.473 15.7722 115.034 16.2104 114.69C16.5629 114.413 16.9471 114.275 17.3634 114.277C17.5276 114.277 17.7014 114.3 17.8846 114.346L17.9246 114.315C17.8947 114.123 17.8972 113.939 17.9328 113.764C18.0142 113.329 18.247 112.96 18.6317 112.658C19.0699 112.313 19.5562 112.171 20.0909 112.23C20.6261 112.29 21.0592 112.53 21.3907 112.952L23.3427 115.437L23.3427 115.437ZM19.7538 117.22L18.3686 115.457C18.1795 115.216 17.9248 115.082 17.6039 115.053C17.2833 115.024 16.9866 115.117 16.7141 115.331C16.4418 115.545 16.2815 115.811 16.2335 116.13C16.1858 116.448 16.2562 116.728 16.4451 116.968L17.8306 118.731L19.7538 117.22H19.7538ZM22.2382 115.268L20.7898 113.425C20.6008 113.184 20.3461 113.05 20.0254 113.021C19.7045 112.992 19.4079 113.085 19.1353 113.299C18.8631 113.513 18.7028 113.779 18.655 114.098C18.6071 114.416 18.6774 114.696 18.8664 114.936L20.3147 116.779L22.2381 115.268L22.2382 115.268ZM19.0198 109.88L13.0137 113.73L12.5739 113.044L15.2337 111.338L13.0883 107.992L10.4285 109.697L9.98844 109.011L15.9945 105.161L16.4346 105.847L13.7319 107.58L15.877 110.926L18.5799 109.193L19.0198 109.88ZM15.3582 103.989L7.77711 104.837L7.21974 103.749L12.3387 98.0928L12.7335 98.8637L11.4024 100.289L13.0284 103.465L14.9634 103.218L15.3582 103.989L15.3582 103.989ZM12.2086 103.541L10.8614 100.91L8.22301 103.807L8.31595 103.989L12.2087 103.541L12.2086 103.541ZM11.3092 91.1428L9.1739 91.6356L9.13968 91.4866C9.0294 91.0099 8.70342 90.8062 8.16174 90.8755L2.64632 91.678L1.64933 87.3584L7.85594 85.9256L7.68379 85.1807L9.81906 84.6879L10.0025 85.4821L8.61212 85.803L9.73523 90.6691L11.1256 90.3482L11.309 91.1427L11.3092 91.1428ZM8.84172 90.1956L8.03929 86.7198L2.57759 87.9807L3.21946 90.7611L7.97839 90.0812C8.25596 90.0451 8.48085 90.052 8.65299 90.1031C8.74302 90.1312 8.80586 90.1618 8.84172 90.1955V90.1956ZM6.49606 78.0275C7.25971 78.5947 7.70202 79.3533 7.82261 80.304C7.9435 81.2543 7.70516 82.0998 7.10737 82.8399C6.50958 83.5805 5.67853 84.0179 4.61318 84.1533C3.54835 84.2886 2.63422 84.0729 1.87004 83.5054C1.10638 82.9382 0.664074 82.1794 0.543261 81.2289C0.422672 80.2783 0.661011 79.4331 1.2585 78.693C1.85652 77.9524 2.68764 77.5147 3.75247 77.3794C4.81782 77.2441 5.73195 77.46 6.49606 78.0275ZM6.49314 82.3324C6.96571 81.7657 7.15594 81.1216 7.06449 80.4003C6.97274 79.6791 6.62756 79.1032 6.02827 78.6724C5.42876 78.2417 4.70463 78.0802 3.8552 78.1883C3.00607 78.2962 2.34522 78.6334 1.8728 79.2004C1.40024 79.7671 1.20979 80.4112 1.30146 81.1325C1.39321 81.8538 1.73839 82.4297 2.33768 82.8604C2.93689 83.2908 3.66109 83.4527 4.51045 83.3445C5.35958 83.2367 6.02043 82.8992 6.49307 82.3324H6.49314ZM4.94969 69.6226L4.97159 68.7566C5.7203 68.9793 6.30681 69.3799 6.73051 69.9582C7.15399 70.5365 7.35625 71.2094 7.33675 71.9769C7.31269 72.9346 6.94913 73.7344 6.24659 74.3758C5.5436 75.0171 4.65592 75.3243 3.58242 75.2971C2.50937 75.2699 1.63835 74.9184 0.968834 74.2422C0.299542 73.5659 -0.0230745 72.7488 0.00128237 71.7913C0.0205587 71.0305 0.253145 70.3702 0.698742 69.8106C1.14464 69.2509 1.7369 68.8784 2.47553 68.6935L2.45363 69.5592C1.9396 69.7231 1.53323 70.0048 1.23422 70.4052C0.935213 70.8053 0.779209 71.2738 0.765462 71.8105C0.747157 72.5373 1.00141 73.1589 1.52867 73.6751C2.05615 74.1914 2.74734 74.4605 3.60327 74.4821C4.45912 74.5038 5.16338 74.27 5.71634 73.7811C6.26908 73.2921 6.55441 72.6844 6.57272 71.9576C6.58646 71.4207 6.45093 70.945 6.1656 70.5302C5.88034 70.1149 5.47509 69.8125 4.94977 69.6226H4.94969ZM7.58136 65.5594L1.26231 64.7565L0.966668 67.0822L0.20854 66.9857L0.902114 61.5261L1.66047 61.6224L1.36504 63.9476L7.68409 64.7505L7.58129 65.5594L7.58136 65.5594ZM7.85773 62.2377L1.51365 58.0014L1.78883 56.8099L9.34776 55.7829L9.15298 56.627L7.21638 56.8596L6.41395 60.3356L8.05251 61.3937L7.85773 62.2377ZM5.73793 59.8656L6.40289 56.9857L2.51834 57.5012L2.47239 57.6998L5.73793 59.8656ZM9.6511 54.4831L2.89318 52.1964L3.87306 49.3002C4.0452 48.792 4.37335 48.4205 4.85794 48.1865C5.34232 47.9519 5.84866 47.9243 6.37637 48.1029C6.80104 48.2467 7.12657 48.493 7.35258 48.8423C7.44239 48.98 7.518 49.1384 7.57934 49.3171L7.62746 49.3332C7.77218 49.2032 7.92721 49.1047 8.09308 49.039C8.50214 48.869 8.9381 48.8623 9.40155 49.019C9.92926 49.1977 10.3147 49.527 10.5574 50.0073C10.8001 50.4877 10.8355 50.9821 10.6636 51.4903L9.65095 54.4832L9.6511 54.4831ZM6.19556 52.4533L6.91424 50.3292C7.01219 50.0396 6.98551 49.7529 6.83407 49.4685C6.68314 49.1839 6.44309 48.9865 6.11494 48.8753C5.78679 48.7643 5.47621 48.7756 5.18325 48.9099C4.89074 49.0438 4.69522 49.2556 4.59727 49.5453L3.87859 51.6692L6.19563 52.4533H6.19556ZM9.18809 53.4659L9.9395 51.2452C10.0374 50.9556 10.0108 50.6689 9.85978 50.3845C9.70833 50.1001 9.46857 49.9023 9.14043 49.7913C8.81228 49.6803 8.50147 49.6918 8.20896 49.8257C7.91593 49.96 7.72048 50.1716 7.62245 50.4613L6.87105 52.6817L9.18809 53.4659V53.4659ZM11.9698 47.8367L5.46918 44.8973L5.80502 44.1546L8.86959 45.5404L7.04372 41.4148L7.46361 40.4863L9.36606 44.8138L14.0483 43.24L13.6284 44.1686L9.14842 45.6663L12.3056 47.0939L11.9698 47.8367ZM14.2526 42.7618L9.4144 36.8641L10.024 35.8038L17.555 37.0191L17.1231 37.77L15.2026 37.4296L13.4244 40.5221L14.6845 42.011L14.2526 42.7618ZM12.914 39.8759L14.3877 37.3136L10.5209 36.6772L10.4193 36.8542L12.914 39.8758V39.8759ZM20.7226 32.5048L15.3304 27.8335L17.3326 25.5225C17.6838 25.1168 18.128 24.8973 18.6651 24.8636C19.2022 24.8299 19.6813 24.9956 20.1024 25.3603C20.4414 25.6538 20.6496 26.005 20.7269 26.4139C20.7577 26.5754 20.7681 26.7505 20.7575 26.9392L20.7957 26.9724C20.9789 26.9065 21.1597 26.8742 21.3382 26.8759C21.7809 26.8733 22.1873 27.0319 22.5571 27.3521C22.9782 27.7169 23.2105 28.1676 23.2536 28.7039C23.2969 29.2403 23.1427 29.7115 22.7914 30.1172L20.7226 32.505V32.5048ZM18.2907 29.3194L19.7588 27.6248C19.9592 27.3937 20.0429 27.118 20.0102 26.7975C19.9779 26.4771 19.8303 26.2033 19.5686 25.9766C19.3067 25.7498 19.0149 25.6429 18.693 25.6563C18.3713 25.6698 18.1103 25.7919 17.91 26.023L16.4419 27.7177L18.2906 29.3194H18.2907ZM20.6785 31.3882L22.2135 29.6165C22.4136 29.3854 22.4974 29.1097 22.4651 28.7893C22.4323 28.4688 22.285 28.1951 22.0233 27.9681C21.7613 27.7413 21.4693 27.6346 21.1476 27.6482C20.8258 27.6616 20.5648 27.7837 20.3647 28.0148L18.8297 29.7866L20.6784 31.3883L20.6785 31.3882ZM31.9333 19.9811C31.8844 20.9311 31.498 21.7199 30.7738 22.3472C30.0499 22.9744 29.214 23.2448 28.2666 23.1576C27.319 23.0705 26.4939 22.6212 25.7909 21.8096C25.0879 20.9983 24.761 20.1176 24.8096 19.1673C24.8585 18.2171 25.2449 17.4283 25.9691 16.8012C26.6933 16.1738 27.5289 15.9036 28.4763 15.9908C29.4239 16.0779 30.249 16.527 30.952 17.3383C31.6549 18.1499 31.9819 19.0306 31.9333 19.981V19.9811ZM28.3487 22.365C29.0822 22.4442 29.7239 22.2456 30.2733 21.7694C30.8229 21.2934 31.1108 20.6867 31.1371 19.9493C31.1633 19.2116 30.8964 18.5195 30.3356 17.8723C29.7751 17.2251 29.128 16.8623 28.3942 16.7833C27.6606 16.7041 27.019 16.9027 26.4696 17.3787C25.9199 17.855 25.6321 18.4614 25.6058 19.1991C25.5795 19.9365 25.8465 20.6287 26.407 21.2758C26.9677 21.923 27.6148 22.2858 28.3487 22.365ZM34.927 20.6668L33.7442 18.8218L33.873 18.7393C34.2849 18.4754 34.367 18.0999 34.1193 17.6128L31.5078 12.6892L35.24 10.2966L38.6777 15.6592L39.3212 15.2467L40.5038 17.0914L39.8176 17.5314L39.0474 16.3301L34.8432 19.0254L35.6133 20.2267L34.9269 20.6668H34.927ZM34.9884 18.0243L37.9916 16.0992L34.9662 11.3801L32.5638 12.9202L34.8057 17.1729C34.933 17.4221 35.0021 17.6363 35.012 17.8154C35.0159 17.9098 35.0081 17.9794 34.9884 18.0242V18.0243ZM41.1808 15.1191L37.9287 8.76923L42.0107 6.6788L42.3593 7.35915L39.0027 9.07788L40.0945 11.2098L43.2696 9.58377L43.618 10.2641L40.4429 11.8901L41.5579 14.0672L44.9142 12.3483L45.2628 13.0286L41.1809 15.1191H41.1808ZM51.1764 8.13797L51.9822 7.82021C52.0693 8.59664 51.9292 9.29291 51.5623 9.90878C51.1952 10.5243 50.6545 10.9732 49.9401 11.2548C49.0491 11.6061 48.1708 11.5834 47.3061 11.1869C46.4412 10.7902 45.8122 10.0924 45.4183 9.09357C45.0244 8.09493 45.0083 7.15577 45.3697 6.27534C45.7311 5.39535 46.3575 4.77956 47.2487 4.42825C47.9568 4.14897 48.6555 4.10541 49.3445 4.2975C50.0337 4.48959 50.6077 4.88954 51.0664 5.49741L50.2606 5.81517C49.9093 5.40589 49.4911 5.14155 49.0057 5.0226C48.5206 4.90343 48.0285 4.94243 47.5292 5.13938C46.8527 5.40589 46.3796 5.88257 46.1102 6.56949C45.8406 7.25656 45.8627 7.9981 46.1767 8.79456C46.4906 9.59094 46.9808 10.1483 47.6467 10.4666C48.3124 10.7849 48.9833 10.8104 49.6599 10.5436C50.1592 10.3467 50.5444 10.0361 50.815 9.61164C51.0861 9.18696 51.2064 8.69609 51.1764 8.13797ZM54.5144 9.67178L52.566 2.80889L53.3501 2.58617L55.2986 9.44906L54.5144 9.67178ZM60.9721 5.90304L60.8111 4.99996L61.7139 4.83888L61.8752 5.74173L60.9721 5.90304ZM68.4473 7.2532L68.2667 0.121336L73.0553 0L73.0746 0.764179L69.101 0.86482L69.1591 3.15728L71.5536 3.09661C72.0967 3.08287 72.5601 3.26151 72.9432 3.63232C73.3267 4.00335 73.5258 4.48772 73.541 5.08529C73.5561 5.68308 73.3816 6.17687 73.0176 6.56665C72.6536 6.95666 72.2 7.15839 71.6568 7.17214L68.4473 7.25328V7.2532ZM69.2428 6.46855L71.6373 6.40788C71.97 6.39944 72.2371 6.27713 72.4386 6.04096C72.6398 5.80479 72.7356 5.493 72.7258 5.10591C72.7159 4.71881 72.6047 4.41234 72.3916 4.1867C72.1785 3.96113 71.9055 3.85228 71.5728 3.86072L69.1785 3.92139L69.2427 6.46855H69.2428ZM75.4336 7.20718L75.9743 0.093393L80.5474 0.441039L80.4893 1.20328L76.7293 0.917493L76.5477 3.30552L80.1046 3.57591L80.0468 4.33814L76.4897 4.06775L76.3043 6.5068L80.0644 6.79259L80.0063 7.55482L75.4334 7.20718H75.4336ZM81.7717 5.82504L82.5741 5.96826C82.512 6.31591 82.6131 6.6395 82.8772 6.9385C83.1413 7.23751 83.5508 7.43663 84.1063 7.53585C84.6345 7.63021 85.0813 7.58232 85.4466 7.3924C85.812 7.20217 86.0249 6.93664 86.0858 6.59549C86.1469 6.25434 86.0571 5.93464 85.8173 5.63631C85.577 5.33805 85.2395 5.15021 84.8049 5.07244L84.1027 4.94699L84.237 4.19462L84.9393 4.32006C85.3338 4.39037 85.6793 4.33134 85.9753 4.14262C86.2711 3.95411 86.4491 3.69239 86.5088 3.35797C86.5733 2.99657 86.4814 2.67134 86.2326 2.38197C85.9842 2.0926 85.6158 1.90432 85.1276 1.81713C84.6459 1.73121 84.2359 1.7856 83.8974 1.98038C83.5588 2.17539 83.3591 2.44339 83.2982 2.78453L82.4957 2.64108C82.5961 2.07938 82.8997 1.64364 83.4069 1.3338C83.9145 1.02419 84.5327 0.934603 85.262 1.0649C85.9844 1.19394 86.531 1.49489 86.9019 1.96843C87.273 2.44174 87.4092 2.95286 87.3112 3.50127C87.2228 3.99625 86.9655 4.37475 86.5391 4.63663C86.3323 4.75169 86.1291 4.82588 85.9301 4.85935L85.9212 4.90941C86.141 5.03149 86.3287 5.17905 86.4843 5.35165C86.8469 5.75443 86.9817 6.21691 86.8885 6.73864C86.7869 7.3073 86.4696 7.74236 85.9358 8.04376C85.4023 8.34545 84.7475 8.42682 83.9717 8.28837C83.1957 8.1497 82.6097 7.84681 82.2138 7.37902C81.8175 6.91123 81.6701 6.39339 81.7717 5.82496L81.7717 5.82504ZM88.3373 9.08483L90.2859 2.22193L91.07 2.44466L90.1516 5.67987L93.9625 3.26584L94.9428 3.54415L90.9432 6.0636L93.1901 10.4626L92.2098 10.1843L90.068 5.97402L89.1214 9.30748L88.3373 9.08475V9.08483ZM99.7379 12.0247C98.8731 12.4212 97.9953 12.4438 97.1038 12.0923C96.2126 11.7411 95.5861 11.1252 95.2248 10.2452C94.8634 9.36478 94.8795 8.42562 95.2734 7.42669C95.6673 6.42806 96.2961 5.73037 97.1611 5.33356C98.0259 4.93705 98.9042 4.91442 99.7952 5.26595C100.687 5.61718 101.313 6.23305 101.674 7.11304C102.036 7.99347 102.02 8.93263 101.626 9.93127C101.232 10.9301 100.603 11.6279 99.7379 12.0246V12.0247ZM95.9652 9.95107C96.2347 10.6379 96.7078 11.1146 97.3842 11.3814C98.0605 11.6479 98.7315 11.6224 99.3974 11.3041C100.063 10.9861 100.553 10.4288 100.867 9.63233C101.181 8.83595 101.204 8.09441 100.934 7.40726C100.664 6.72041 100.191 6.24374 99.5149 5.97693C98.8383 5.71042 98.1674 5.7359 97.5015 6.05396C96.8357 6.37224 96.3456 6.92931 96.0317 7.72577C95.7177 8.52215 95.6956 9.26392 95.9652 9.95107ZM101.959 14.1074L105.515 7.92294L106.222 8.32931L103.046 13.8512L105.476 15.2483L108.652 9.7264L109.358 10.1328L106.183 15.6547L108.613 17.052L111.788 11.5301L112.495 11.9365L108.939 18.1212L101.959 14.1074V14.1074ZM112.046 20.5486L115.982 15.5399L114.139 14.0916L114.611 13.4904L118.938 16.8911L118.466 17.492L116.623 16.0439L112.687 21.0523L112.046 20.5486V20.5486ZM120.231 26.544C119.281 26.5859 118.459 26.2765 117.765 25.6155C117.072 24.9544 116.723 24.1481 116.72 23.1969C116.716 22.2452 117.085 21.3811 117.826 20.604C118.566 19.8268 119.412 19.4173 120.362 19.3755C121.313 19.3333 122.135 19.6432 122.828 20.304C123.522 20.9651 123.87 21.7714 123.874 22.7226C123.877 23.6743 123.509 24.5384 122.768 25.3155C122.027 26.0927 121.182 26.502 120.231 26.544H120.231ZM117.516 23.2029C117.508 23.9407 117.766 24.5605 118.293 25.062C118.819 25.5637 119.45 25.7927 120.187 25.7484C120.924 25.7043 121.587 25.3726 122.178 24.7529C122.769 24.1332 123.068 23.4545 123.077 22.7166C123.086 21.9787 122.827 21.359 122.301 20.8573C121.774 20.3556 121.143 20.1269 120.407 20.1709C119.67 20.2152 119.006 20.5467 118.416 21.1664C117.825 21.7861 117.525 22.465 117.516 23.2029V23.2029ZM121.534 29.2824L127.143 24.8745L129.033 27.2786C129.364 27.7007 129.496 28.1785 129.427 28.7123C129.358 29.2461 129.104 29.6849 128.666 30.0292C128.314 30.3061 127.93 30.444 127.513 30.4423C127.349 30.4421 127.175 30.4187 126.992 30.3728L126.952 30.4041C126.982 30.5965 126.98 30.7799 126.944 30.9549C126.862 31.3902 126.63 31.7591 126.245 32.0615C125.807 32.4055 125.32 32.548 124.786 32.4888C124.251 32.4294 123.818 32.1886 123.486 31.7668L121.534 29.2825L121.534 29.2824ZM125.123 27.4991L126.508 29.2621C126.697 29.5026 126.952 29.637 127.273 29.6659C127.593 29.6948 127.89 29.6021 128.163 29.388C128.435 29.174 128.595 28.9077 128.643 28.589C128.691 28.2707 128.621 27.9914 128.432 27.7509L127.046 25.9876L125.123 27.4991H125.123ZM122.639 29.4511L124.087 31.2943C124.276 31.5348 124.531 31.6691 124.851 31.6983C125.172 31.7269 125.469 31.6342 125.741 31.4202C126.014 31.2061 126.174 30.9396 126.222 30.6213C126.27 30.3028 126.199 30.0233 126.01 29.783L124.562 27.9398L122.639 29.451L122.639 29.4511ZM125.862 34.8355L131.868 30.9854L132.308 31.6716L129.648 33.3769L131.794 36.7231L134.453 35.0178L134.894 35.7045L128.887 39.5546L128.447 38.8682L131.15 37.1355L129.005 33.7892L126.302 35.5219L125.862 34.8355ZM129.53 40.7229L137.111 39.8749L137.668 40.9634L132.549 46.6192L132.154 45.8483L133.485 44.4225L131.859 41.2474L129.924 41.4937L129.53 40.7228L129.53 40.7229ZM132.679 41.1712L134.026 43.8019L136.665 40.9049L136.572 40.7233L132.679 41.1711L132.679 41.1712ZM133.594 53.5635L135.729 53.0706L135.763 53.2197C135.874 53.6964 136.2 53.9 136.741 53.8307L142.257 53.0283L143.254 57.3479L137.047 58.7806L137.219 59.5255L135.084 60.0183L134.901 59.2241L136.291 58.9032L135.168 54.0371L133.778 54.358L133.594 53.5635L133.594 53.5635ZM136.061 54.5106L136.864 57.9864L142.326 56.7256L141.684 53.9452L136.925 54.6251C136.647 54.6612 136.422 54.6542 136.25 54.6032C136.16 54.575 136.097 54.5445 136.061 54.5108V54.5106ZM138.414 66.6778C137.65 66.1105 137.208 65.352 137.087 64.4012C136.967 63.451 137.205 62.6055 137.803 61.8653C138.4 61.1248 139.232 60.6873 140.297 60.552C141.362 60.4167 142.276 60.6324 143.04 61.1999C143.804 61.7671 144.246 62.5259 144.367 63.4764C144.487 64.4269 144.249 65.2722 143.652 66.0123C143.054 66.7529 142.222 67.1905 141.158 67.3258C140.092 67.4612 139.178 67.2452 138.414 66.6778ZM138.417 62.3729C137.944 62.9396 137.754 63.5836 137.846 64.3049C137.937 65.0262 138.283 65.6021 138.882 66.0328C139.481 66.4636 140.205 66.6251 141.055 66.517C141.904 66.4091 142.565 66.0718 143.037 65.5048C143.51 64.9381 143.7 64.2941 143.609 63.5728C143.517 62.8515 143.172 62.2756 142.572 61.8449C141.973 61.4144 141.249 61.2526 140.4 61.3607C139.55 61.4686 138.89 61.8061 138.417 62.3729H138.417ZM139.971 75.082L139.949 75.948C139.2 75.7253 138.613 75.3247 138.19 74.7464C137.766 74.1681 137.564 73.4952 137.583 72.7277C137.608 71.77 137.971 70.9702 138.674 70.3288C139.377 69.6875 140.264 69.3803 141.338 69.4075C142.411 69.4347 143.282 69.7862 143.951 70.4624C144.621 71.1387 144.943 71.9558 144.919 72.9133C144.9 73.6741 144.667 74.3344 144.222 74.894C143.776 75.4537 143.183 75.8262 142.445 76.0111L142.467 75.1454C142.981 74.9815 143.387 74.6998 143.686 74.2994C143.985 73.8993 144.141 73.4308 144.155 72.8941C144.173 72.1673 143.919 71.5456 143.392 71.0294C142.864 70.5132 142.173 70.2441 141.317 70.2224C140.461 70.2008 139.757 70.4346 139.204 70.9235C138.651 71.4125 138.366 72.0202 138.348 72.747C138.334 73.2839 138.469 73.7596 138.755 74.1744C139.04 74.5897 139.445 74.8921 139.97 75.082H139.971ZM137.346 79.1457L143.665 79.9485L143.961 77.6228L144.719 77.7194L144.025 83.1789L143.267 83.0826L143.562 80.7574L137.243 79.9545L137.346 79.1456L137.346 79.1457ZM137.076 82.4685L143.42 86.7048L143.145 87.8963L135.586 88.9233L135.781 88.0793L137.718 87.8467L138.52 84.3707L136.881 83.3126L137.076 82.4685ZM139.196 84.8406L138.531 87.7205L142.416 87.205L142.462 87.0065L139.196 84.8406ZM135.289 90.2251L142.047 92.5118L141.067 95.408C140.895 95.9162 140.567 96.2877 140.082 96.5217C139.598 96.7562 139.091 96.7839 138.564 96.6052C138.139 96.4615 137.814 96.2152 137.588 95.8659C137.498 95.7282 137.422 95.5698 137.361 95.3911L137.313 95.375C137.168 95.505 137.013 95.6035 136.847 95.6692C136.438 95.8392 136.002 95.8459 135.539 95.6892C135.011 95.5105 134.625 95.1812 134.383 94.7008C134.14 94.2205 134.105 93.726 134.277 93.2178L135.289 90.225L135.289 90.2251ZM138.745 92.2548L138.026 94.379C137.928 94.6686 137.955 94.9553 138.106 95.2397C138.257 95.5243 138.497 95.7217 138.825 95.8329C139.153 95.9439 139.464 95.9326 139.757 95.7982C140.049 95.6644 140.245 95.4525 140.343 95.1629L141.062 93.039L138.744 92.2548H138.745ZM135.752 91.2422L135.001 93.463C134.903 93.7526 134.929 94.0393 135.08 94.3237C135.232 94.608 135.472 94.8059 135.8 94.9169C136.128 95.0279 136.439 95.0164 136.731 94.8825C137.024 94.7481 137.22 94.5365 137.318 94.2469L138.069 92.0264L135.752 91.2423V91.2422ZM132.977 96.8739L139.477 99.8132L139.142 100.556L136.077 99.1702L137.903 103.296L137.483 104.224L135.581 99.8968L130.898 101.471L131.318 100.542L135.798 99.0443L132.641 97.6166L132.977 96.8739ZM130.7 101.952L135.538 107.85L134.928 108.91L127.397 107.695L127.829 106.944L129.75 107.284L131.528 104.192L130.268 102.703L130.7 101.952ZM132.038 104.838L130.565 107.4L134.431 108.036L134.533 107.86L132.038 104.838V104.838ZM124.24 112.216L129.632 116.888L127.63 119.199C127.279 119.604 126.835 119.824 126.298 119.858C125.761 119.891 125.282 119.726 124.861 119.361C124.522 119.067 124.313 118.716 124.236 118.307C124.205 118.146 124.195 117.971 124.205 117.782L124.167 117.749C123.984 117.815 123.803 117.847 123.625 117.845C123.182 117.848 122.776 117.689 122.406 117.369C121.985 117.004 121.752 116.554 121.709 116.017C121.666 115.481 121.82 115.01 122.172 114.604L124.24 112.216V112.216ZM126.672 115.402L125.204 117.096C125.004 117.328 124.92 117.603 124.953 117.924C124.985 118.244 125.133 118.518 125.394 118.745C125.656 118.971 125.948 119.078 126.27 119.065C126.592 119.051 126.853 118.929 127.053 118.698L128.521 117.003L126.672 115.402H126.672ZM124.284 113.333L122.749 115.105C122.549 115.336 122.466 115.611 122.498 115.932C122.531 116.252 122.678 116.526 122.94 116.753C123.202 116.98 123.494 117.087 123.815 117.073C124.137 117.06 124.398 116.937 124.598 116.706L126.133 114.935L124.284 113.333L124.284 113.333ZM113.036 124.747C113.085 123.797 113.472 123.008 114.196 122.381C114.92 121.754 115.756 121.483 116.703 121.57C117.651 121.658 118.476 122.107 119.179 122.918C119.882 123.73 120.209 124.61 120.16 125.561C120.111 126.511 119.725 127.3 119.001 127.927C118.276 128.554 117.441 128.824 116.493 128.737C115.546 128.65 114.721 128.201 114.018 127.39C113.315 126.578 112.988 125.697 113.036 124.747V124.747ZM116.621 122.363C115.887 122.284 115.246 122.482 114.696 122.959C114.147 123.435 113.859 124.041 113.833 124.779C113.806 125.516 114.073 126.209 114.634 126.856C115.195 127.503 115.842 127.866 116.576 127.945C117.309 128.024 117.951 127.825 118.5 127.349C119.05 126.873 119.338 126.267 119.364 125.529C119.39 124.791 119.123 124.099 118.563 123.452C118.002 122.805 117.355 122.442 116.621 122.363ZM110.049 124.069L111.231 125.914L111.103 125.997C110.691 126.261 110.609 126.636 110.856 127.123L113.468 132.047L109.736 134.439L106.298 129.077L105.655 129.489L104.472 127.645L105.158 127.205L105.928 128.406L110.133 125.711L109.362 124.509L110.049 124.069H110.049ZM109.987 126.712L106.984 128.637L110.009 133.356L112.412 131.816L110.17 127.563C110.043 127.314 109.974 127.1 109.964 126.921C109.96 126.826 109.968 126.757 109.987 126.712V126.712ZM103.798 129.622L107.05 135.972L102.968 138.063L102.62 137.382L105.976 135.664L104.884 133.532L101.709 135.158L101.361 134.477L104.536 132.851L103.421 130.674L100.065 132.393L99.716 131.713L103.798 129.622H103.798ZM93.8051 136.61L92.9993 136.928C92.9122 136.151 93.0523 135.455 93.4192 134.839C93.7864 134.223 94.3271 133.775 95.0414 133.493C95.9324 133.142 96.8107 133.164 97.6755 133.561C98.5403 133.958 99.1693 134.655 99.5632 135.654C99.9571 136.653 99.9732 137.592 99.6118 138.472C99.2504 139.352 98.624 139.968 97.7328 140.32C97.0247 140.599 96.326 140.642 95.637 140.45C94.9478 140.258 94.3738 139.858 93.9152 139.25L94.7209 138.933C95.0722 139.342 95.4904 139.606 95.9758 139.725C96.4609 139.844 96.953 139.805 97.4523 139.608C98.1288 139.342 98.6019 138.865 98.8713 138.178C99.1409 137.491 99.1188 136.75 98.8048 135.953C98.4909 135.157 98.0007 134.599 97.3348 134.281C96.6691 133.963 95.9982 133.937 95.3217 134.204C94.8223 134.401 94.4371 134.712 94.1665 135.136C93.8954 135.561 93.7751 136.052 93.8051 136.61ZM90.4695 135.082L92.4179 141.945L91.6337 142.168L89.6854 135.305L90.4695 135.082Z" fill="#3274DE"/>
</svg>
