<svg width="40" height="44" viewBox="0 0 40 44" fill="none" xmlns="http://www.w3.org/2000/svg">
<path fill-rule="evenodd" clip-rule="evenodd" d="M26.3654 34.2809L26.6939 34.2549L30.4698 34.2591L30.7937 34.2822L30.7931 42.1743L26.3654 42.1943V34.2809ZM1.73496 38.8777L17.3212 38.8701L17.3504 39.1905L17.3455 42.1947L1.73204 42.1945L1.73496 38.8775V38.8777ZM6.37734 32.0938L6.69907 32.0699L12.3631 32.074L12.6952 32.0784L12.7006 37.1466L6.37684 37.1529L6.37722 32.0939L6.37734 32.0938ZM17.3454 37.1547H14.4012C14.456 30.1819 15.0135 30.3575 12.449 30.3581H6.61354C4.01598 30.3572 4.66135 30.2761 4.66135 37.1547L1.73191 37.1525V20.2029L17.322 13.2831C17.414 14.3254 17.3499 19.5577 17.3435 21.0004C17.3407 21.6393 17.4157 22.1393 17.9621 22.2794C18.6188 22.4481 19.0124 21.999 19.0576 21.4301C19.1482 20.2933 19.061 18.7472 19.061 17.5657C19.061 12.4062 19.061 7.24681 19.061 2.08729L38.0987 9.12411L38.0977 42.1845L36.2197 42.1956C36.2197 41.0785 36.2197 39.963 36.2197 38.8475C36.2197 37.9054 36.4999 36.3544 35.3615 36.355C34.2247 36.3556 34.5042 37.9082 34.5042 38.8475C34.5042 39.9632 34.5042 41.0789 34.5042 42.1946H32.5081C32.5087 39.9347 32.5087 37.6749 32.5087 35.415C32.5087 32.1195 32.9727 32.5435 28.582 32.5435C27.973 32.5435 25.6745 32.4696 25.2539 32.5923C24.353 32.8553 24.6496 34.4814 24.6496 35.415C24.6496 37.6749 24.6496 39.9347 24.6496 42.1946H22.6556C22.6541 41.0789 22.6541 39.9632 22.6541 38.8475C22.6541 37.9438 22.9339 36.3443 21.8042 36.3532C20.6642 36.3623 20.9385 37.8781 20.9385 38.8475C20.9385 39.9611 20.9385 41.0747 20.9385 42.1883L19.0609 42.1942C19.0609 38.1584 19.0539 34.1259 19.0612 30.0946C19.062 29.6665 19.1385 29.083 18.9275 28.7629C18.7364 28.4728 18.2666 28.2527 17.8354 28.4438C17.0878 28.7751 17.3454 30.2163 17.3454 31.0386C17.3454 33.0772 17.3454 35.1158 17.3454 37.1546V37.1547ZM17.3454 11.414L2.85399 17.8373C0.257694 18.9918 0.00780884 18.7359 0.0154118 20.2251L0.0164256 41.1645C0.0164256 43.9941 -0.360303 43.9102 2.49462 43.9102H33.9023C40.7401 43.9102 39.8131 45.0298 39.8131 39.3626V18.4238C39.8131 17.1407 39.9652 8.5288 39.6896 8.09036C39.3866 7.60833 33.189 5.46758 32.202 5.10644L20.746 0.858899C16.661 -0.631414 17.3455 -0.907783 17.3455 6.15248C17.3455 7.90624 17.3455 9.66025 17.3455 11.414H17.3454Z" fill="#51A5F2"/>
<path fill-rule="evenodd" clip-rule="evenodd" d="M6.37867 22.8735C7.04203 22.4771 8.46898 21.985 9.30151 21.625C10.771 20.9895 10.8475 20.8306 12.7013 20.8977V26.188L6.37854 26.156V22.8735H6.37867ZM10.5557 19.2504C9.49196 19.6291 8.37014 20.1453 7.32993 20.5972C6.75945 20.845 6.26158 21.044 5.69883 21.283C4.95513 21.5989 4.66825 21.5951 4.66001 22.5385C4.65025 23.6632 4.5319 26.1765 4.67775 27.1549C4.79116 27.9157 5.49507 27.9068 6.27172 27.9036L13.1381 27.9059C14.7785 27.9097 14.4171 27.0202 14.4171 24.5166C14.4171 19.8267 15.0423 19.165 12.7938 19.1734C12.2003 19.1755 11.043 19.0771 10.5559 19.2504H10.5557Z" fill="#51A5F2"/>
<path fill-rule="evenodd" clip-rule="evenodd" d="M22.6942 9.87639L25.6652 10.9606L25.6656 16.9197H22.6527L22.6942 9.87627V9.87639ZM21.5996 8.12555C20.8714 8.36986 20.9337 8.68741 20.9376 9.58482C20.9433 10.7898 20.8709 17.6412 20.9896 18.038C21.1816 18.6798 21.8383 18.6382 22.5751 18.6357C23.2587 18.6334 26.4298 18.712 26.8346 18.5694C27.4218 18.3625 27.3841 17.7347 27.3817 17.0511L27.384 10.6101C27.3633 9.47584 26.7301 9.5501 24.92 8.87128C24.0789 8.55588 22.5321 7.81281 21.5995 8.12555H21.5996Z" fill="#51A5F2"/>
<path fill-rule="evenodd" clip-rule="evenodd" d="M22.6664 22.6H25.6655L25.6678 27.692L25.6536 28.0244H22.6639L22.6541 27.692L22.6664 22.6ZM21.465 20.9769C20.892 21.2493 20.9338 21.6279 20.9376 22.3711L20.9383 28.1212C20.9315 29.9922 21.3223 29.74 23.09 29.7399C27.9973 29.7395 27.3812 30.2743 27.3812 26.4048C27.3812 20.4632 27.7963 20.8843 25.2355 20.8844C24.5379 20.8844 21.8994 20.7704 21.465 20.9769Z" fill="#51A5F2"/>
<path fill-rule="evenodd" clip-rule="evenodd" d="M31.4891 22.6H34.5047L34.507 27.692L34.4978 28.0244H31.5025L31.4933 27.692L31.4891 22.6ZM30.3038 20.9769C29.7308 21.2493 29.7727 21.6279 29.7765 22.3711L29.7771 28.1212C29.7702 29.9922 30.161 29.74 31.9289 29.7399C36.8359 29.7395 36.2202 30.2741 36.2202 26.4048C36.2202 20.4635 36.6355 20.8843 34.0741 20.8844C33.3765 20.8844 30.738 20.7704 30.3036 20.9769H30.3038Z" fill="#51A5F2"/>
<path fill-rule="evenodd" clip-rule="evenodd" d="M31.4968 13.1582L33.794 13.9873C34.7345 14.3368 34.5075 13.8387 34.5075 16.9197H31.5031L31.4968 13.1581V13.1582ZM30.4406 11.0809C29.4586 11.3173 29.7812 12.9662 29.7812 13.8758C29.7812 15.0493 29.7774 16.2235 29.7784 17.397C29.7799 18.9561 30.714 18.6351 32.1038 18.6351C36.9333 18.6351 36.2261 19.4112 36.2257 14.0442C36.2257 13.3715 36.1386 13.059 35.6309 12.8381C34.9657 12.5484 30.9038 10.9694 30.4406 11.0808V11.0809Z" fill="#51A5F2"/>
<path fill-rule="evenodd" clip-rule="evenodd" d="M17.892 24.5983C16.8101 25.0755 17.4955 26.5339 18.5356 26.1436C19.5478 25.7637 18.9539 24.1301 17.892 24.5983Z" fill="#51A5F2"/>
</svg>
