<svg width="30" height="42" viewBox="0 0 30 42" fill="none" xmlns="http://www.w3.org/2000/svg">
<path d="M14.5494 20.6964C12.9598 20.6964 11.3699 20.0913 10.16 18.8811C7.73962 16.461 7.73962 12.5228 10.16 10.1024C11.3323 8.92984 12.8912 8.28418 14.5494 8.28418C16.2076 8.28418 17.7662 8.93016 18.9387 10.1024C21.3592 12.5228 21.3592 16.461 18.9387 18.8811C17.7285 20.0913 16.139 20.6964 14.5494 20.6964ZM14.5494 10.7413C13.5886 10.7413 12.6277 11.107 11.8962 11.8385C10.4331 13.3016 10.4331 15.6821 11.8962 17.1453C12.6047 17.8538 13.5471 18.244 14.5494 18.244C15.5517 18.244 16.494 17.8538 17.2026 17.1453C18.6657 15.6821 18.6657 13.3016 17.2026 11.8385C16.4711 11.107 15.5102 10.7413 14.5494 10.7413Z" fill="#51A5F2"/>
<path d="M14.5625 41.9269L13.6132 40.8118C13.0576 40.1588 0 24.7038 0 14.6214C0 6.59946 6.52622 0.0732422 14.5481 0.0732422C22.57 0.0732422 29.0963 6.59946 29.0963 14.6214C29.0963 24.2079 16.0502 40.1247 15.4949 40.7975L14.5625 41.9269ZM14.5481 2.52848C7.88013 2.52848 2.45524 7.95337 2.45524 14.6214C2.45524 18.3689 4.68982 23.7922 8.9176 30.3053C11.1116 33.6853 13.321 36.5477 14.5347 38.0625C15.7504 36.5062 17.9808 33.5496 20.1886 30.1054C24.4099 23.5208 26.641 18.1661 26.641 14.6214C26.641 7.95337 21.2161 2.52848 14.5481 2.52848Z" fill="#51A5F2"/>
</svg>
