<svg width="60" height="67" viewBox="0 0 60 67" fill="none" xmlns="http://www.w3.org/2000/svg">
<path d="M40.3076 7.78529V5.84668M44.1847 9.7239V7.78529" stroke="#51A5F2" stroke-width="2" stroke-miterlimit="22.9256"/>
<path d="M11.533 25.2888C14.1485 38.7753 30.678 44.5354 32.8764 35.7582C34.2357 30.3315 28.659 19.6159 22.5876 21.3717C18.9947 22.4107 16.9885 27.5974 21.1871 33.1161C24.5094 37.4829 31.0383 40.8771 35.7521 40.6552C46.2235 40.1623 49.9492 22.9619 30.1848 12.8182C20.6285 7.91365 15.5605 13.6195 17.6627 20.1469C22.3098 34.5763 42.0575 37.2729 47.2145 30.6025C52.7347 23.4623 42.6692 10.6819 32.015 9.51133C25.7541 8.82351 24.6128 16.6167 34.6347 22.2379C45.039 28.0735 50.622 24.0811 53.0348 22.0434" stroke="#51A5F2" stroke-width="2" stroke-miterlimit="22.9256"/>
<path d="M40.3843 65.2326H45.2307V60.8927C45.2307 57.1614 45.2226 52.3437 50.5169 47.2985C55.7031 42.3565 59 35.4256 59 27.6958C59.0001 11.7544 46.0383 1 30.6146 1C23.5626 1 17.506 3.81331 13.0778 8.26746M11.7224 9.74183C7.60514 14.581 5.2182 20.9674 5.2182 27.6958L1.11985 42.6531C0.613097 44.5026 1.79746 45.5314 3.094 45.5314H8.04611V56.595H19.7545V65.2326H38.4457" stroke="#51A5F2" stroke-width="2" stroke-miterlimit="22.9256"/>
</svg>
