<svg width="75" height="70" viewBox="0 0 75 70" fill="none" xmlns="http://www.w3.org/2000/svg">
<path d="M48.7451 15.8343L50.0688 8.50087C50.1019 8.32917 50.3414 8.31313 50.3972 8.47884L52.5504 15.7771C52.6026 15.9326 52.8229 15.9315 52.8735 15.7755L54.9533 8.48015C55.0073 8.31386 55.2468 8.32742 55.2818 8.49868L56.6838 15.8343" stroke="#51A5F2" stroke-width="2" stroke-miterlimit="10" stroke-linecap="round" stroke-linejoin="round"/>
<path d="M60.187 18.8905C59.9665 18.6083 60.5632 19.628 62.4818 19.5487C64.6387 19.4595 64.5416 17.0285 64.5416 17.0285V11.0872" stroke="#51A5F2" stroke-width="2" stroke-miterlimit="10" stroke-linecap="round" stroke-linejoin="round"/>
<path d="M62.0013 16.1689C63.4046 16.1689 64.5422 15.0313 64.5422 13.628C64.5422 12.2247 63.4046 11.0872 62.0013 11.0872C60.598 11.0872 59.4604 12.2247 59.4604 13.628C59.4604 15.0313 60.598 16.1689 62.0013 16.1689Z" stroke="#51A5F2" stroke-width="2" stroke-miterlimit="10" stroke-linecap="round" stroke-linejoin="round"/>
<path d="M18.8385 27.3296L17.4105 29.5397C16.0174 31.6961 15.0697 33.956 14.52 36.2391" stroke="#51A5F2" stroke-width="2" stroke-miterlimit="10" stroke-linecap="round" stroke-linejoin="round"/>
<path d="M56.7618 44.214C57.4674 39.3814 56.5331 34.217 53.511 29.5395L36.4923 3.19806C36.0085 2.44928 34.9133 2.44928 34.4294 3.19806L30.2778 9.62387" stroke="#51A5F2" stroke-width="2" stroke-miterlimit="10" stroke-linecap="round" stroke-linejoin="round"/>
<path d="M20.1431 56.2927C23.9361 60.1775 29.2473 62.6908 35.4607 62.6908H35.4609C40.2596 62.6908 44.5207 61.1925 47.9599 58.721" stroke="#51A5F2" stroke-width="2" stroke-miterlimit="10" stroke-linecap="round" stroke-linejoin="round"/>
<path d="M13.9392 41.3445C13.9526 42.7612 14.1073 44.1638 14.3952 45.5329" stroke="#51A5F2" stroke-width="2" stroke-miterlimit="10" stroke-linecap="round" stroke-linejoin="round"/>
<path d="M21.2046 33.6819V44.2602" stroke="#51A5F2" stroke-width="2" stroke-miterlimit="10" stroke-linecap="round" stroke-linejoin="round"/>
<path d="M28.5247 33.6816V44.2599" stroke="#51A5F2" stroke-width="2" stroke-miterlimit="10" stroke-linecap="round" stroke-linejoin="round"/>
<path d="M21.2048 38.7893H28.5252" stroke="#51A5F2" stroke-width="2" stroke-miterlimit="10" stroke-linecap="round" stroke-linejoin="round"/>
<path d="M45.5955 43.7956C48.5167 43.7956 50.8847 41.4276 50.8847 38.5064C50.8847 35.5853 48.5167 33.2173 45.5955 33.2173C42.6744 33.2173 40.3064 35.5853 40.3064 38.5064C40.3064 41.4276 42.6744 43.7956 45.5955 43.7956Z" stroke="#51A5F2" stroke-width="2" stroke-miterlimit="10" stroke-linecap="round" stroke-linejoin="round"/>
<path d="M37.9712 51.5002C37.9712 51.5002 33.6654 51.5543 33.4615 51.4863C33.2575 51.4183 33.7885 51.0592 36.6115 47.0256C37.1387 46.2723 37.429 45.6367 37.5524 45.1043L37.5962 44.7619C37.5962 43.5111 36.5823 42.4973 35.3316 42.4973C34.2311 42.4973 33.314 43.2823 33.1096 44.3229" stroke="#51A5F2" stroke-width="2" stroke-miterlimit="10" stroke-linecap="round" stroke-linejoin="round"/>
<path d="M9.61426 49.897V57.8628" stroke="#51A5F2" stroke-width="2" stroke-miterlimit="10" stroke-linecap="round" stroke-linejoin="round"/>
<path d="M13.8991 49.9976L9.86914 53.7021L14.1819 57.8629" stroke="#51A5F2" stroke-width="2" stroke-miterlimit="10" stroke-linecap="round" stroke-linejoin="round"/>
<path d="M58.8137 52.7335C58.1777 52.3037 57.411 52.053 56.5856 52.053C54.3848 52.053 52.6006 53.8372 52.6006 56.038C52.6006 58.2388 54.3848 60.023 56.5856 60.023C57.4795 60.023 58.2147 59.7288 58.7727 59.2318C58.8881 59.129 58.9961 59.0175 59.0961 58.898" stroke="#51A5F2" stroke-width="2" stroke-miterlimit="10" stroke-linecap="round" stroke-linejoin="round"/>
<path d="M64.4928 59.6657C65.9779 59.6657 67.1818 58.4618 67.1818 56.9767C67.1818 55.4915 65.9779 54.2876 64.4928 54.2876C63.0076 54.2876 61.8037 55.4915 61.8037 56.9767C61.8037 58.4618 63.0076 59.6657 64.4928 59.6657Z" stroke="#51A5F2" stroke-width="2" stroke-miterlimit="10" stroke-linecap="round" stroke-linejoin="round"/>
<path d="M67.1819 53.9299V60.0231" stroke="#51A5F2" stroke-width="2" stroke-miterlimit="10" stroke-linecap="round" stroke-linejoin="round"/>
<path d="M59.8912 68.2682C66.6457 68.2682 72.1212 62.7926 72.1212 56.0382C72.1212 49.2837 66.6457 43.8081 59.8912 43.8081C53.1367 43.8081 47.6611 49.2837 47.6611 56.0382C47.6611 62.7926 53.1367 68.2682 59.8912 68.2682Z" stroke="#51A5F2" stroke-width="2" stroke-miterlimit="10" stroke-linecap="round" stroke-linejoin="round"/>
<path d="M15.6888 45.5327H8.10688C7.47057 45.5327 6.88255 45.8722 6.56439 46.4233L2.77353 52.9893C2.45537 53.5404 2.45537 54.2193 2.77353 54.7704L6.56439 61.3364C6.88255 61.8875 7.47057 62.227 8.10688 62.227H15.6886C16.3249 62.227 16.9129 61.8875 17.2311 61.3364L21.022 54.7704C21.3401 54.2193 21.3401 53.5404 21.022 52.9893L17.2311 46.4233C16.9131 45.8722 16.3251 45.5327 15.6888 45.5327Z" stroke="#51A5F2" stroke-width="2" stroke-miterlimit="10" stroke-linecap="round" stroke-linejoin="round"/>
<path d="M6.36108 17.4207C7.60759 23.089 12.6588 27.3311 18.7016 27.3311C25.6804 27.3311 31.3377 21.6736 31.3377 14.6949C31.3377 7.71623 25.6804 2.05859 18.7016 2.05859C12.5364 2.05859 7.40336 6.4741 6.29004 12.3151" stroke="#51A5F2" stroke-width="2" stroke-miterlimit="10" stroke-linecap="round" stroke-linejoin="round"/>
<path d="M11.4102 18.6862V10.3997L17.0126 18.5125C17.1165 18.6626 17.2278 18.589 17.2278 18.4065L17.1502 10.3843" stroke="#51A5F2" stroke-width="2" stroke-miterlimit="10" stroke-linecap="round" stroke-linejoin="round"/>
<path d="M23.1907 18.3139C24.7378 18.3139 25.9918 17.0598 25.9918 15.5128C25.9918 13.9658 24.7378 12.7117 23.1907 12.7117C21.6437 12.7117 20.3896 13.9658 20.3896 15.5128C20.3896 17.0598 21.6437 18.3139 23.1907 18.3139Z" stroke="#51A5F2" stroke-width="2" stroke-miterlimit="10" stroke-linecap="round" stroke-linejoin="round"/>
<path d="M25.9919 12.3389V18.6861" stroke="#51A5F2" stroke-width="2" stroke-miterlimit="10" stroke-linecap="round" stroke-linejoin="round"/>
<path d="M5.41288 37.9757C7.85004 37.9757 9.82575 35.9999 9.82575 33.5628C9.82575 31.1256 7.85004 29.1499 5.41288 29.1499C2.97571 29.1499 1 31.1256 1 33.5628C1 35.9999 2.97571 37.9757 5.41288 37.9757Z" stroke="#51A5F2" stroke-width="2" stroke-miterlimit="10" stroke-linecap="round" stroke-linejoin="round"/>
<path d="M70.4699 31.0347H66.347C66.001 31.0347 65.6813 31.2193 65.5083 31.519L63.4469 35.0894C63.2739 35.389 63.2739 35.7583 63.4469 36.058L65.5083 39.6285C65.6813 39.9281 66.001 40.1128 66.347 40.1128H70.4699C70.8159 40.1128 71.1357 39.9281 71.3087 39.6285L73.3701 36.058C73.5431 35.7584 73.5431 35.3892 73.3701 35.0894L71.3087 31.519C71.1357 31.2193 70.8159 31.0347 70.4699 31.0347Z" stroke="#51A5F2" stroke-width="2" stroke-miterlimit="10" stroke-linecap="round" stroke-linejoin="round"/>
<path d="M51.8152 26.9149H62.9395C63.6727 26.9149 64.3503 26.5237 64.7168 25.8888L71.013 14.9836C71.3796 14.3486 71.3796 13.5663 71.013 12.9313L64.7168 2.02609C64.3503 1.39109 63.6727 1 62.9395 1H58.8394" stroke="#51A5F2" stroke-width="2" stroke-miterlimit="10" stroke-linecap="round" stroke-linejoin="round"/>
<path d="M53.7338 1H50.3474C49.6143 1 48.9367 1.39124 48.5701 2.02609L42.5132 12.5172" stroke="#51A5F2" stroke-width="2" stroke-miterlimit="10" stroke-linecap="round" stroke-linejoin="round"/>
</svg>
