<svg width="63" height="68" viewBox="0 0 63 68" fill="none" xmlns="http://www.w3.org/2000/svg">
<path d="M18.8169 13.8997L21.0656 12.7753L22.0712 14.7866L19.8225 15.9109L18.8169 13.8997Z" fill="#51A5F2"/>
<path d="M26.0823 57.6522H14.8337V48.6533H12.584V59.9019H13.7088V67.776H15.9586V59.9019H24.9575V67.776H27.2072V59.9019H28.3321V48.6533H26.0823V57.6522Z" fill="#51A5F2"/>
<path d="M58.7034 41.001L55.8955 45.2128C55.5255 45.7668 55.3282 46.4183 55.3289 47.0845V47.5283C55.3289 48.4233 55.6844 49.2816 56.3173 49.9144C56.9501 50.5473 57.8085 50.9028 58.7034 50.9028C59.5984 50.9028 60.4568 50.5473 61.0896 49.9144C61.7225 49.2816 62.078 48.4233 62.078 47.5283V47.0845C62.0787 46.4182 61.8814 45.7667 61.5113 45.2127L58.7034 41.001ZM59.8283 47.5283C59.8283 47.8266 59.7098 48.1127 59.4988 48.3237C59.2879 48.5346 59.0018 48.6531 58.7034 48.6531C58.4051 48.6531 58.119 48.5346 57.908 48.3237C57.6971 48.1127 57.5786 47.8266 57.5786 47.5283V47.0845C57.5784 46.8624 57.6441 46.6453 57.7675 46.4606L58.7034 45.0566L59.6394 46.4605C59.7627 46.6452 59.8285 46.8624 59.8283 47.0845V47.5283Z" fill="#51A5F2"/>
<path d="M48.5797 55.6245L45.7718 59.8363C45.4017 60.3903 45.2044 61.0418 45.2051 61.7081V62.1518C45.2051 63.0468 45.5606 63.9051 46.1935 64.538C46.8263 65.1708 47.6847 65.5264 48.5797 65.5264C49.4747 65.5264 50.333 65.1708 50.9659 64.538C51.5987 63.9051 51.9543 63.0468 51.9543 62.1518V61.7081C51.9549 61.0418 51.7576 60.3903 51.3875 59.8362L48.5797 55.6245ZM49.7045 62.1518C49.7045 62.4501 49.586 62.7362 49.3751 62.9472C49.1641 63.1581 48.878 63.2767 48.5797 63.2767C48.2813 63.2767 47.9952 63.1581 47.7843 62.9472C47.5733 62.7362 47.4548 62.4501 47.4548 62.1518V61.7081C47.4546 61.486 47.5203 61.2688 47.6437 61.0841L48.5797 59.6802L49.5156 61.0841C49.639 61.2688 49.7047 61.4859 49.7045 61.7081V62.1518Z" fill="#51A5F2"/>
<path d="M59.8283 28.4055V27.9617C59.8289 27.2954 59.6317 26.6439 59.2615 26.0899L56.4537 21.8782L53.6458 26.09C53.2757 26.644 53.0785 27.2955 53.0791 27.9617V28.4055C53.0791 29.3005 53.4346 30.1588 54.0675 30.7916C54.7004 31.4245 55.5587 31.78 56.4537 31.78C57.3487 31.78 58.207 31.4245 58.8399 30.7916C59.4727 30.1588 59.8283 29.3005 59.8283 28.4055ZM55.3288 28.4055V27.9617C55.3286 27.7396 55.3944 27.5225 55.5177 27.3378L56.4537 25.9338L57.3896 27.3377C57.513 27.5224 57.5787 27.7396 57.5786 27.9617V28.4055C57.5786 28.7038 57.46 28.9899 57.2491 29.2009C57.0381 29.4118 56.752 29.5303 56.4537 29.5303C56.1554 29.5303 55.8692 29.4118 55.6583 29.2009C55.4473 28.9899 55.3288 28.7038 55.3288 28.4055Z" fill="#51A5F2"/>
<path d="M48.7674 21.2322L60.4752 16.7291C61.2867 16.4185 61.9467 15.8064 62.3176 15.0206C62.6884 14.2348 62.7413 13.3362 62.4652 12.5123L60.4819 6.5623C60.1988 5.71325 59.5901 5.01141 58.7896 4.61116C57.9891 4.21091 57.0624 4.14505 56.2134 4.42805L32.418 12.3598C31.9216 12.5266 31.4706 12.8061 31.1003 13.1764C30.73 13.5467 30.4506 13.9977 30.2838 14.4941L29.9581 15.4712L25.9357 13.0578L24.0219 5.40271C24.6382 4.25319 24.9596 2.96873 24.9574 1.66444V0L9.63132 3.48314C6.46467 4.20285 3.70787 6.1386 1.95571 8.87276C0.203545 11.6069 -0.403535 14.9203 0.265445 18.098L0.4905 19.167C1.14375 22.2391 2.58681 25.0878 4.67725 27.4318C6.7677 29.7759 9.43326 31.5343 12.4109 32.5335L13.2991 32.8296L13.565 33.7158C9.31294 38.1075 6.94297 43.9853 6.95963 50.0981V67.7761H9.20935V50.0981C9.19394 44.6542 11.2712 39.4126 15.0115 35.4571L28.035 43.416C29.8387 44.5267 31.3292 46.0793 32.3653 47.9269C33.4015 49.7744 33.9491 51.8558 33.9563 53.9741V67.7761H36.2061V53.9741C36.2054 53.2405 36.1487 52.5081 36.0364 51.7831L47.4649 48.2118C49.3549 47.6211 50.953 46.34 51.9407 44.6237C52.9285 42.9075 53.2333 40.8821 52.7945 38.9511L48.7674 21.2322ZM44.4083 10.7345L44.7517 12.1082C44.8188 12.3762 44.7849 12.6595 44.6565 12.904C44.5281 13.1486 44.3141 13.3373 44.0554 13.4342L39.297 15.2187C39.1486 15.2743 38.9901 15.298 38.8319 15.2881C38.6737 15.2782 38.5194 15.235 38.379 15.1613C38.2387 15.0876 38.1155 14.9851 38.0176 14.8605C37.9196 14.7359 37.8491 14.592 37.8107 14.4382L37.4635 13.0494L44.4083 10.7345ZM31.7066 19.0929V17.3397L32.418 15.2055C32.4736 15.04 32.5668 14.8897 32.6902 14.7663C32.8136 14.6428 32.964 14.5497 33.1294 14.4941L35.3229 13.7629L35.6281 14.9838C35.7436 15.445 35.9552 15.8766 36.249 16.2504C36.5429 16.6241 36.9124 16.9316 37.3333 17.1527C37.7543 17.3737 38.2172 17.5033 38.6917 17.5331C39.1662 17.5628 39.6416 17.492 40.0869 17.3252L44.8453 15.5407C45.6214 15.25 46.2633 14.6838 46.6486 13.9501C47.0339 13.2163 47.1356 12.3664 46.9343 11.5625L46.5489 10.0209L56.9248 6.5623C57.2078 6.46829 57.5166 6.49041 57.7833 6.62378C58.0501 6.75715 58.253 6.99089 58.3476 7.27371L60.331 13.2237C60.423 13.4983 60.4054 13.7979 60.2818 14.0598C60.1582 14.3217 59.9381 14.5258 59.6677 14.6293L47.0739 19.4731L44.7879 20.2351C44.6181 19.797 44.3587 19.3992 44.0264 19.0671C43.694 18.735 43.2959 18.476 42.8576 18.3066C42.4194 18.1373 41.9506 18.0613 41.4812 18.0836C41.0119 18.1059 40.5524 18.2259 40.1322 18.436L39.5116 18.7463C38.8423 19.0808 38.3032 19.6283 37.9791 20.3027C37.655 20.9771 37.5642 21.7401 37.7211 22.4717L37.8566 23.1041L34.9164 23.6922C34.7348 23.7286 34.547 23.7196 34.3698 23.666C34.1925 23.6123 34.0313 23.5156 33.9004 23.3846L32.0104 21.4946L29.2376 22.4189L28.5846 20.1336L31.7066 19.0929ZM12.5038 30.1784C10.041 29.2359 7.85312 27.6923 6.13942 25.6881C4.42571 23.6839 3.24061 21.2829 2.69203 18.7036L2.46697 17.6346C1.91958 15.0346 2.41625 12.3237 3.84984 10.0866C5.28342 7.8496 7.53899 6.26581 10.1299 5.67697L22.5846 2.84635C22.3632 3.89282 21.8465 4.8539 21.0956 5.61571C20.3448 6.37753 19.3913 6.90815 18.3481 7.14471L14.2779 8.08399C12.5629 8.47125 11.0682 9.5155 10.1146 10.9925C9.16093 12.4696 8.82445 14.2616 9.17736 15.984L9.4121 17.1573H10.947C11.4799 17.1573 11.9953 17.3469 12.4011 17.6921C12.8069 18.0374 13.0767 18.5158 13.162 19.0418C13.2474 19.5677 13.1428 20.1069 12.867 20.5628C12.5912 21.0187 12.1622 21.3615 11.6567 21.53L10.068 22.0595L12.5038 30.1784ZM22.9236 29.6946L24.552 38.6509L15.7874 33.2948L12.8418 23.476C13.742 23.0574 14.4782 22.3525 14.9356 21.4714C15.3929 20.5902 15.5455 19.5824 15.3697 18.6053C15.1938 17.6283 14.6994 16.7369 13.9636 16.0705C13.2277 15.4041 12.2919 15.0001 11.3023 14.9216C11.2357 13.8598 11.5495 12.809 12.1875 11.9577C12.8255 11.1064 13.746 10.5102 14.7838 10.276L18.854 9.33676C20.1118 9.04864 21.2797 8.4562 22.2551 7.61143L23.9792 14.5075L29.1111 17.5866L25.8297 18.6804L27.7051 25.2444C27.7478 25.3938 27.7591 25.5504 27.7382 25.7044C27.7174 25.8584 27.6649 26.0064 27.584 26.139C27.5031 26.2717 27.3956 26.3862 27.2682 26.4752C27.1409 26.5642 26.9965 26.6259 26.8441 26.6564L24.6959 27.0861C24.1188 27.2043 23.6107 27.543 23.2797 28.0302C22.9486 28.5174 22.8209 29.1146 22.9236 29.6946ZM25.137 29.2922L27.2853 28.8624C27.7424 28.771 28.1756 28.5859 28.5576 28.3188C28.9396 28.0516 29.2621 27.7082 29.5048 27.3102C29.7474 26.9122 29.905 26.4683 29.9676 26.0064C30.0302 25.5444 29.9963 25.0746 29.8683 24.6264L29.8562 24.5841L31.4028 24.0685L32.3096 24.9753C32.7022 25.3685 33.1859 25.6585 33.7177 25.8195C34.2495 25.9805 34.8128 26.0076 35.3575 25.8982L38.328 25.3041L40.2591 34.3158C40.3213 34.6075 40.2652 34.9119 40.1032 35.1623C39.9412 35.4127 39.6864 35.5886 39.3949 35.6514L26.7846 38.3536L25.137 29.2922ZM35.5214 49.5871C34.4565 46.2197 32.2156 43.3479 29.2081 41.4963L27.5588 40.4885L39.0209 38.0323L42.4368 47.426L35.5214 49.5871ZM46.7938 46.0645L44.5864 46.7542L41.1416 37.2809C41.6708 36.8976 42.0771 36.3686 42.311 35.7584C42.5448 35.1483 42.5962 34.4833 42.4589 33.8444L39.9208 22.0003C39.8685 21.7565 39.8988 21.5022 40.0068 21.2774C40.1148 21.0526 40.2945 20.8701 40.5176 20.7585L41.1382 20.4483C41.2823 20.3762 41.4403 20.336 41.6013 20.3303C41.7624 20.3245 41.9228 20.3535 42.0717 20.4152C42.2206 20.4768 42.3545 20.5698 42.4644 20.6877C42.5742 20.8056 42.6574 20.9458 42.7084 21.0987C42.8841 21.6236 43.2608 22.0575 43.756 22.305C44.2511 22.5526 44.8242 22.5937 45.3496 22.4193L46.6329 21.9915L50.6007 39.4497C50.9072 40.8285 50.6865 42.2722 49.9819 43.4964C49.2773 44.7207 48.14 45.6368 46.7938 46.0645Z" fill="#51A5F2"/>
</svg>
