<svg width="21" height="21" viewBox="0 0 21 21" fill="none" xmlns="http://www.w3.org/2000/svg">
<path fill-rule="evenodd" clip-rule="evenodd" d="M6.62638 1.90735C8.21224 1.83537 13.4293 1.81738 14.8891 1.96133C16.2947 2.09628 17.0786 2.55513 17.7274 3.31986C18.3942 4.11159 18.5473 5.30818 18.6014 6.63073C18.6645 8.22319 18.6915 13.4054 18.5473 14.8539C18.4032 16.2664 17.9256 17.0582 17.1687 17.6789C16.3398 18.3627 15.2134 18.5067 13.8889 18.5606C12.321 18.6236 7.05889 18.6416 5.64423 18.4977C4.20254 18.3537 3.44566 17.9039 2.80591 17.1391C2.10308 16.3024 1.98595 15.1598 1.92287 13.8283C1.85079 12.3438 1.84178 6.9996 1.97694 5.61408C2.11209 4.27354 2.58064 3.40084 3.33753 2.78905C4.18452 2.09628 5.29282 1.97033 6.62638 1.90735ZM0.0576894 13.7743C0.138784 15.4567 0.264932 16.6353 1.03984 17.8679C1.70662 18.9115 2.76085 19.6673 3.97728 20.0451C5.34688 20.468 7.18503 20.432 8.69881 20.432C10.3748 20.432 12.1048 20.468 13.7717 20.405C15.5108 20.333 16.6551 20.2071 17.9076 19.4154C18.8447 18.8126 19.6646 17.8499 20.0881 16.4914C20.5387 15.0518 20.4486 13.3154 20.4486 11.741C20.4486 10.0496 20.4486 8.35814 20.4486 6.66672C20.4396 5.11025 20.1963 3.66175 19.4484 2.55513C19.088 2.01531 18.7095 1.61945 18.2139 1.24158C17.7454 0.881698 17.1687 0.602794 16.511 0.386868C15.2044 -0.0179938 13.2311 0.00899692 11.7714 0.00899692C10.0954 0.00899692 8.36542 -0.0269908 6.69846 0.0449846C5.03151 0.107963 3.79707 0.260911 2.58064 1.04364C-0.0774689 2.74406 0.0396683 5.80301 0.0306578 8.70902C0.0216473 10.3645 -0.0143949 12.1189 0.0576894 13.7743Z" fill="white"/>
<path fill-rule="evenodd" clip-rule="evenodd" d="M7.78906 9.0124V10.7956H9.42271V15.3315H10.9046V10.7869L12.5165 10.7956C12.5599 10.207 12.6466 9.60968 12.6972 9.0124H10.9046C10.9046 8.88256 10.9046 8.91718 10.9046 8.69212C10.9046 7.80918 10.9262 7.3504 11.1503 7.04743C11.4033 6.70118 11.8009 6.70983 12.5816 6.71849H12.8852L12.8996 5.16902C12.3358 5.10842 11.7937 5.08246 11.3021 5.15171C10.7817 5.23827 10.3335 5.43736 10.0154 5.85286C9.44439 6.60596 9.40102 7.47159 9.40825 8.57093C9.41548 8.80465 9.42271 8.83927 9.42271 9.0124H7.78906Z" fill="white"/>
</svg>
