<svg width="73" height="30" viewBox="0 0 73 30" fill="none" xmlns="http://www.w3.org/2000/svg">
<path d="M34.5042 14.1448V22.6284H31.7676V1.64746H38.8828C40.616 1.64746 42.258 2.28601 43.5351 3.47189C44.8122 4.56654 45.4508 6.20852 45.4508 7.94173C45.4508 9.67493 44.8122 11.2257 43.5351 12.4116C42.258 13.5974 40.7073 14.236 38.8828 14.236L34.5042 14.1448ZM34.5042 4.20166V11.4994H39.0653C40.0687 11.4994 41.0721 11.1345 41.7107 10.4047C43.1702 9.03638 43.1702 6.75585 41.8019 5.38753L41.7107 5.29631C40.9809 4.56654 40.0687 4.11044 39.0653 4.20166H34.5042Z" fill="white"/>
<path d="M51.7454 7.84961C53.7523 7.84961 55.3031 8.39694 56.4889 9.49159C57.6748 10.5862 58.2221 12.0458 58.2221 13.8702V22.6275H55.668V20.6206H55.5767C54.4821 22.2626 52.9313 23.0836 51.1069 23.0836C49.5561 23.0836 48.1878 22.6275 47.0932 21.7152C46.0897 20.803 45.4512 19.5259 45.4512 18.1576C45.4512 16.6981 45.9985 15.5122 47.0932 14.6C48.1878 13.6878 49.7386 13.3229 51.563 13.3229C53.205 13.3229 54.4821 13.5965 55.4855 14.2351V13.5965C55.4855 12.6843 55.1206 11.7721 54.3909 11.2248C53.6611 10.5862 52.7489 10.2214 51.7454 10.2214C50.1947 10.2214 49.0088 10.8599 48.1878 12.137L45.8161 10.6775C47.2756 8.76182 49.1912 7.84961 51.7454 7.84961ZM48.279 18.2488C48.279 18.9786 48.6439 19.6172 49.1912 19.982C49.8298 20.4381 50.5596 20.7118 51.2893 20.7118C52.384 20.7118 53.4786 20.2557 54.2996 19.4347C55.2118 18.6137 55.668 17.6103 55.668 16.5156C54.847 15.8771 53.6611 15.5122 52.1103 15.5122C51.0157 15.5122 50.1035 15.7859 49.3737 16.3332C48.6439 16.7893 48.279 17.4278 48.279 18.2488Z" fill="white"/>
<path d="M73.0004 8.30566L63.9695 29.0129H61.2329L64.6081 21.8064L58.6787 8.39688H61.5978L65.8852 18.7049H65.9764L70.1726 8.39688H73.0004V8.30566Z" fill="white"/>
<path d="M23.6496 12.3204C23.6496 11.4994 23.5583 10.6784 23.4671 9.85742H12.0645V14.5097H18.5412C18.2675 15.9692 17.4465 17.3376 16.1694 18.1586V21.1689H20.0919C22.3725 19.0708 23.6496 15.9692 23.6496 12.3204Z" fill="white"/>
<path d="M12.0646 24.0878C15.3486 24.0878 18.0853 22.9932 20.0921 21.1687L16.1696 18.1584C15.075 18.8882 13.7066 19.3443 12.0646 19.3443C8.96312 19.3443 6.22649 17.2462 5.31427 14.3271H1.30054V17.4287C3.39863 21.5336 7.50358 24.0878 12.0646 24.0878Z" fill="white"/>
<path d="M5.31364 14.3273C4.76631 12.8678 4.76631 11.2258 5.31364 9.67501V6.57349H1.2999C-0.433301 9.94867 -0.433301 13.9624 1.2999 17.4288L5.31364 14.3273Z" fill="white"/>
<path d="M12.0645 4.74841C13.7977 4.74841 15.4397 5.38696 16.7168 6.57284L20.1832 3.10643C17.9939 1.09956 15.0748 -0.0863134 12.1557 0.00490783C7.59465 0.00490783 3.39847 2.5591 1.3916 6.66406L5.40534 9.76558C6.22633 6.8465 8.96297 4.74841 12.0645 4.74841Z" fill="white"/>
</svg>
