<svg width="21" height="21" viewBox="0 0 21 21" fill="none" xmlns="http://www.w3.org/2000/svg">
<path fill-rule="evenodd" clip-rule="evenodd" d="M7.16886 1.90735C8.75472 1.83537 13.9718 1.81738 15.4315 1.96133C16.8372 2.09628 17.6301 2.55513 18.2699 3.31986C18.9366 4.11159 19.0898 5.30818 19.1439 6.63073C19.207 8.22319 19.234 13.4054 19.0898 14.8539C18.9456 16.2664 18.4681 17.0582 17.7112 17.6789C16.8822 18.3627 15.7559 18.5067 14.4314 18.5606C12.8635 18.6236 7.61038 18.6416 6.18671 18.4977C4.74502 18.3537 3.98814 17.9039 3.34839 17.1391C2.64556 16.3024 2.52843 15.1598 2.46535 13.8283C2.39327 12.3438 2.38426 6.9996 2.51942 5.61408C2.65458 4.27354 3.12312 3.40084 3.88001 2.78905C4.727 2.09628 5.8353 1.97033 7.16886 1.90735ZM0.60017 13.7743C0.681265 15.4567 0.807413 16.6353 1.59133 17.8679C2.2491 18.9115 3.30333 19.6673 4.51976 20.0451C5.88936 20.468 7.72751 20.432 9.24129 20.432C10.9172 20.432 12.6473 20.468 14.3142 20.405C16.0533 20.333 17.1976 20.2071 18.4501 19.4154C19.3872 18.8126 20.2071 17.8499 20.6306 16.4914C21.0811 15.0518 20.991 13.3154 20.991 11.741C20.991 10.0496 20.991 8.35814 20.991 6.66672C20.982 5.11025 20.7387 3.66175 19.9909 2.55513C19.6304 2.01531 19.252 1.61945 18.7564 1.24158C18.2879 0.881698 17.7202 0.602794 17.0534 0.386868C15.7469 -0.0179938 13.7736 0.00899692 12.3139 0.00899692C10.6379 0.00899692 8.9079 -0.0269908 7.24094 0.0449846C5.57399 0.107963 4.33955 0.260911 3.12312 1.04364C0.465012 2.74406 0.582149 5.80301 0.573138 8.70902C0.564128 10.3645 0.528086 12.1189 0.60017 13.7743Z" fill="white"/>
<path fill-rule="evenodd" clip-rule="evenodd" d="M10.4125 6.93402C12.3574 6.68882 13.873 8.16877 14.0657 9.84139C14.3022 11.7855 12.8392 13.3092 11.1572 13.5106C9.21234 13.7383 7.67924 12.2846 7.4865 10.5945C7.25873 8.62414 8.71299 7.14419 10.4125 6.93402ZM5.68182 10.5244C5.87455 13.2216 8.11727 15.4897 11.0433 15.3234C13.7679 15.1657 16.0544 12.8714 15.8792 9.94647C15.7215 7.20549 13.3999 4.93739 10.4651 5.12129C7.78436 5.29643 5.46281 7.60832 5.68182 10.5244Z" fill="white"/>
<path fill-rule="evenodd" clip-rule="evenodd" d="M15.6624 4.12265C15.1732 4.242 14.7517 4.72685 14.8947 5.34597C15.0152 5.83082 15.4969 6.24108 16.1216 6.10681C17.4312 5.83082 16.9947 3.80191 15.6624 4.12265Z" fill="white"/>
</svg>
