<svg xmlns="http://www.w3.org/2000/svg" viewBox="0 0 82 82" height="82" width="82"><g xmlns="http://www.w3.org/2000/svg" transform="matrix(-1 0 0 -1 82 82)"><circle cx="41" cy="41" r="41" fill="#F80505" /><path d="M19.2929 40.2929C18.9024 40.6834 18.9024 41.3166 19.2929 41.7071L25.6569 48.0711C26.0474 48.4616 26.6805 48.4616 27.0711 48.0711C27.4616 47.6805 27.4616 47.0474 27.0711 46.6569L21.4142 41L27.0711 35.3431C27.4616 34.9526 27.4616 34.3195 27.0711 33.9289C26.6805 33.5384 26.0474 33.5384 25.6569 33.9289L19.2929 40.2929ZM62 40L20 40L20 42L62 42L62 40Z" fill="white" /></g></svg>