<svg width="206" height="21" viewBox="0 0 206 21" fill="none" xmlns="http://www.w3.org/2000/svg">
<path d="M24.9305 19.895H18.3198L17.201 17.0795H8.28462L7.16588 19.895H0.555176L9.06479 0.333245H16.3874L24.9305 19.895ZM15.6072 12.6808L12.7261 5.31938L9.84496 12.6808H15.6086H15.6072ZM54.7349 19.895H48.0559L44.2581 13.3258H41.2752V19.895H35.4447V0.333245H46.7672C49.2081 0.333245 51.1297 0.94882 52.5308 2.1813C53.9319 3.41378 54.6331 4.96743 54.6331 6.84492C54.6331 8.40928 54.1862 9.68458 53.2936 10.6722C52.401 11.6598 51.3439 12.3396 50.1234 12.7103L54.7335 19.8964L54.7349 19.895ZM45.8867 8.92583C46.6776 8.92583 47.344 8.73982 47.8873 8.36914C48.4293 7.99712 48.7009 7.47923 48.7009 6.81415C48.7009 6.16914 48.4306 5.66062 47.8873 5.2886C47.344 4.91658 46.6776 4.73191 45.8867 4.73191H41.2752V8.92583H45.8867ZM77.7934 20.247C74.29 20.247 71.374 19.3036 69.0456 17.4167C66.7171 15.5298 65.5542 13.101 65.5542 10.1289C65.5542 7.13799 66.7117 4.70247 69.0295 2.82631C71.3459 0.948817 74.2672 0.0107422 77.7934 0.0107422C82.3366 0.0107422 85.6245 1.7611 87.6586 5.2605L82.6403 7.31329C82.2563 6.51171 81.6179 5.83726 80.724 5.28994C79.8314 4.74261 78.8546 4.46828 77.792 4.46828C75.9614 4.46828 74.4519 5.01026 73.2662 6.09554C72.0793 7.18082 71.4864 8.5257 71.4864 10.1289C71.4864 11.732 72.0793 13.0769 73.2662 14.1622C74.4532 15.2475 75.9614 15.7908 77.792 15.7908C78.8546 15.7908 79.8314 15.5165 80.724 14.9691C81.6166 14.4218 82.2549 13.7474 82.6403 12.9458L87.6586 14.9986C86.7994 16.484 85.5616 17.7312 83.9464 18.7388C82.3299 19.7452 80.2797 20.2497 77.7934 20.2497V20.247ZM120.717 19.895H114.107L112.988 17.0795H104.072L102.953 19.895H96.3421L104.852 0.333245H112.174L120.717 19.895ZM111.394 12.6808L108.513 5.31938L105.632 12.6808H111.396H111.394ZM140.758 19.895H131.232V0.333245H140.724C144.339 0.333245 147.283 1.21244 149.556 2.97217C151.828 4.73191 152.963 7.10721 152.963 10.0994C152.963 13.0916 151.828 15.471 149.556 17.2414C147.285 19.0105 144.351 19.8964 140.758 19.8964V19.895ZM140.725 15.495C142.647 15.495 144.172 14.9718 145.302 13.9267C146.431 12.8802 146.996 11.6049 146.996 10.0994C146.996 8.51634 146.454 7.22497 145.368 6.22802C144.283 5.23106 142.747 4.73191 140.757 4.73191H137.062V15.4964H140.724L140.725 15.495ZM170.563 19.895H164.731V0.333245H170.563V19.895ZM205.452 19.895H198.842L197.723 17.0795H188.806L187.688 19.895H181.077L189.587 0.333245H196.909L205.452 19.895ZM196.129 12.6808L193.248 5.31938L190.367 12.6808H196.13H196.129Z" fill="#F80505"/>
</svg>
