<svg width="113" height="36" viewBox="0 0 113 36" fill="none" xmlns="http://www.w3.org/2000/svg">
<path fill-rule="evenodd" clip-rule="evenodd" d="M0 31.6698C11.2101 28.0553 24.4262 17.6214 26.76 17.9974C28.9774 18.3561 27.9938 20.3781 35.4047 23.4104C40.7415 25.5944 39.9399 27.0891 42.995 29.3279C47.4378 32.5811 50.0326 29.3775 52.4668 27.2551C58.9731 21.5838 60.3903 32.375 71.401 32.177C69.0042 31.7608 63.2901 29.0188 61.3872 27.7101C58.0591 25.4217 56.3342 22.4001 51.5461 26.3304C50.1022 27.5147 49.3568 29.0242 47.1996 29.3842C43.3657 30.0238 42.5588 24.6202 36.126 22.2061L34.1268 21.3362C33.467 20.908 33.6691 21.0606 33.2355 20.6016C37.3505 19.721 43.8153 15.594 46.3539 13.663C51.8084 9.51457 52.3972 5.37552 58.1769 10.8782C64.255 16.6632 72.6522 22.008 80.2732 26.5753C83.4434 28.4073 85.4628 28.5424 81.5244 26.2474C76.8568 23.5269 65.1864 15.6181 62.7214 13.3391C60.955 11.7052 56.7356 5.97771 52.7237 6.92917C49.9577 7.58757 46.7446 12.0786 43.0619 14.5489C41.5886 15.5391 34.1281 20.2576 32.0231 20.0516C28.517 19.7076 29.8378 13.1224 21.1342 19.2018L0.00133951 31.6685L0 31.6698Z" fill="#30A23C"/>
<path fill-rule="evenodd" clip-rule="evenodd" d="M15.4226 28.0257C18.9836 26.4627 20.0902 24.5357 21.2344 23.528C22.9246 22.0386 21.8888 24.0098 22.7479 21.6265C19.4921 23.0864 16.8719 25.1272 15.4239 28.0244L15.4226 28.0257Z" fill="#30A23C"/>
<path fill-rule="evenodd" clip-rule="evenodd" d="M48.3453 18.7305C50.3566 17.5382 49.8682 17.5971 51.5102 16.0233C53.3489 14.2623 53.2083 15.005 54.3833 12.3901C51.9464 13.3536 48.6103 15.8668 48.344 18.7292L48.3453 18.7305Z" fill="#30A23C"/>
<path fill-rule="evenodd" clip-rule="evenodd" d="M50.6667 20.1921C52.6098 19.2674 55.7479 15.9754 56.7194 13.7915C54.2705 14.743 51.2181 17.5411 50.6667 20.1921Z" fill="#30A23C"/>
<path fill-rule="evenodd" clip-rule="evenodd" d="M83.2922 33.6919C85.0386 33.0871 86.9977 30.9004 87.7605 29.2344C85.4039 29.3615 83.7539 31.3099 83.2922 33.6919Z" fill="#30A23C"/>
<path fill-rule="evenodd" clip-rule="evenodd" d="M20.449 27.0662L23.7249 25.1164C24.8931 23.9522 24.2561 24.5838 24.7285 23.2871C22.1846 24.0138 20.5788 24.6427 20.449 27.0662Z" fill="#30A23C"/>
<path fill-rule="evenodd" clip-rule="evenodd" d="M54.4917 19.685C56.689 19.4869 57.1507 18.8553 57.8385 17.0112C56.0106 17.4809 55.0417 18.035 54.4917 19.685Z" fill="#30A23C"/>
<path fill-rule="evenodd" clip-rule="evenodd" d="M86.2004 33.701C87.8518 33.2327 88.6935 32.4819 89.2555 30.8774C87.1639 31.2053 86.436 31.8864 86.2004 33.701Z" fill="#30A23C"/>
<path fill-rule="evenodd" clip-rule="evenodd" d="M67.2605 24.8902C69.1808 24.4433 69.8941 24.1904 70.4468 22.1362C68.6616 22.7183 67.864 23.1385 67.2605 24.8902Z" fill="#30A23C"/>
<path fill-rule="evenodd" clip-rule="evenodd" d="M89.0395 33.0013C88.9847 32.9772 88.9017 32.8742 88.8776 32.9304C88.8548 32.9853 88.7465 32.8796 88.713 32.8809C88.3597 32.8876 88.5805 32.7953 88.1536 32.9545C87.625 33.1526 87.716 33.1954 87.4578 33.5232C87.6866 33.5085 88.1603 33.5112 88.3624 33.447C89.251 33.1633 88.808 33.2168 89.0395 33.0013ZM102.874 32.632L98.4524 33.0696C98.8405 33.5286 97.6776 34.0438 102.146 33.1365L102.832 32.7672C102.846 32.7511 102.826 32.6253 102.872 32.6307L102.874 32.632ZM95.6435 30.792C94.9798 30.1684 94.3856 30.072 93.3405 29.7589C92.0933 29.3855 91.562 29.253 90.7149 29.6371C91.3131 30.5591 92.9323 30.9552 93.8892 31.3527C93.489 30.0091 93.2281 31.4383 92.1107 29.9342L95.6449 30.7933L95.6435 30.792ZM94.49 29.7682C94.114 28.9024 94.3522 29.1206 93.1384 28.7699C93.5854 29.6465 92.9939 28.956 93.6831 29.4324C93.7982 29.5113 94.3107 29.688 94.49 29.7696V29.7682ZM95.396 23.4747C95.1939 23.6888 94.66 23.3007 95.2166 24.2602C95.5097 24.7647 95.7305 24.6563 95.954 24.7366L95.396 23.4747ZM100.118 5.53747L98.1754 6.0955C98.2396 6.20255 98.2329 6.45815 98.427 6.61204L97.9907 6.97202L98.4658 7.04696C98.071 7.90207 98.5648 7.01618 98.1781 7.48589C98.1754 7.48856 97.7873 7.85657 97.7405 7.90742C96.9108 8.44538 97.3993 7.88601 97.1651 8.61533L97.9479 8.18443L98.1205 8.90839C97.6361 9.38613 97.4782 9.45572 97.1891 10.1623C98.4203 9.93479 97.7472 9.94416 98.4993 9.43698C99.1135 9.02214 99.2567 9.07032 100.168 8.891C99.7545 10.0204 99.9311 9.34598 100.205 9.62165C99.4601 10.1931 99.262 10.0485 98.7348 10.2105C97.4969 10.5905 97.9907 10.2372 97.6401 10.9933C98.2932 11.2891 98.6933 10.9304 99.3477 10.6347L99.2687 11.2663C100.351 11.269 99.5564 11.3319 99.8615 10.992L100.806 11.0321C100.132 11.633 97.9921 12.0264 97.8368 12.5496L97.9506 13.0648C97.0326 13.7473 97.4702 13.0648 97.0874 13.936C98.0108 13.9052 98.4725 14.1501 98.431 13.1973C99.6555 13.2321 99.5992 12.8213 100.891 12.551C101.342 13.7045 100.23 12.4707 100.937 13.2241L101.799 13.5867C100.693 13.7607 98.7267 14.494 98.3106 15.5512C100.346 14.9544 98.9342 14.4807 101.198 15.388C99.9994 16.0544 98.704 15.2421 97.5719 17.0152C98.6786 16.9577 98.4069 17.1852 98.9556 16.3715C99.5297 16.7021 99.4962 15.8403 99.3851 17.0032L99.0319 17.5317L99.5149 17.1463L100.869 16.7302L99.8615 17.7954L100.781 17.8783C99.7986 18.2825 99.2473 18.4163 99.08 19.4614C99.7117 18.9034 99.5631 18.9409 100.331 18.4631C100.95 18.0791 101.216 17.7459 101.514 17.5799C103.136 16.678 100.612 18.53 102.438 17.6816C102.962 17.4381 102.689 17.2146 103.567 16.773C103.405 17.4555 102.062 18.4966 101.158 19.2741C100.279 20.0302 100.81 19.0292 100.43 20.0743L101.208 20.9736C101.823 21.3255 101.975 21.1502 101.981 21.1516C103.615 21.6855 101.018 21.9144 103.127 21.8354C101.833 22.1766 101.024 22.7092 99.4173 22.6383L98.5983 22.6437C98.7281 23.2365 98.3132 22.7842 99.0921 23.2713L98.9315 23.4653L100.094 25.4218L99.8883 26.0347L102.182 25.4927C101.985 25.7603 102.21 25.5569 101.805 25.8714C101.546 26.0721 101.676 25.9584 101.327 26.1671L100.264 26.8697C101.707 27.0423 102.28 26.4187 103.271 25.7751C103.295 25.8125 103.306 25.8861 103.314 25.9022C103.584 26.5017 103.271 26.1819 104.035 26.4442L104.403 26.5753C103.697 27.033 103.117 27.6111 102.795 28.6388C102.364 29.047 102.558 28.0982 102.412 29.1794C103.366 29.0148 102.729 29.2196 102.958 28.7592C103.618 28.3257 104.31 27.8145 104.924 27.3836L107.042 27.2096C106.209 28.9279 105.392 27.9523 105.129 29.4484L103.013 29.4899L103.331 31.0904C104.862 30.3276 104.686 29.9569 106.326 29.9931C107.16 30.0118 106.245 29.5595 107.21 30.1483L107.299 30.7558C106.454 30.8789 105.046 31.5173 104.493 31.8585C105.906 31.8652 105.704 31.4008 106.5 32.0914C104.613 33.0763 104.777 31.9696 103.801 33.174L106.449 33.0201C106.573 33.178 107.223 32.5811 106.5 33.4657L106.197 33.4282C104.429 33.6892 102.925 34.2392 101.087 34.5322C98.2744 34.9805 97.5157 35.2187 95.8135 34.6139C95.5111 34.5055 95.8456 34.5697 95.2233 34.4145C94.8647 34.3248 94.1073 34.2512 93.849 34.2191C87.6063 33.4724 90.2613 35.4141 86.517 35.2589L87.8927 34.6058C84.6342 34.5844 87.2544 36.0685 78.8572 34.8467C78.9308 34.7263 79.1221 34.2833 79.189 34.1696C78.1693 33.7199 77.6943 33.9167 76.9944 33.091L79.1034 33.5527L79.64 33.459C79.5062 33.0294 79.6547 33.4389 79.1623 33.2168L78.1693 32.5691C79.7417 32.9732 81.3489 34.0317 82.2843 33.2596C81.5911 33.0053 80.6463 33.0013 79.9572 32.7324C78.3888 32.1221 79.4861 32.4808 79.1502 31.8786L78.8719 31.4785C79.6868 31.1158 78.8772 31.2202 79.1556 30.6929C79.9465 31.0516 80.6356 31.3794 81.2084 31.9227C81.923 31.1707 81.1401 32.1369 81.4292 31.5641C81.4426 31.5373 81.5014 31.4276 81.5081 31.3527C81.5122 31.3085 81.5215 31.2831 81.5483 31.2403L83.2545 32.3322L83.0538 31.0034L81.9631 31.0141C81.7905 30.804 81.9845 30.986 81.6272 30.5939C81.3328 30.2714 81.4653 30.436 81.1843 30.1831L80.4817 29.878C80.0508 28.0018 80.831 30.626 80.8899 29.245C79.7899 28.9908 79.905 29.1219 79.7952 28.331C80.2141 28.0942 79.8595 28.3698 80.1017 27.7609C80.8404 28.3939 80.6838 28.3016 81.5416 28.8021L82.216 27.8921L81.0639 27.0664L82.3499 27.0102C82.8316 27.3729 81.7062 27.2578 83.0471 27.2899L82.5372 26.7894C81.4305 25.9852 83.1354 26.6449 81.0478 25.4793C80.0682 24.932 79.7979 24.6282 78.801 24.1692V23.4064C79.4446 23.7437 80.4429 24.0581 81.0117 24.39C82.3592 24.7272 81.4145 24.4328 82.4342 25.1635C83.6814 26.0574 83.763 25.2358 83.7657 25.2344C83.7014 25.1916 83.6158 25.1421 83.5676 25.1153L82.9922 24.8129C82.3499 24.4502 82.8249 24.8008 82.493 24.4221L84.4682 24.4556C83.6881 23.7062 84.1042 23.9738 81.2766 24.0073L81.4185 23.4934C81.4278 23.4921 81.6259 23.5644 81.9832 23.4894L81.0585 22.6343L83.2986 23.274L80.9367 21.723L81.4051 21.4968L81.4452 21.0325C82.7781 21.0258 82.6349 21.7283 83.7884 21.4139C82.9521 20.7595 82.1545 20.631 81.8253 20.0422C81.108 18.7589 83.6038 20.3313 83.9437 20.4597L83.8767 18.7495L81.9859 18.1594C82.6777 17.695 82.0207 18.1125 82.6081 17.9466L83.2184 17.7592C83.2491 17.6843 83.3388 17.703 83.395 17.6682L82.857 16.69C83.2531 15.7386 83.4565 16.3782 83.5596 15.3532L83.5971 14.2639C83.6399 14.3268 83.6881 14.4111 83.7162 14.4579L84.4803 15.7078L84.3224 16.5883C86.0072 16.2819 85.4692 16.4639 85.8212 16.7221C85.0316 17.0487 84.6128 17.4488 84.2969 18.1808L85.8546 17.5411L84.9553 18.5568C84.4548 18.9783 84.7185 18.0817 84.4308 19.3062C85.8265 19.8442 85.0182 19.4052 85.322 19.2513C86.1972 18.6799 86.1597 19.1911 87.2544 18.3681C87.0188 19.6568 86.8596 19.5123 85.5174 19.9512L85.6994 20.9174C85.7837 21.3015 85.8573 21.6695 86.0527 22.1258L86.7793 21.256C86.9934 21.5678 87.3694 20.8532 86.9332 22.3359C87.8967 21.8394 87.811 22.0522 88.0171 22.1365L87.5113 23.2084C86.9519 22.8685 87.8686 22.8538 86.782 23.0505L84.7921 24.0247C85.1614 24.3566 84.582 24.4596 85.3916 24.4302L85.6057 24.8852C86.79 24.8959 86.9479 24.6175 87.7254 24.655C88.5056 24.6925 87.5113 24.2803 88.175 24.7875C87.5086 25.2987 87.2316 25.4258 86.3431 25.7831L86.9479 26.1765C86.9666 26.1337 87.051 26.2153 87.1031 26.2341L86.3805 26.3117L85.8774 27.2043C86.7325 27.3675 86.4193 27.4398 87.0148 27.1561C87.7227 26.8189 87.2249 27.0236 87.5608 26.6703L88.167 26.4723L88.2955 27.2551L88.4842 27.5629C87.1915 28.1263 87.8258 28.0821 87.4096 28.3899C86.8676 28.79 86.8021 28.5532 86.1731 28.8596C86.7218 29.3467 86.2855 29.0269 87.3708 29.2704L88.06 28.4702C88.258 28.2414 88.353 28.1437 88.531 27.9429L89.0154 27.7984L89.9575 26.7974L90.5878 26.8135C92.0157 27.6298 91.6316 27.3234 92.4667 27.4411C93.8945 27.6432 93.0461 27.9577 94.1581 28.3096C93.5667 27.314 93.3003 26.8871 92.1763 26.3077L94.134 26.5967C93.4141 25.9811 90.9879 25.6038 89.7849 25.5101L89.7876 24.9427C89.8746 24.5774 90.1194 25.197 89.6859 24.6804C89.4517 24.3994 89.5949 24.5854 89.3446 24.3914C89.1252 24.2214 89.069 24.2107 88.8615 24.0501C88.4641 23.741 88.6769 23.939 88.3892 23.6286C91.4938 24.0515 88.9686 24.3485 91.1954 23.6313C91.6062 24.303 92.5322 24.7754 93.109 25.3361C92.8935 23.0331 94.6225 25.6493 93.6978 23.4225C93.932 23.1428 93.0782 22.9689 94.2224 23.2793C94.4017 23.0358 94.4485 23.4359 94.4084 22.7253C94.3803 22.2047 94.3696 22.641 94.1956 22.2181C93.853 21.3817 93.8892 22.4055 93.9815 21.2881C93.8771 20.1774 93.9065 21.0191 93.7286 20.5521C92.9992 18.6451 93.0033 19.8843 92.7169 18.9516C92.4787 18.1781 94.0778 19.0533 91.1057 17.0032L94.3936 17.9131L93.1197 16.3367C93.7326 16.5856 94.1407 16.8399 94.7322 17.0339C96.0892 17.4782 96.1159 17.1343 96.3354 16.9296C94.8647 16.4318 94.474 16.9617 93.3847 15.5472C94.6667 15.669 95.3076 16.0423 96.5441 15.8108C95.2715 14.5355 94.5743 15.1953 92.8614 14.7925C93.4516 14.1916 92.8213 14.5837 93.7165 14.3361C93.7192 14.3348 94.3629 14.3254 94.4392 14.3254C93.5038 13.8985 94.2572 14.1675 93.9694 13.8637C94.0471 13.8276 94.3214 13.5747 94.3709 13.5519C95.1029 13.2174 95.1538 13.6563 95.8938 13.3218C95.0882 12.8467 94.9437 12.8869 93.9199 12.7852C93.9895 12.7477 94.0939 12.7249 94.1407 12.7049C96.0303 11.9033 94.2304 12.3114 93.3392 11.6236C92.9083 11.2917 93.0113 11.2596 92.84 10.992C94.2117 10.2345 94.2465 10.3577 95.5392 10.9639C96.1494 11.4443 94.7148 11.1914 96.3862 11.4081L96.1454 10.6802C96.9148 10.7243 96.4973 10.8006 96.8319 10.4741C96.1454 9.45973 96.7569 10.0285 94.9731 9.99367L95.507 9.37676C95.5284 9.28577 95.5994 9.27907 95.6328 9.26837L94.1996 8.64878C96.3715 8.35839 95.4749 9.41156 96.8988 8.66083C96.8078 7.25304 96.8827 8.06934 95.5739 7.39623C95.5218 7.36946 95.4535 7.32932 95.4053 7.30122C95.3572 7.27311 95.2876 7.22092 95.2461 7.19282C95.2274 7.18078 95.0976 7.01484 94.7938 6.82482C96.425 5.3354 95.6703 6.85292 96.6954 6.32968C96.8024 5.99513 96.7382 5.95097 96.6766 5.74355L96.4117 5.30998C96.6673 5.18285 97.5558 5.50669 96.1253 3.74027C96.6164 2.65766 96.1694 3.73893 96.587 3.16618C96.8185 2.84903 96.69 3.45925 96.9041 2.66837L95.867 1.82397L96.9563 1.67275L97.0473 0C97.3471 0.420195 97.4528 0.930049 97.5184 1.67275C98.9114 1.51752 98.3306 1.39708 98.7763 1.62457L97.1343 2.44489C97.5424 3.24781 97.7311 2.67774 98.2878 2.96277C97.8382 3.61046 97.7954 3.49002 97.2521 4.00122C97.5799 4.18723 98.0001 3.92628 98.5447 4.30766C97.7325 4.6382 97.6241 4.69307 97.1236 5.51338C98.5086 5.409 98.0817 5.0865 98.8913 4.96873C99.3209 4.90584 99.2968 5.01557 99.3209 5.01825C99.9445 5.11995 99.3677 5.30195 100.303 5.06241L100.113 5.53345L100.118 5.53747Z" fill="#30A23C"/>
<path fill-rule="evenodd" clip-rule="evenodd" d="M77.4417 19.5442C76.7699 18.8845 75.9951 19.4345 74.705 19.9176L74.9553 20.58L74.6007 21.4271C75.0717 21.6787 74.958 21.225 75.4183 21.494C75.6886 21.6506 75.3782 21.4391 75.6097 21.7456C76.1623 22.4749 74.9218 21.6532 75.9148 22.1457C77.2704 22.3518 76.1329 21.2223 78.8896 21.3321C80.1435 21.3816 79.0368 20.7848 80.0244 21.32C79.7822 21.9691 80.4526 21.4472 79.2255 22.3103C78.452 22.8536 76.7284 23.3327 76.2172 23.8466C74.2848 23.7582 74.3999 23.4852 73.2772 24.5371C74.0078 24.873 74.3799 24.5906 75.2979 24.4447L74.0493 25.9716C74.891 25.6772 74.2179 26.0733 75.0222 25.3935C75.425 25.0536 75.0516 25.3226 75.4986 24.9452C75.8853 24.62 75.8358 24.6977 75.9322 24.6307C75.9121 25.5327 75.6966 25.1085 76.5143 25.2369L76.3417 26.2821C76.442 26.2754 76.7498 26.2004 76.8154 26.1857C77.6758 25.9877 77.6691 25.6719 78.0398 26.2874L76.2935 26.891C76.9974 27.2322 77.5501 27.089 78.2379 26.5671C78.4279 26.614 78.5524 26.9485 79.2643 27.0502C80.9237 27.2897 79.8986 26.729 80.1662 27.2322C79.362 27.8237 79.9039 26.7009 79.457 27.7032L79.544 28.2787C77.6544 29.4938 76.9492 29.3519 75.7395 28.7778C75.1386 28.4928 73.1715 28.6186 72.0313 28.3228C70.9447 27.7032 72.3993 28.4714 73.9262 27.8973L71.4452 27.7715C73.2732 25.3105 69.8005 25.5514 71.041 24.7391L68.4168 24.6508C66.5982 24.604 66.0937 23.2056 63.6114 22.9567C64.0677 22.4869 64.0797 22.7492 64.1921 22.0641C65.3149 21.7897 64.3661 21.8914 65.7016 21.6466C66.257 22.6502 66.4283 22.9312 67.4654 23.4732C66.6143 22.4401 66.1325 22.8255 66.3935 21.3883C67.9565 22.0333 66.6919 22.1082 68.3245 22.9941C68.4824 22.7305 68.7179 22.8175 68.1853 21.5636C68.7715 21.7242 68.1505 21.3214 68.8839 21.9998C69.3924 22.776 69.3509 23.2618 70.3599 23.5067C70.1364 22.6796 70.463 23.4745 69.9906 22.7693C69.4299 21.9316 69.9544 23.0088 69.4138 21.9048L70.0816 21.4472C69.5864 21.0577 70.0842 21.2745 69.193 21.1621C69.1716 21.1595 68.2054 21.1862 68.192 21.1862C68.7554 20.6335 68.2348 20.9627 69.1475 20.5171L67.994 18.6824C68.2094 19.7316 68.639 19.7731 68.7929 19.935C66.8873 20.0059 66.894 20.3164 65.3872 19.2043C64.1132 18.2649 65.4086 19.298 64.6846 18.3198L63.5859 17.0927C66.997 18.1485 64.4143 16.0475 66.6959 17.3911C67.9712 18.1405 66.6906 18.0053 67.994 18.0321C69.1609 18.0562 68.5788 18.2957 69.3616 18.5941L69.7002 18.0267C69.023 17.5383 67.7344 17.0097 66.91 16.4878C68.6363 15.8348 69.569 16.7487 70.7533 16.2697L69.644 15.5363C69.5958 15.5056 69.47 15.5015 69.4352 15.3945C69.4004 15.2861 69.284 15.3088 69.2238 15.2834L71.8212 15.159C70.8283 14.7441 69.1689 14.7642 67.8695 14.8927L67.1282 13.7324C67.1067 13.616 67.0358 13.596 66.985 13.5304L65.802 12.5615C66.6758 12.7154 66.8659 12.7435 67.3717 12.8091C69.5971 13.1008 65.5022 12.7663 68.2282 12.781C69.1957 12.7863 68.4423 12.5107 69.4004 13.3404C69.8982 13.7726 69.8046 13.7913 70.4496 14.245C71.7985 13.2882 69.8848 13.2721 71.9122 13.5157C72.9921 13.6455 72.3137 13.7043 72.4756 14.0643L72.5117 14.3668C73.684 13.3444 73.7951 13.7378 75.9134 12.9389C76.0754 13.8087 75.8505 12.1025 75.8438 13.3925C75.8412 13.8596 75.6471 13.3859 75.892 13.7485L77.1272 13.0165C77.3681 13.3992 77.344 13.2748 77.7414 13.5625C77.9314 13.699 78.1282 13.8997 78.171 13.8261C78.2071 13.7619 78.3289 13.9064 78.4025 13.9546C77.3386 14.5273 75.698 14.6411 72.9828 15.7866C71.575 16.3794 71.856 15.6233 71.8493 16.8799C72.1812 17.1101 71.8908 17.0632 72.41 16.995C73.1929 16.8919 72.861 16.9388 73.3428 16.6551L73.4846 17.4794C74.5565 16.5239 73.9824 17.0298 74.9499 16.8451C75.0102 16.8344 75.3594 16.7099 75.425 16.6925C76.169 16.4851 76.1235 16.8906 76.9211 16.3901C77.3761 16.1051 76.6816 16.4477 77.4898 15.9217C77.2128 18.1472 76.3564 17.2185 76.062 18.5567C77.0937 17.8554 76.707 18.5419 78.1951 17.363C78.8869 16.8157 78.171 17.2037 78.9752 16.8116C79.5092 18.0722 79.4316 17.0311 78.7732 18.289L80.2546 17.5022C79.8397 19.0357 78.9739 19.1147 77.4376 19.5509L77.4417 19.5442Z" fill="#30A23C"/>
<path fill-rule="evenodd" clip-rule="evenodd" d="M74.1296 4.84187L73.229 5.52836C73.6625 5.87362 74.3918 5.76388 73.1901 6.77958L74.436 7.33092C72.6 7.81133 73.0684 6.99904 72.5839 8.08432C73.0951 8.99564 74.0399 8.23688 74.6408 7.60391C74.8522 8.64637 74.5591 8.15525 75.0342 8.68919L73.9128 9.64065C74.9646 9.53359 75.1185 9.15354 75.999 9.71023C74.788 11.2465 73.6839 10.2469 73.2249 12.2194C74.4735 11.7978 73.8592 11.6894 74.7598 11.2451C74.8268 11.2117 74.9137 11.1756 74.986 11.1461C75.0596 11.1153 75.1506 11.0913 75.2282 11.0632L76.9465 11.2278C77.4095 11.5222 77.0723 11.1889 77.3279 11.3361C76.0833 13.128 74.2085 12.8751 72.604 13.397C70.8068 13.9818 71.9603 14.0473 69.9209 13.3622L69.7603 12.6516C71.1614 13.2016 72.5371 12.5205 67.927 10.4168L68.754 9.84138C68.8999 9.73968 69.2237 9.51084 69.2518 9.48676L69.9919 10.291C70.4602 10.6992 69.2384 10.7433 70.9339 10.667C70.8416 8.84308 71.037 10.3151 70.5044 9.69953C70.2929 9.37702 70.487 9.65269 70.1337 9.22179L71.4157 9.20038C71.5856 7.66413 71.5067 8.40148 70.8871 8.14454C70.958 8.07362 71.3501 7.537 71.405 7.4741C70.9741 6.81571 71.3541 7.32289 70.8724 6.89868C70.7011 6.74746 70.5673 6.95221 70.4709 6.62033C70.4401 6.51595 70.3251 6.54807 70.2582 6.50123L71.4652 6.32325L70.2073 5.05732C70.6904 5.15099 71.053 5.18177 71.3354 5.17374C71.5 5.16972 71.6539 4.82982 71.773 4.8044C71.8238 4.79369 71.8787 3.9078 71.9081 3.94393C71.955 4.00415 71.963 3.29357 72.0139 3.36717C72.3564 4.16072 72.4381 4.40427 72.7566 4.45914C73.0322 4.50598 73.4176 4.64917 74.1242 4.84053L74.1296 4.84187Z" fill="#30A23C"/>
<path fill-rule="evenodd" clip-rule="evenodd" d="M94.5506 10.9344C92.8859 10.9291 93.2552 10.8689 93.0652 10.0352C93.3877 10.1516 93.5416 10.1449 93.9149 10.3536C95.0082 10.9652 94.1826 10.4768 94.5506 10.9344Z" fill="#30A23C"/>
<path fill-rule="evenodd" clip-rule="evenodd" d="M89.0359 17.9199C88.8713 18.1662 89.3972 19.0507 87.9211 18.494C88.2209 18.2009 87.9252 18.3977 88.4042 18.1394C89.2419 17.6871 88.1848 18.2571 89.0372 17.9199H89.0359Z" fill="#30A23C"/>
<path fill-rule="evenodd" clip-rule="evenodd" d="M70.1082 6.29086L68.8423 6.28416C69.0778 6.05801 69.0109 6.07407 69.4043 5.82918C69.9891 5.46385 68.4502 6.03392 69.8433 5.70472C70.6783 6.12492 69.7764 5.59232 70.1082 6.29086Z" fill="#30A23C"/>
<path fill-rule="evenodd" clip-rule="evenodd" d="M102.047 34.7063L101.16 34.0024L103.223 33.8967L103.938 34.0693C104.358 34.4507 103.768 34.2593 104.612 34.5845C105.323 34.8588 104.958 34.8053 105.92 34.5283L105.253 33.5327L104.418 33.5126C104.476 33.4845 104.563 33.3815 104.59 33.4296L105.241 32.9091C104.188 32.5772 103.858 32.4581 103.041 31.9228C103.751 31.2617 102.652 31.8452 103.545 31.7234C104.43 31.603 104.642 31.9134 105.996 31.7836L106.196 31.2283C107.127 31.1841 106.451 31.1199 106.842 30.6943L104.463 29.7482C103.197 29.6265 104.248 29.5515 103.642 30.0065L102.954 28.7995C103.183 28.679 103.061 28.4368 104.216 28.9252C103.565 27.2297 104.07 28.03 104.283 27.6433L105.203 28.5907C105.379 28.038 105.426 27.5991 105.485 27.1401L105.596 25.9879C104.014 25.6065 103.846 25.7912 103.444 24.3044C104.782 25.1609 104.687 24.5641 105.749 25.1475C106.114 25.2974 105.231 25.8942 106.775 25.1234C106.32 23.717 106.713 24.742 106.098 24.2978L104.964 23.1951L106.814 23.7906C106.378 22.9622 105.747 22.356 104.809 22.0509C105.243 21.9572 105.901 22.0563 106.237 21.7271L106.707 21.0071L107.103 19.3678C107.13 19.3089 107.176 19.2059 107.219 19.127L107.372 20.4009C107.593 21.5919 107.763 20.8238 108.311 21.8997L107.796 23.1001C107.864 23.1349 107.965 23.1054 108.007 23.1897L108.726 23.349C109.415 23.4855 108.619 23.0613 109.461 23.5377L107.353 24.4169L107.451 26.4282C107.825 26.2435 110.526 24.1519 109.834 25.7283C109.517 26.4509 108.616 26.6797 107.725 27.5308C109.078 27.7851 108.844 26.9755 110.371 26.851L110.464 27.3917L111.024 27.6111L108.475 29.6639L110.977 28.6911L110.004 29.7857C110.42 29.8379 110.642 29.7349 110.652 29.7349L110.866 30.3223C107.622 30.5632 108.072 30.2072 107.254 31.1641L109.514 30.9272C109.173 31.4049 109.682 30.9459 108.983 31.4357L108.354 31.8465C108.302 31.8827 108.208 31.9496 108.14 32.0058C108.143 32.0071 108.321 32.9626 109.659 31.7903C110.753 30.8322 109.7 31.2711 111.21 30.7439C111.828 30.2969 111.832 30.0721 112.215 29.4418C111.97 31.5963 112.215 31.4839 109.706 33.708L109.173 34.3463C110.707 34.175 109.429 34.4212 109.943 33.9488L111.423 33.886C109.612 35.1907 104.756 34.99 102.05 34.7049L102.047 34.7063ZM102.679 30.5833V30.5819H102.68V30.5833H102.679Z" fill="#30A23C"/>
<path fill-rule="evenodd" clip-rule="evenodd" d="M108.283 21.837C107.764 22.0137 107.95 22.1087 107.923 22.561C108.209 22.4031 108.357 22.3723 108.675 22.1395C108.885 21.9856 109.014 21.8932 109.087 21.8384C109.24 21.726 109.454 21.5614 109.47 21.5132C108.708 21.8223 108.411 21.7929 108.283 21.837Z" fill="#30A23C"/>
</svg>
