<svg width="25" height="38" viewBox="0 0 25 38" fill="none" xmlns="http://www.w3.org/2000/svg">
<path d="M12.5713 2.94179C12.1647 2.93885 11.833 3.26605 11.8301 3.67193C11.8272 4.0778 12.1536 4.40941 12.5602 4.41235C12.9661 4.41529 13.2977 4.08883 13.3007 3.68295C13.3036 3.27708 12.9771 2.94547 12.5713 2.94179Z" fill="#F80505"/>
<path d="M12.5392 7.3534C9.70016 7.33326 7.37513 9.62358 7.35366 12.4617C7.33227 15.2996 9.62384 17.6258 12.4619 17.6472C12.4751 17.6473 12.4882 17.6473 12.5014 17.6473C15.3214 17.6473 17.6261 15.3638 17.6474 12.5389C17.6688 9.70108 15.3773 7.3748 12.5392 7.3534ZM12.5012 16.1768C12.4919 16.1768 12.4822 16.1768 12.473 16.1767C10.4457 16.1614 8.80886 14.4998 8.82415 12.4727C8.83937 10.4547 10.4855 8.82374 12.4999 8.82374C12.5092 8.82374 12.5189 8.82382 12.5281 8.82389C14.5554 8.83918 16.1922 10.5008 16.177 12.5279C16.1617 14.5458 14.5156 16.1768 12.5012 16.1768Z" fill="#F80505"/>
<path d="M15.7077 3.49877C15.3252 3.36304 14.9047 3.5634 14.769 3.94619C14.6333 4.32898 14.8337 4.74919 15.2164 4.88492C18.4551 6.03277 20.6135 9.11734 20.5876 12.5604C20.5846 12.9665 20.9113 13.2981 21.3174 13.3012C21.3192 13.3012 21.3212 13.3012 21.3231 13.3012C21.7264 13.3012 22.0551 12.9756 22.0582 12.5715C22.0888 8.50191 19.5367 4.85588 15.7077 3.49877Z" fill="#F80505"/>
<path d="M17.0115 27.679C21.9021 21.3839 24.9584 18.1013 24.9996 12.5937C25.0514 5.66423 19.4278 0 12.4989 0C5.65075 0 0.0524787 5.54607 0.000420871 12.4062C-0.0416371 18.0631 3.07146 21.3413 7.99578 27.678C3.09698 28.41 0.000420871 30.2495 0.000420871 32.4994C0.000420871 34.0065 1.39348 35.3589 3.92307 36.3074C6.22545 37.1708 9.27149 37.6463 12.5 37.6463C15.7286 37.6463 18.7746 37.1708 21.077 36.3074C23.6066 35.3588 24.9996 34.0064 24.9996 32.4993C24.9996 30.2507 21.906 28.4117 17.0115 27.679ZM1.47091 12.4173C1.51679 6.36385 6.45603 1.47056 12.499 1.47056C18.6135 1.47056 23.5747 6.46958 23.5292 12.5828C23.49 17.8131 20.2488 21.0364 15.0741 27.782C14.1511 28.9847 13.3035 30.1217 12.5011 31.234C11.7012 30.121 10.8704 29.0044 9.93361 27.7816C4.54504 20.7535 1.43106 17.7738 1.47091 12.4173ZM12.5 36.1758C6.18758 36.1758 1.47091 34.2349 1.47091 32.4994C1.47091 31.2123 4.29056 29.5865 9.0315 29.0235C10.0795 30.3985 10.9983 31.6478 11.8995 32.9236C12.0371 33.1185 12.2608 33.2345 12.4994 33.2346H12.5C12.7384 33.2346 12.962 33.1191 13.0999 32.9246C13.9925 31.6653 14.9365 30.3853 15.9755 29.0243C20.712 29.5879 23.5292 31.2132 23.5292 32.4994C23.5291 34.2349 18.8125 36.1758 12.5 36.1758Z" fill="#F80505"/>
</svg>
