<svg width="75" height="70" viewBox="0 0 75 70" fill="none" xmlns="http://www.w3.org/2000/svg">
<path fill-rule="evenodd" clip-rule="evenodd" d="M71.2572 51.3278C65.3626 51.4635 59.3083 51.3433 53.3981 51.3394C50.3067 51.3356 48.4768 50.6181 46.7988 48.9971C43.065 45.3904 43.357 39.8447 46.8533 36.6957C48.6404 35.0863 50.3729 34.4076 53.5538 34.4386C59.4134 34.4929 65.3158 34.4503 71.1676 34.5705C71.3934 35.4198 71.3039 49.4236 71.2494 51.3278H71.2572ZM67.8777 54.7173C67.8777 65.9405 68.8394 66.5494 60.8773 66.5494H17.131C14.8456 66.5494 6.52537 66.9139 5.16657 66.0607C3.6092 65.0796 3.39117 63.7688 3.39507 61.4342V24.1965C3.39117 21.9395 3.64814 20.6325 5.17046 19.7289C6.82127 18.7478 14.8066 19.2209 17.2906 19.2209H61.0409C63.0148 19.2209 65.2224 18.9184 66.5189 20.012C68.0295 21.2879 67.8855 22.5406 67.8855 24.8287C67.8855 26.9034 67.8855 28.9782 67.8855 31.053C63.6144 31.053 52.234 30.5605 48.9402 31.6309C37.7739 35.253 38.3267 50.843 48.9596 54.1394C52.4559 55.2214 63.4743 54.7173 67.8855 54.7173H67.8777ZM23.0062 12.888L31.6145 15.8082L30.8086 15.8431L22.5351 15.8586L21.9588 15.7616L23.0062 12.888ZM14.4368 15.8276C14.9585 14.1096 15.9085 12.0774 16.5937 10.3594C19.8058 2.34724 18.9726 2.60708 23.7693 4.58491C26.2572 5.61261 49.9447 15.3118 50.6377 15.7694C49.3412 16.0021 46.4328 15.8431 44.965 15.8431C42.3681 15.8431 42.2824 15.7112 40.0671 14.9783C37.1548 14.0126 34.3671 13.0857 31.4743 12.1278C21.1529 8.70347 21.4371 7.73782 19.8642 11.7168C19.3853 12.9267 18.5988 14.668 18.3029 15.847L14.4329 15.8276H14.4368ZM71.3039 54.7134C73.636 54.2325 74.6639 53.0691 74.6639 50.5095V35.2879C74.6639 32.7439 73.6633 31.5106 71.3195 31.0685C70.6732 27.0857 72.3512 22.1722 70.0424 18.8719C67.0211 14.5555 62.6255 16.2891 59.7755 15.8082C58.9774 15.6724 55.8665 14.2492 54.8932 13.8381L40.7484 7.96275C39.2417 7.33837 22.8387 0.400429 21.698 0.15223C16.8429 -0.906494 15.5659 3.81705 14.573 6.2874L10.7731 15.8353C7.38192 15.9284 5.14321 15.4087 2.7254 17.3012C0.809843 18.8021 -0.00387951 20.5627 1.39012e-05 24.0414V61.915C-0.00387951 65.1804 0.903285 67.135 2.82274 68.5582C5.0264 70.1909 7.63109 69.935 10.7653 69.935H58.3311C60.9552 69.935 64.8603 70.2879 67.0601 69.3494C73.1572 66.7433 70.7666 59.9101 71.3039 54.7173V54.7134Z" fill="#51A5F2"/>
<path fill-rule="evenodd" clip-rule="evenodd" d="M52.195 41.2915C54.2857 40.6283 55.2046 44.0178 53.0554 44.4987C50.8245 44.9951 49.9991 41.9895 52.195 41.2915ZM51.755 37.8942C49.2282 38.3402 47.044 40.7253 47.5891 43.7618C48.0407 46.2826 50.4352 48.3807 53.472 47.8804C56.0066 47.4615 58.1285 44.9989 57.6185 42.0399C57.1902 39.5386 54.749 37.3668 51.755 37.8981V37.8942Z" fill="#51A5F2"/>
<path fill-rule="evenodd" clip-rule="evenodd" d="M11.3688 32.845C9.94768 33.3453 9.79194 35.1603 10.9872 35.8622C11.9061 36.3974 25.4707 36.1686 25.9807 36.029C27.4213 35.6334 27.4992 33.5974 26.2961 32.973C25.3383 32.4766 11.618 32.7597 11.3688 32.845Z" fill="#51A5F2"/>
<path fill-rule="evenodd" clip-rule="evenodd" d="M11.5596 26.0348C9.68691 26.4614 9.45331 29.3312 12.35 29.37C13.5959 29.3855 18.1706 29.5174 19.0817 29.2963C20.7598 28.893 21.1063 26.0193 18.2524 25.9805C17.0182 25.9611 12.4279 25.837 11.5596 26.0348Z" fill="#51A5F2"/>
</svg>
