<svg width="69" height="71" viewBox="0 0 69 71" fill="none" xmlns="http://www.w3.org/2000/svg">
<path fill-rule="evenodd" clip-rule="evenodd" d="M6.21484 49.4164H8.00727L8.56512 49.4146V47.5717L8.01641 47.5681H6.22216L6.21484 49.4164Z" fill="#51A5F2"/>
<path fill-rule="evenodd" clip-rule="evenodd" d="M6.21484 33.8627H8.02556L8.56512 33.8591V32.018L8.01641 32.0144H6.22216L6.21484 33.8627Z" fill="#51A5F2"/>
<path fill-rule="evenodd" clip-rule="evenodd" d="M15.1562 49.4162H16.9944L17.5084 49.3818L17.5065 47.6131L16.9907 47.5588L15.1562 47.5679V49.4162Z" fill="#51A5F2"/>
<path fill-rule="evenodd" clip-rule="evenodd" d="M15.1562 33.8627H16.9981L17.5084 33.8266L17.5065 32.056L16.9907 32.0054L15.1562 32.0144V33.8627Z" fill="#51A5F2"/>
<path fill-rule="evenodd" clip-rule="evenodd" d="M24.0977 49.3313L24.5805 49.4325L25.9687 49.4163L26.4516 49.353L26.4479 47.6547C25.8407 47.4866 24.7067 47.4884 24.0977 47.6529V49.3331V49.3313Z" fill="#51A5F2"/>
<path fill-rule="evenodd" clip-rule="evenodd" d="M15.1593 41.6359H16.992L17.5114 41.6016L17.5096 39.8382L16.9938 39.7876L15.1465 39.7966L15.1593 41.6359Z" fill="#51A5F2"/>
<path fill-rule="evenodd" clip-rule="evenodd" d="M6.21484 41.6358H7.99812L8.56512 41.6322V39.7983L8.01641 39.7947L6.21484 39.7965V41.6358Z" fill="#51A5F2"/>
<path fill-rule="evenodd" clip-rule="evenodd" d="M24.0977 41.5508L24.5805 41.6521L25.9651 41.6358L26.4534 41.5725L26.4498 39.8779C25.8718 39.7278 24.6793 39.7278 24.0995 39.8761V41.5508H24.0977Z" fill="#51A5F2"/>
<path fill-rule="evenodd" clip-rule="evenodd" d="M7.29225 66.4997L7.29408 55.8239L25.3573 55.8257L25.3775 66.5323C22.8662 65.7781 23.6052 65.0981 20.8342 66.5612C19.6673 67.1779 19.7642 67.0314 18.5882 66.5106C16.1702 65.4399 16.4556 65.4345 14.1693 66.5196C12.9201 67.1128 13.1304 67.1255 11.8812 66.5865C8.16103 64.9824 9.64253 65.8722 7.29225 66.5015V66.4997ZM43.0365 48.8176C43.0877 50.2102 43.1517 51.5702 43.3767 52.9176C43.5358 53.8761 43.8266 54.3373 43.5047 54.699C43.1865 55.0571 42.2281 55.03 41.7928 54.7551C40.7356 54.0859 41.1472 52.762 41.3959 51.5395C41.6666 50.2011 41.4672 49.0292 43.0347 48.8158L43.0365 48.8176ZM36.3204 50.8812C37.9354 51.0168 37.8293 51.1108 39.4242 50.7528C39.2322 52.167 39.1023 53.9267 37.5568 53.9701C35.9583 54.0154 35.6876 52.2358 36.3204 50.8812ZM24.1008 39.878C24.6806 39.7297 25.8713 39.7279 26.4511 39.8798L26.4547 41.5744L25.9664 41.6377L24.5818 41.654L24.099 41.5527V39.878H24.1008ZM28.8562 40.1004C28.9276 40.1927 29.0026 40.3283 29.0702 40.4513C30.6871 43.3685 30.5938 42.6215 30.5938 46.5153C30.5938 49.6586 31.0584 51.856 28.763 53.2431C27.2522 54.1546 22.6596 53.7803 20.5818 53.7803C17.6828 53.7803 14.7839 53.7803 11.8831 53.7803C9.57851 53.7803 5.33522 54.2161 3.68728 53.1201C1.58758 51.7239 2.0741 48.9822 2.0741 46.1084V11.5689C2.0741 7.53582 1.20898 2.83904 6.35946 2.82819C10.5424 2.82095 26.0981 2.40137 27.9929 3.00904C30.6176 3.85001 30.5938 5.96962 30.5938 8.97361C30.5938 10.4331 30.5846 11.8926 30.6011 13.3521C30.6121 14.3251 30.5865 14.2726 29.8055 14.6814C29.3665 14.9111 28.9587 15.2366 28.5252 15.318C28.5069 14.0502 28.6861 10.8219 28.4612 9.80373C28.0862 8.1019 25.8548 8.5269 24.0331 8.5269H7.05082C4.57801 8.51967 4.13539 8.8217 4.14453 11.294C4.15002 12.6793 3.54462 15.9781 5.48885 15.5061C6.6393 15.2257 6.13632 12.4659 6.29179 10.5742H26.4511L26.4383 16.6563C25.661 16.9312 24.6989 17.5787 23.9161 18.0037C21.0775 19.5482 19.157 20.4217 19.8411 24.4981H6.25521C6.14181 23.4836 6.482 18.8573 5.94428 18.2532C5.637 17.9096 5.04623 17.7523 4.56703 18.1086C3.87384 18.624 4.14636 20.9172 4.14636 21.9409C4.14636 26.285 3.58669 26.5454 8.01837 26.5454C10.0541 26.5454 20.3514 26.4025 20.858 26.5454C21.3335 26.8366 23.0144 29.969 23.382 30.6381C23.9435 31.66 24.9056 31.8408 25.3793 31.0451C25.8146 30.3162 25.0921 29.468 24.7538 28.8712C23.9728 27.4895 23.1772 26.1349 22.3962 24.7857C21.3573 22.9916 21.2476 21.8613 23.3235 20.693C24.5325 20.013 39.0529 11.5906 40.0132 11.3953C42.0452 10.9829 42.7548 13.0555 43.4956 14.2998L55.3055 34.7019C56.1048 36.109 57.3906 37.715 55.653 39.1455C55.1391 39.5687 52.1486 41.2489 51.5085 41.4912C50.808 40.7768 50.38 38.6482 49.107 38.952C47.2377 39.3987 49.6813 42.5781 50.3873 43.8007C50.6232 44.2094 51.0713 45.0812 51.2963 45.3579C51.8304 46.0162 52.8089 45.7883 53.0723 45.1806C53.3631 44.5079 52.8089 43.9219 52.5748 43.3739C53.3411 42.7337 54.6617 42.1025 55.6292 41.5762C61.301 38.4945 57.3686 34.9081 56.5017 32.557C57.7838 33.4305 58.9781 34.5102 60.1286 35.5303C60.8071 36.1325 61.793 36.8686 62.3984 37.6535C67.3513 44.0648 65.5845 49.4126 64.7633 57.4371C64.5456 59.5622 64.509 59.2746 65.4473 60.8517C65.868 61.5588 66.5319 63.2154 67.3989 63.2697C68.0207 63.3095 68.4944 62.8465 68.4743 62.2207C68.4487 61.4666 67.3367 60.0125 66.9526 59.3596C66.0381 57.8043 69.0852 47.8464 67.0422 41.7969C65.1711 36.2591 61.1108 33.6403 56.8254 30.0612C52.8875 26.7733 54.23 28.4462 51.653 24.2612C51.3658 23.7946 51.1354 23.4022 50.8391 22.8741L44.4064 11.7606C40.9313 6.05463 36.1338 11.8383 32.6624 12.9813C32.6624 8.56307 33.4159 4.25151 30.4804 2.0469C28.7447 0.742937 27.6619 0.779108 25.136 0.780917H11.8812C8.00374 0.780917 3.60132 -0.134206 1.07546 3.20075C-0.0127962 4.63854 6.76595e-06 6.62432 6.76595e-06 8.69872V48.0164C6.76595e-06 52.3226 0.709661 54.7225 5.21816 55.8221V66.4455C5.21267 67.6536 5.16329 68.679 6.2424 68.9196C7.08558 69.1058 8.23602 68.3481 8.94202 68.0334C9.80348 67.65 10.5918 68.2649 11.4569 68.6374C12.6311 69.142 12.8634 69.3608 14.1163 68.7893C17.0518 67.4474 16.1227 67.791 19.0217 68.9449C20.1081 69.3771 20.7556 68.8454 21.6353 68.4475C23.0784 67.7947 22.6449 67.6246 24.1118 68.2739C26.7565 69.4422 27.4479 69.3608 27.4442 66.1742V55.7769C29.6665 55.5255 31.0328 54.3409 31.8375 53.0044C32.9733 51.1163 32.5508 49.2354 32.6862 46.9114C33.0666 47.2207 33.33 47.8265 33.5787 48.2714C33.8366 48.7326 34.3085 49.324 34.3506 49.6712C34.4804 50.7726 32.5746 54.3915 36.2125 55.7769C37.6391 56.3195 38.4073 55.9378 39.5779 55.4477C41.0228 56.985 41.7087 57.3865 44.3095 56.6414C45.8312 61.188 48.1084 63.7236 51.1719 66.6444C51.8048 67.2467 51.8889 67.3516 52.3608 68.198C52.7303 68.8617 53.3704 70.484 54.1733 70.6413C54.5885 70.7227 54.9891 70.5961 55.1848 70.3646C55.9237 69.4893 54.2264 67.328 53.7819 66.5196C53.193 65.4508 53.1802 65.7582 52.4687 65.0855C45.4526 58.4336 45.3466 54.0931 44.9094 44.7357C44.7905 42.1785 44.935 42.2273 43.8468 40.303C43.1463 39.0678 42.486 37.9863 41.7818 36.7492C41.2148 35.7509 39.9839 34.1521 41.0777 32.9296C42.0763 31.8137 43.5889 31.9692 44.6131 33.8158C45.0283 34.5627 46.1403 36.7474 46.8134 37.1091C49.1216 37.4039 47.8267 35.2807 47.3822 34.4921C46.8884 33.6168 46.1111 32.1429 45.5715 31.5026C43.8961 29.5168 40.4229 29.9798 39.095 32.1989C37.5714 34.7435 39.673 37.1616 40.7228 39.0262C42.4823 42.1495 43.0713 42.381 42.8847 46.3833C42.3598 46.8409 40.2747 47.9206 39.534 48.3293C38.1384 49.0979 36.7447 49.4126 35.854 48.0797C34.806 46.5117 29.0885 36.4128 28.1228 34.6965C27.8247 34.1684 27.4955 33.3582 26.7803 33.2949C25.9701 33.2226 25.4982 33.8863 25.7634 34.6947C26.0725 35.6333 27.2302 36.9916 27.5832 38.0007C26.6834 37.5829 23.5649 37.5305 22.7638 38.1635C21.7816 38.9375 21.8054 41.8819 22.3157 42.759C23.0199 43.9671 25.6152 43.8658 26.9248 43.647C28.7117 43.3504 28.5069 41.5907 28.527 39.7659L28.8562 40.1077V40.1004Z" fill="#51A5F2"/>
<path fill-rule="evenodd" clip-rule="evenodd" d="M6.22424 32.0145H8.0185L8.56903 32.0181V33.861L8.02764 33.8646H6.21876L6.22424 32.0163V32.0145ZM4.18673 34.3638C4.32208 35.1523 4.97137 35.7527 5.81455 35.8757C6.37971 35.9589 8.26907 35.9535 8.85252 35.8902C10.8205 35.6786 10.9138 33.4233 10.5992 31.528C10.2938 29.6923 7.97643 29.7882 5.94623 29.9817C3.98737 30.168 3.86665 32.4901 4.18856 34.362L4.18673 34.3638Z" fill="#51A5F2"/>
<path fill-rule="evenodd" clip-rule="evenodd" d="M6.21682 39.7967H8.01839L8.56892 39.8004V41.6342L8.00193 41.636H6.21865V39.7967H6.21682ZM10.5223 42.4191C10.6887 41.9869 10.6814 39.9939 10.6137 39.4296C10.3705 37.4149 8.11898 37.6301 6.07781 37.7549C3.85923 37.8887 3.95068 40.3303 4.17565 41.9995C4.44634 44.007 6.7582 43.8171 8.71707 43.6779C9.65901 43.611 10.237 43.1642 10.5241 42.4191H10.5223Z" fill="#51A5F2"/>
<path fill-rule="evenodd" clip-rule="evenodd" d="M15.1613 32.0142L16.9958 32.0052L17.5115 32.0558L17.5134 33.8264L17.0031 33.8625H15.1613V32.0142ZM19.5106 34.4992C19.6167 34.1157 19.6204 31.9997 19.5454 31.5512C19.2235 29.6396 16.8183 29.806 14.9198 29.9796C14.0803 30.0574 13.4018 30.5891 13.1914 31.2818C13.0469 31.7574 13.0451 33.8336 13.1366 34.349C13.4713 36.2571 16.1123 36.0798 17.8298 35.8863C18.7534 35.7814 19.2948 35.2859 19.5125 34.4973L19.5106 34.4992Z" fill="#51A5F2"/>
<path fill-rule="evenodd" clip-rule="evenodd" d="M15.1431 39.7965L16.9904 39.7875L17.5062 39.8381L17.508 41.6015L16.9904 41.6358H15.1559L15.1431 39.7965ZM19.5034 42.2815C19.6095 41.8999 19.615 39.7821 19.54 39.3336C19.2199 37.4165 16.8276 37.5919 14.9144 37.7619C14.0713 37.8361 13.3927 38.3714 13.1842 39.0641C13.0415 39.5379 13.0397 41.6196 13.1293 42.1332C13.4659 44.0267 16.0996 43.8549 17.8207 43.665C18.7371 43.5637 19.2876 43.0592 19.5034 42.2815Z" fill="#51A5F2"/>
<path fill-rule="evenodd" clip-rule="evenodd" d="M24.1004 47.6527C24.7094 47.4881 25.8434 47.4863 26.4506 47.6545L26.4543 49.3527L25.9714 49.416L24.5832 49.4323L24.1004 49.331V47.6509V47.6527ZM22.1452 50.1991C22.4031 50.9352 23.0103 51.4108 24.0217 51.4615C24.6582 51.4922 26.4872 51.5211 27.0469 51.4072C29.0734 50.9912 28.618 47.5225 28.4132 46.828C28.1864 46.0539 27.5389 45.5747 26.5275 45.524C25.8946 45.4933 24.0583 45.4625 23.5023 45.5783C21.3624 46.0214 22.0117 49.8247 22.1433 50.1991H22.1452Z" fill="#51A5F2"/>
<path fill-rule="evenodd" clip-rule="evenodd" d="M15.1608 47.5679L16.9953 47.5588L17.5111 47.6131L17.5129 49.3819L16.999 49.4162H15.1608V47.5679ZM19.5084 50.0619C19.6163 49.6803 19.6199 47.5643 19.5468 47.1139C19.4096 46.2784 18.8518 45.7376 18.0763 45.5785C17.5623 45.4736 15.4882 45.4826 14.9194 45.5351C14.0726 45.6147 13.3977 46.1428 13.1892 46.8427C13.0483 47.3183 13.0447 49.3981 13.1361 49.9118C13.4763 51.8035 16.132 51.6335 17.8257 51.4436C18.7365 51.3405 19.2889 50.8377 19.5084 50.0619Z" fill="#51A5F2"/>
<path fill-rule="evenodd" clip-rule="evenodd" d="M6.22291 47.5678H8.01717L8.5677 47.5714V49.4143L8.00802 49.4161H6.2156L6.22109 47.5678H6.22291ZM10.5211 50.1992C10.6857 49.7742 10.6857 47.7613 10.6144 47.2097C10.5083 46.4013 10.0529 45.7936 9.22248 45.5946C8.70853 45.4717 6.67285 45.4843 6.07842 45.5277C5.15112 45.5946 4.54023 46.0287 4.27868 46.7684C4.11956 47.2169 3.49038 50.8756 5.57728 51.3838C6.11317 51.514 8.1013 51.4977 8.71768 51.4561C9.70534 51.3892 10.2248 50.9624 10.5211 50.1992Z" fill="#51A5F2"/>
<path fill-rule="evenodd" clip-rule="evenodd" d="M39.6445 19.662C41.2631 16.8732 31.5475 16.4102 29.4295 23.185C28.8826 24.9339 30.7464 25.3263 31.2768 24.1869C31.5401 23.6191 31.6042 23.2158 31.9297 22.6479C34.3879 18.3598 39.072 20.6512 39.6463 19.662H39.6445Z" fill="#51A5F2"/>
<path fill-rule="evenodd" clip-rule="evenodd" d="M38.554 23.6336C39.869 21.4217 34.6363 20.9334 33.4255 24.2666C32.8493 25.8527 34.6491 26.6177 35.3532 25.0732C35.6001 24.5306 35.8471 24.0803 36.6043 23.9609C37.3158 23.8488 38.2431 24.1599 38.5558 23.6336H38.554Z" fill="#51A5F2"/>
<path fill-rule="evenodd" clip-rule="evenodd" d="M36.5914 26.9903C37.1365 28.8314 39.2325 28.4317 38.8685 26.936C38.382 24.9322 36.1378 25.4548 36.5914 26.9903Z" fill="#51A5F2"/>
</svg>
