<svg width="73" height="71" viewBox="0 0 73 71" fill="none" xmlns="http://www.w3.org/2000/svg">
<path fill-rule="evenodd" clip-rule="evenodd" d="M23.2651 46.4824C26.172 53.5784 28.1823 53.0937 28.9236 54.2613C29.1747 54.6568 30.2564 56.9369 30.3412 57.3533C27.1865 58.2103 23.8357 57.5813 22.0776 55.668C21.4299 54.9619 21.7229 51.7135 21.7196 50.5801C21.7174 49.4598 21.5665 49.0512 22.0721 48.2096C22.2219 47.9596 22.3938 47.704 22.5954 47.3746L23.0216 46.7347C23.1417 46.5926 23.1505 46.5882 23.264 46.4824H23.2651ZM36.8611 52.3943C34.8134 53.8417 31.087 52.6509 29.4094 51.5098C27.8738 50.4655 26.4518 48.0884 25.6807 45.9151L34.4092 48.3242C35.2188 48.5643 35.0954 48.6392 35.4468 49.3959C35.9061 50.3851 36.4844 51.3908 36.8622 52.3943H36.8611ZM37.6785 43.8454C41.2926 44.9612 44.8428 46.044 48.4535 47.1257C50.2083 47.6511 52.1304 48.344 53.8984 48.8C56.2964 49.4169 55.1177 46.1784 57.8484 46.0682C60.1836 45.9735 59.5282 46.5397 60.817 41.9177C61.3259 40.0914 61.8271 38.2695 62.2754 36.3826L64.9235 36.3991L60.2354 52.966C59.2055 52.9968 52.8475 50.9986 51.3373 50.5922L29.5228 44.4468C28.1933 44.0723 26.3791 43.6592 25.1828 43.1911L26.8582 40.575L37.6763 43.8476L37.6785 43.8454ZM29.2981 36.3727L59.7893 36.4123C57.4805 44.9238 58.4543 43.2715 56.4528 43.8982C55.3469 44.2441 54.2817 45.1143 53.7695 46.1861C51.8892 45.7752 28.6471 38.633 28.1834 38.3257L29.2981 36.3727ZM16.884 10.8009C18.5506 10.4219 19.9539 9.0186 20.3615 7.352H60.5934C61.0979 9.41074 62.8207 10.8482 65.2539 10.976V24.2846C62.423 24.4278 60.5593 26.3004 60.4161 29.118H30.2906C29.4765 25.8124 27.7417 24.1215 25.532 22.5838C22.7209 20.6297 22.9137 23.6159 19.7556 26.5118C19.1167 25.6218 18.2697 24.8056 16.8829 24.4575V10.7998L16.884 10.8009ZM9.63046 7.3531C6.34792 7.3531 4.81461 8.34006 4.22089 11.3076C3.92788 12.7726 2.66003 18.1546 2.72613 19.2297L4.93688 19.6516C5.32131 18.864 5.9712 14.8963 6.20363 13.7386C6.77091 10.9066 6.36555 9.76984 9.53903 9.76984V29.7228C9.53903 31.6218 9.11935 34.3437 10.2991 35.552C11.2596 36.5357 14.4981 36.8749 15.5291 35.7767C16.9258 34.2886 23.6275 25.3486 24.4745 24.7593C24.7973 25.0733 24.9592 25.1316 25.3602 25.4775C27.9994 27.7555 28.971 31.5359 27.4178 34.8118C26.3317 37.1019 19.4494 47.3306 19.3183 48.4718L19.3051 70.2312H21.7229V58.5341C24.2664 59.7117 25.8514 60.7449 29.4116 60.095C30.3247 59.9287 32.4286 59.2072 32.9001 58.7346C33.7791 57.8534 32.5388 56.2199 32.1588 55.2847C34.8641 55.5028 36.2146 55.4895 38.5322 54.3946C41.265 53.1037 38.7855 51.8788 38.1962 49.4125C40.8233 49.9786 50.7106 52.9307 54.0988 53.8824C55.6751 54.3252 57.9057 55.0853 59.4115 55.3618C61.8602 55.8112 62.4814 54.1049 62.998 52.2522C63.4882 50.4908 64.0048 48.7042 64.4906 46.9417C64.9786 45.1727 65.4886 43.4411 65.9809 41.6324C66.231 40.7137 66.4744 39.8226 66.7355 38.9183C67.8789 34.9605 66.7388 36.8805 71.2991 36.3638C72.6143 36.2151 72.5152 35.0784 72.5108 33.805C72.4975 30.5049 72.3665 11.4188 72.5857 10.9815H70.0929V33.957H30.415L30.6298 31.5425L59.6626 31.537C61.2136 31.537 63.1963 31.9512 62.9892 30.0565C62.8053 28.3745 63.0344 27.4173 64.376 26.8764C65.7441 26.3257 67.4878 27.7037 67.6674 25.645L67.6729 11.1324C67.6762 9.07368 67.902 8.19356 65.6593 8.5097C64.148 8.72339 63.1214 7.76507 62.8879 6.5534C62.4924 4.49906 61.7853 4.93526 59.6615 4.93526H20.9662C18.0824 4.93086 18.5098 4.91323 17.9899 6.80014C17.4854 8.62976 15.6161 8.45572 15.0962 8.73991C14.0916 9.28957 14.4672 11.6512 14.4672 12.9455C14.4672 16.1697 14.4672 19.3949 14.4672 22.6191C14.4672 23.9607 14.0575 26.1814 15.3077 26.6121C15.3738 26.6352 18.1584 27.0218 18.0042 28.6587C17.9789 28.9308 16.2858 30.9554 15.9576 31.3651C14.6005 33.0571 14.0729 34.4241 12.3887 33.9064C11.9492 33.7709 12.3534 34 12.0791 33.7367C11.6848 33.1221 12.0472 5.71404 12.0472 2.51412H70.0907V8.56037H72.5086C72.5086 6.94884 72.5086 5.33622 72.5086 3.72359C72.5086 2.08343 72.9668 0.235076 71.1559 0.0984874C68.2446 -0.121817 64.3441 0.0962843 61.3237 0.0962843H12.1992C9.0136 0.0841676 9.63046 0.319893 9.63046 7.352V7.3531Z" fill="#51A5F2"/>
<path fill-rule="evenodd" clip-rule="evenodd" d="M6.00078 70.2291C6.00078 65.6952 6.00078 61.1602 6.00078 56.6264C6.00078 54.4487 6.11424 51.9592 5.99527 49.8201C5.91486 48.3628 2.97821 35.8418 2.50455 33.2235C2.23358 31.7254 4.53466 23.6821 4.44213 22.0728L2.22367 21.6873C1.90533 22.3184 -0.0696999 32.2497 0.00189891 33.012C0.138487 34.466 0.846765 37.0546 1.18493 38.6121L3.56422 49.8333C3.73605 51.6365 3.58514 67.5942 3.58404 70.228H6.00188L6.00078 70.2291Z" fill="#51A5F2"/>
<path fill-rule="evenodd" clip-rule="evenodd" d="M40.2642 12.2494C43.7835 11.756 46.6464 14.3699 47.0485 17.3704C47.5298 20.957 44.971 23.7934 41.9088 24.2197C34.0142 25.3168 32.3222 13.3642 40.2631 12.2494H40.2642ZM40.1133 9.8294C35.7325 10.3592 32.0898 14.2068 32.6692 19.2342C33.166 23.5433 37.1491 27.2323 42.0927 26.6276C46.3886 26.1022 50.0402 22.2006 49.4685 17.2283C48.975 12.939 44.9941 9.23788 40.1122 9.8283L40.1133 9.8294Z" fill="#51A5F2"/>
<path fill-rule="evenodd" clip-rule="evenodd" d="M55.5802 14.6045H62.8337V12.1877H55.5791L55.5802 14.6045Z" fill="#51A5F2"/>
</svg>
