<svg width="32" height="32" viewBox="0 0 32 32" fill="none" xmlns="http://www.w3.org/2000/svg">
<path d="M26.2758 25.7902C23.5282 25.871 20.348 25.4704 20.3047 26.7496C20.2596 28.081 23.0739 27.2551 23.0739 28.8009C23.0739 31.1737 8.92603 31.1204 8.92603 28.8009C8.92603 27.2551 11.7403 28.081 11.6953 26.7496C11.652 25.4704 8.47175 25.871 5.72417 25.7902C3.25515 25.7176 1.38747 25.4916 1.44056 24.511C1.5271 22.9119 8.45007 23.8753 8.45007 22.4322C8.45007 20.9397 5.50784 21.9525 5.50784 20.4067C5.50784 19.6072 7.23858 19.0742 11.2626 19.0742" stroke="#F80505" stroke-miterlimit="10" stroke-linecap="round" stroke-linejoin="round"/>
<path d="M20.7373 19.0742C24.7613 19.0742 26.492 19.6072 26.492 20.4067C26.492 21.9525 23.5498 20.9397 23.5498 22.4322C23.5498 23.8753 30.4728 22.9119 30.5593 24.511C30.5944 25.1573 29.795 25.4758 28.5389 25.6387" stroke="#F80505" stroke-miterlimit="10" stroke-linecap="round" stroke-linejoin="round"/>
<path d="M13.7507 11.9571L11.8485 15.2517C10.0036 18.4473 12.3098 22.4417 15.9996 22.4417C19.6895 22.4417 21.9957 18.4473 20.1508 15.2517L15.9996 8.06175L14.9685 9.84768" stroke="#F80505" stroke-miterlimit="10" stroke-linecap="round" stroke-linejoin="round"/>
<path d="M18.6288 19.1661C18.0801 20.1165 17.0973 20.6838 16 20.6838" stroke="#F80505" stroke-miterlimit="10" stroke-linecap="round" stroke-linejoin="round"/>
<path d="M21.0393 3.49023L19.1872 6.69824C18.364 8.124 19.393 9.90625 21.0393 9.90625C22.6857 9.90625 23.7147 8.124 22.8915 6.69824L21.0393 3.49023Z" stroke="#F80505" stroke-miterlimit="10" stroke-linecap="round" stroke-linejoin="round"/>
<path d="M12.9534 1.43945L11.6594 3.68066C11.0843 4.67676 11.8032 5.92188 12.9534 5.92188C14.1036 5.92188 14.8224 4.67676 14.2473 3.68066L12.9534 1.43945Z" stroke="#F80505" stroke-miterlimit="10" stroke-linecap="round" stroke-linejoin="round"/>
</svg>
