<svg width="82" height="82" viewBox="0 0 82 82" fill="none" xmlns="http://www.w3.org/2000/svg">
<circle cx="41" cy="41" r="29" fill="white"/>
<path fill-rule="evenodd" clip-rule="evenodd" d="M41 0C18.3925 0 0 18.3925 0 41C0 63.6075 18.3925 82 41 82C63.6075 82 82 63.6077 82 41C82 18.3923 63.6077 0 41 0ZM55.8209 22.9586C56.359 22.7663 56.9408 22.7307 57.4984 22.8561C58.056 22.9814 58.5665 23.2625 58.9706 23.6666C59.3748 24.0706 59.6559 24.5812 59.7813 25.1387C59.9067 25.6963 59.8712 26.278 59.679 26.8162L47.174 64.7412C46.9976 65.2741 46.6935 65.7557 46.2884 66.1442C45.9305 66.4835 45.4562 66.6727 44.9631 66.6727C44.8297 66.6732 44.6967 66.6592 44.5664 66.6311C44.2615 66.567 43.9768 66.4297 43.7369 66.231C43.4969 66.0323 43.3089 65.7783 43.189 65.4908L35.9035 47.9892C35.5677 47.4955 35.1417 47.0695 34.648 46.7336L17.1474 39.449C16.8597 39.3292 16.6053 39.1412 16.4064 38.9012C16.2075 38.6613 16.0699 38.3765 16.0056 38.0715C15.9412 37.7665 15.952 37.4504 16.0371 37.1505C16.1221 36.8506 16.2788 36.5759 16.4937 36.35C16.8814 35.9441 17.363 35.6399 17.896 35.4642L55.8209 22.9586ZM23.1426 37.7809L51.4835 28.4356L36.5316 43.3884C36.4051 43.3149 36.2743 43.2493 36.1397 43.1917L23.1426 37.7809ZM44.8564 59.4948L39.4465 46.4982C39.3888 46.3637 39.3231 46.2329 39.2497 46.1064L54.202 31.1542L44.8564 59.4948Z" fill="url(#paint0_linear_241_2)"/>
<path fill-rule="evenodd" clip-rule="evenodd" d="M41 0C18.3925 0 0 18.3925 0 41C0 63.6075 18.3925 82 41 82C63.6075 82 82 63.6077 82 41C82 18.3923 63.6077 0 41 0ZM55.8209 22.9586C56.359 22.7663 56.9408 22.7307 57.4984 22.8561C58.056 22.9814 58.5665 23.2625 58.9706 23.6666C59.3748 24.0706 59.6559 24.5812 59.7813 25.1387C59.9067 25.6963 59.8712 26.278 59.679 26.8162L47.174 64.7412C46.9976 65.2741 46.6935 65.7557 46.2884 66.1442C45.9305 66.4835 45.4562 66.6727 44.9631 66.6727C44.8297 66.6732 44.6967 66.6592 44.5664 66.6311C44.2615 66.567 43.9768 66.4297 43.7369 66.231C43.4969 66.0323 43.3089 65.7783 43.189 65.4908L35.9035 47.9892C35.5677 47.4955 35.1417 47.0695 34.648 46.7336L17.1474 39.449C16.8597 39.3292 16.6053 39.1412 16.4064 38.9012C16.2075 38.6613 16.0699 38.3765 16.0056 38.0715C15.9412 37.7665 15.952 37.4504 16.0371 37.1505C16.1221 36.8506 16.2788 36.5759 16.4937 36.35C16.8814 35.9441 17.363 35.6399 17.896 35.4642L55.8209 22.9586ZM23.1426 37.7809L51.4835 28.4356L36.5316 43.3884C36.4051 43.3149 36.2743 43.2493 36.1397 43.1917L23.1426 37.7809ZM44.8564 59.4948L39.4465 46.4982C39.3888 46.3637 39.3231 46.2329 39.2497 46.1064L54.202 31.1542L44.8564 59.4948Z" fill="#51A5F2"/>
<defs>
<linearGradient id="paint0_linear_241_2" x1="41" y1="82" x2="41" y2="0" gradientUnits="userSpaceOnUse">
<stop stop-color="#5CC4BB"/>
<stop offset="0.097" stop-color="#50C1C0"/>
<stop offset="0.501" stop-color="#25B4D2"/>
<stop offset="0.815" stop-color="#0AACDE"/>
<stop offset="1" stop-color="#00A9E2"/>
</linearGradient>
</defs>
</svg>
