<svg width="33" height="40" viewBox="0 0 33 40" fill="none" xmlns="http://www.w3.org/2000/svg">
<path d="M29.1948 12.0057L30.7255 10.4743C31.3203 9.87922 31.3203 8.91433 30.7255 8.31955C30.1307 7.72446 29.1665 7.72446 28.5717 8.31955L27.0409 9.85091C24.4728 7.71016 21.352 6.41689 18.0231 6.11413V3.04753H19.4955C20.3366 3.04753 21.0184 2.36514 21.0184 1.52362C21.0184 0.682096 20.3366 0 19.4955 0H13.5045C12.6634 0 11.9816 0.682096 11.9816 1.52362C11.9816 2.36514 12.6634 3.04753 13.5045 3.04753H14.9769V6.11413C6.64385 6.87221 0 13.8755 0 22.5509C0 31.6741 7.37957 39.058 16.5001 39.058C25.6192 39.058 33 31.6753 33 22.5509C33 18.6538 31.6584 14.9632 29.1948 12.0057ZM16.4999 36.0104C9.08156 36.0104 3.04595 29.9726 3.04595 22.5509C3.04595 15.1295 9.08156 9.09163 16.4999 9.09163C23.9184 9.09163 29.9537 15.1295 29.9537 22.5509C29.9537 29.9726 23.9184 36.0104 16.4999 36.0104ZM23.5583 15.4897C24.1532 16.0848 24.1532 17.0497 23.5583 17.6445L17.5769 23.6284C16.9821 24.2235 16.0176 24.2235 15.4231 23.6284C14.8282 23.0333 14.8282 22.0684 15.4231 21.4737L21.4042 15.4897C21.999 14.8947 22.9635 14.8947 23.5583 15.4897Z" fill="#F80505"/>
</svg>
