<svg width="30" height="21" viewBox="0 0 30 21" fill="none" xmlns="http://www.w3.org/2000/svg">
<path fill-rule="evenodd" clip-rule="evenodd" d="M26.57 19.8171C27.8468 19.4803 28.8537 18.4944 29.1974 17.2437C29.836 14.9592 29.8115 10.1972 29.8115 10.1972C29.8115 10.1972 29.8115 5.45953 29.1976 3.17478C28.8537 1.92426 27.847 0.938141 26.57 0.601566C24.2371 0.000139236 14.9057 0.000139236 14.9057 0.000139236C14.9057 0.000139236 5.59875 0.000139236 3.24153 0.625401C1.96443 0.962198 0.957765 1.94831 0.61387 3.19883C0 5.45953 0 10.2213 0 10.2213C0 10.2213 0 14.9592 0.61387 17.2437C0.957537 18.4942 1.98899 19.5044 3.2413 19.841C5.57419 20.4424 14.9055 20.4424 14.9055 20.4424C14.9055 20.4424 24.2371 20.4424 26.57 19.8171ZM18.8905 9.62007L11.3944 5.34726V13.8929L18.8905 9.62007Z" fill="white"/>
</svg>
